<?xml version="1.0" encoding="utf-8" standalone="no"?>
<!DOCTYPE svg PUBLIC "-//W3C//DTD SVG 1.1//EN"
  "http://www.w3.org/Graphics/SVG/1.1/DTD/svg11.dtd">
<!-- Created with matplotlib (https://matplotlib.org/) -->
<svg height="288pt" version="1.1" viewBox="0 0 432 288" width="432pt" xmlns="http://www.w3.org/2000/svg" xmlns:xlink="http://www.w3.org/1999/xlink">
 <metadata>
  <rdf:RDF xmlns:cc="http://creativecommons.org/ns#" xmlns:dc="http://purl.org/dc/elements/1.1/" xmlns:rdf="http://www.w3.org/1999/02/22-rdf-syntax-ns#">
   <cc:Work>
    <dc:type rdf:resource="http://purl.org/dc/dcmitype/StillImage"/>
    <dc:date>2022-05-24T14:08:36.202780</dc:date>
    <dc:format>image/svg+xml</dc:format>
    <dc:creator>
     <cc:Agent>
      <dc:title>Matplotlib v3.3.4, https://matplotlib.org/</dc:title>
     </cc:Agent>
    </dc:creator>
   </cc:Work>
  </rdf:RDF>
 </metadata>
 <defs>
  <style type="text/css">*{stroke-linecap:butt;stroke-linejoin:round;}</style>
 </defs>
 <g id="figure_1">
  <g id="patch_1">
   <path d="M 0 288 
L 432 288 
L 432 0 
L 0 0 
z
" style="fill:none;"/>
  </g>
  <g id="axes_1">
   <g id="patch_2">
    <path d="M 54 252 
L 388.8 252 
L 388.8 34.56 
L 54 34.56 
z
" style="fill:#ffffff;"/>
   </g>
   <g id="line2d_1">
    <path clip-path="url(#p00f5a7837a)" d="M 71.26798 242.082205 
L 73.276157 242.069325 
L 75.284333 242.052009 
L 77.29251 242.028892 
L 79.300687 241.998245 
L 81.308863 241.957898 
L 83.31704 241.905153 
L 85.325217 241.836684 
L 87.333394 241.74843 
L 89.34157 241.635478 
L 91.349747 241.491941 
L 93.357924 241.310837 
L 95.3661 241.083971 
L 97.374277 240.801824 
L 99.382454 240.453461 
L 101.390631 240.026471 
L 103.398807 239.506936 
L 105.406984 238.879454 
L 107.415161 238.127216 
L 109.423337 237.232162 
L 111.431514 236.175205 
L 113.439691 234.936556 
L 115.447868 233.496139 
L 117.456044 231.834108 
L 119.464221 229.931454 
L 121.472398 227.770712 
L 123.480574 225.336735 
L 125.488751 222.617536 
L 127.496928 219.605159 
L 129.505105 216.296554 
L 131.513281 212.694415 
L 133.521458 208.807954 
L 135.529635 204.653545 
L 137.537811 200.255221 
L 139.545988 195.64496 
L 141.554165 190.862739 
L 143.562342 185.956318 
L 145.570518 180.980731 
L 147.578695 175.997491 
L 149.586872 171.073484 
L 151.595048 166.279607 
L 153.603225 161.689149 
L 155.611402 157.375988 
L 157.619579 153.412647 
L 159.627755 149.868284 
L 161.635932 146.806701 
L 163.644109 144.284436 
L 165.652285 142.349029 
L 167.660462 141.037533 
L 169.668639 140.375334 
L 171.676816 140.375334 
L 173.684992 141.037533 
L 175.693169 142.349029 
L 177.701346 144.284436 
L 179.709522 146.806701 
L 181.717699 149.868284 
L 183.725876 153.412647 
L 185.734053 157.375988 
L 187.742229 161.689149 
L 189.750406 166.279607 
L 191.758583 171.073484 
L 193.766759 175.997491 
L 195.774936 180.980731 
L 197.783113 185.956318 
L 199.79129 190.862739 
L 201.799466 195.64496 
L 203.807643 200.255221 
L 205.81582 204.653545 
L 207.823996 208.807954 
L 209.832173 212.694415 
L 211.84035 216.296554 
L 213.848527 219.605159 
L 215.856703 222.617536 
L 217.86488 225.336735 
L 219.873057 227.770712 
L 221.881233 229.931454 
L 223.88941 231.834108 
L 225.897587 233.496139 
L 227.905764 234.936556 
L 229.91394 236.175205 
L 231.922117 237.232162 
L 233.930294 238.127216 
L 235.938471 238.879454 
L 237.946647 239.506936 
L 239.954824 240.026471 
L 241.963001 240.453461 
L 243.971177 240.801824 
L 245.979354 241.083971 
L 247.987531 241.310837 
L 249.995708 241.491941 
L 252.003884 241.635478 
L 254.012061 241.74843 
L 256.020238 241.836684 
L 258.028414 241.905153 
L 260.036591 241.957898 
L 262.044768 241.998245 
L 264.052945 242.028892 
L 266.061121 242.052009 
L 268.069298 242.069325 
L 270.077475 242.082205 
" style="fill:none;stroke:#2790db;stroke-linecap:square;stroke-width:0.5;"/>
   </g>
   <g id="line2d_2">
    <path clip-path="url(#p00f5a7837a)" d="M 174.837777 242.050218 
L 176.393304 242.025276 
L 177.948831 241.991744 
L 179.504358 241.946979 
L 181.059885 241.887632 
L 182.615412 241.809503 
L 184.170939 241.707365 
L 185.726466 241.574778 
L 187.281993 241.403879 
L 188.83752 241.185153 
L 190.393047 240.907201 
L 191.948574 240.556503 
L 193.504101 240.117189 
L 195.059628 239.570825 
L 196.615155 238.896238 
L 198.170682 238.069394 
L 199.726209 237.063341 
L 201.281736 235.848254 
L 202.837263 234.391585 
L 204.39279 232.658359 
L 205.948317 230.611616 
L 207.503844 228.213035 
L 209.059371 225.423743 
L 210.614898 222.205305 
L 212.170425 218.520914 
L 213.725952 214.336747 
L 215.281479 209.623476 
L 216.837006 204.357888 
L 218.392533 198.524575 
L 219.94806 192.117631 
L 221.503587 185.142275 
L 223.059114 177.616343 
L 224.614641 169.571544 
L 226.170168 161.054415 
L 227.725695 152.126882 
L 229.281222 142.866358 
L 230.836749 133.365325 
L 232.392276 123.730358 
L 233.947803 114.080569 
L 235.50333 104.545484 
L 237.058857 95.262387 
L 238.614384 86.373203 
L 240.169911 78.020989 
L 241.725438 70.346181 
L 243.280965 63.482705 
L 244.836492 57.554107 
L 246.392019 52.669871 
L 247.947546 48.922055 
L 249.503073 46.382411 
L 251.0586 45.100096 
L 252.614127 45.100096 
L 254.169654 46.382411 
L 255.725181 48.922055 
L 257.280708 52.669871 
L 258.836235 57.554107 
L 260.391762 63.482705 
L 261.947289 70.346181 
L 263.502816 78.020989 
L 265.058343 86.373203 
L 266.61387 95.262387 
L 268.169397 104.545484 
L 269.724924 114.080569 
L 271.280451 123.730358 
L 272.835978 133.365325 
L 274.391505 142.866358 
L 275.947032 152.126882 
L 277.502559 161.054415 
L 279.058086 169.571544 
L 280.613613 177.616343 
L 282.16914 185.142275 
L 283.724667 192.117631 
L 285.280194 198.524575 
L 286.835721 204.357888 
L 288.391248 209.623476 
L 289.946775 214.336747 
L 291.502302 218.520914 
L 293.057829 222.205305 
L 294.613356 225.423743 
L 296.168883 228.213035 
L 297.72441 230.611616 
L 299.279937 232.658359 
L 300.835464 234.391585 
L 302.390991 235.848254 
L 303.946518 237.063341 
L 305.502045 238.069394 
L 307.057572 238.896238 
L 308.613099 239.570825 
L 310.168626 240.117189 
L 311.724153 240.556503 
L 313.27968 240.907201 
L 314.835207 241.185153 
L 316.390734 241.403879 
L 317.946261 241.574778 
L 319.501788 241.707365 
L 321.057315 241.809503 
L 322.612842 241.887632 
L 324.168369 241.946979 
L 325.723896 241.991744 
L 327.279423 242.025276 
L 328.83495 242.050218 
" style="fill:none;stroke:#af5464;stroke-linecap:square;stroke-width:0.5;"/>
   </g>
   <g id="PolyCollection_1">
    <defs>
     <path d="M 71.26798 -45.917795 
L 71.26798 -45.883636 
L 73.276157 -45.883636 
L 75.284333 -45.883636 
L 77.29251 -45.883636 
L 79.300687 -45.883636 
L 81.308863 -45.883636 
L 83.31704 -45.883636 
L 85.325217 -45.883636 
L 87.333394 -45.883636 
L 89.34157 -45.883636 
L 91.349747 -45.883636 
L 93.357924 -45.883636 
L 95.3661 -45.883636 
L 97.374277 -45.883636 
L 99.382454 -45.883636 
L 101.390631 -45.883636 
L 103.398807 -45.883636 
L 105.406984 -45.883636 
L 107.415161 -45.883636 
L 109.423337 -45.883636 
L 111.431514 -45.883636 
L 113.439691 -45.883636 
L 115.447868 -45.883636 
L 117.456044 -45.883636 
L 119.464221 -45.883636 
L 121.472398 -45.883636 
L 123.480574 -45.883636 
L 125.488751 -45.883636 
L 127.496928 -45.883636 
L 129.505105 -45.883636 
L 131.513281 -45.883636 
L 133.521458 -45.883636 
L 135.529635 -45.883636 
L 137.537811 -45.883636 
L 139.545988 -45.883636 
L 141.554165 -45.883636 
L 143.562342 -45.883636 
L 145.570518 -45.883636 
L 147.578695 -45.883636 
L 149.586872 -45.883636 
L 151.595048 -45.883636 
L 153.603225 -45.883636 
L 155.611402 -45.883636 
L 157.619579 -45.883636 
L 159.627755 -45.883636 
L 161.635932 -45.883636 
L 163.644109 -45.883636 
L 165.652285 -45.883636 
L 167.660462 -45.883636 
L 169.668639 -45.883636 
L 171.676816 -45.883636 
L 173.684992 -45.883636 
L 175.693169 -45.883636 
L 177.701346 -45.883636 
L 179.709522 -45.883636 
L 181.717699 -45.883636 
L 183.725876 -45.883636 
L 185.734053 -45.883636 
L 187.742229 -45.883636 
L 189.750406 -45.883636 
L 191.758583 -45.883636 
L 193.766759 -45.883636 
L 195.774936 -45.883636 
L 197.783113 -45.883636 
L 199.79129 -45.883636 
L 201.799466 -45.883636 
L 203.807643 -45.883636 
L 205.81582 -45.883636 
L 207.823996 -45.883636 
L 209.832173 -45.883636 
L 211.84035 -45.883636 
L 213.848527 -45.883636 
L 215.856703 -45.883636 
L 217.86488 -45.883636 
L 219.873057 -45.883636 
L 221.881233 -45.883636 
L 223.88941 -45.883636 
L 225.897587 -45.883636 
L 227.905764 -45.883636 
L 229.91394 -45.883636 
L 231.922117 -45.883636 
L 233.930294 -45.883636 
L 235.938471 -45.883636 
L 237.946647 -45.883636 
L 239.954824 -45.883636 
L 241.963001 -45.883636 
L 243.971177 -45.883636 
L 245.979354 -45.883636 
L 247.987531 -45.883636 
L 249.995708 -45.883636 
L 252.003884 -45.883636 
L 254.012061 -45.883636 
L 256.020238 -45.883636 
L 258.028414 -45.883636 
L 260.036591 -45.883636 
L 262.044768 -45.883636 
L 264.052945 -45.883636 
L 266.061121 -45.883636 
L 268.069298 -45.883636 
L 270.077475 -45.883636 
L 270.077475 -45.917795 
L 270.077475 -45.917795 
L 268.069298 -45.930675 
L 266.061121 -45.947991 
L 264.052945 -45.971108 
L 262.044768 -46.001755 
L 260.036591 -46.042102 
L 258.028414 -46.094847 
L 256.020238 -46.163316 
L 254.012061 -46.25157 
L 252.003884 -46.364522 
L 249.995708 -46.508059 
L 247.987531 -46.689163 
L 245.979354 -46.916029 
L 243.971177 -47.198176 
L 241.963001 -47.546539 
L 239.954824 -47.973529 
L 237.946647 -48.493064 
L 235.938471 -49.120546 
L 233.930294 -49.872784 
L 231.922117 -50.767838 
L 229.91394 -51.824795 
L 227.905764 -53.063444 
L 225.897587 -54.503861 
L 223.88941 -56.165892 
L 221.881233 -58.068546 
L 219.873057 -60.229288 
L 217.86488 -62.663265 
L 215.856703 -65.382464 
L 213.848527 -68.394841 
L 211.84035 -71.703446 
L 209.832173 -75.305585 
L 207.823996 -79.192046 
L 205.81582 -83.346455 
L 203.807643 -87.744779 
L 201.799466 -92.35504 
L 199.79129 -97.137261 
L 197.783113 -102.043682 
L 195.774936 -107.019269 
L 193.766759 -112.002509 
L 191.758583 -116.926516 
L 189.750406 -121.720393 
L 187.742229 -126.310851 
L 185.734053 -130.624012 
L 183.725876 -134.587353 
L 181.717699 -138.131716 
L 179.709522 -141.193299 
L 177.701346 -143.715564 
L 175.693169 -145.650971 
L 173.684992 -146.962467 
L 171.676816 -147.624666 
L 169.668639 -147.624666 
L 167.660462 -146.962467 
L 165.652285 -145.650971 
L 163.644109 -143.715564 
L 161.635932 -141.193299 
L 159.627755 -138.131716 
L 157.619579 -134.587353 
L 155.611402 -130.624012 
L 153.603225 -126.310851 
L 151.595048 -121.720393 
L 149.586872 -116.926516 
L 147.578695 -112.002509 
L 145.570518 -107.019269 
L 143.562342 -102.043682 
L 141.554165 -97.137261 
L 139.545988 -92.35504 
L 137.537811 -87.744779 
L 135.529635 -83.346455 
L 133.521458 -79.192046 
L 131.513281 -75.305585 
L 129.505105 -71.703446 
L 127.496928 -68.394841 
L 125.488751 -65.382464 
L 123.480574 -62.663265 
L 121.472398 -60.229288 
L 119.464221 -58.068546 
L 117.456044 -56.165892 
L 115.447868 -54.503861 
L 113.439691 -53.063444 
L 111.431514 -51.824795 
L 109.423337 -50.767838 
L 107.415161 -49.872784 
L 105.406984 -49.120546 
L 103.398807 -48.493064 
L 101.390631 -47.973529 
L 99.382454 -47.546539 
L 97.374277 -47.198176 
L 95.3661 -46.916029 
L 93.357924 -46.689163 
L 91.349747 -46.508059 
L 89.34157 -46.364522 
L 87.333394 -46.25157 
L 85.325217 -46.163316 
L 83.31704 -46.094847 
L 81.308863 -46.042102 
L 79.300687 -46.001755 
L 77.29251 -45.971108 
L 75.284333 -45.947991 
L 73.276157 -45.930675 
L 71.26798 -45.917795 
z
" id="m9ba811ef6a"/>
    </defs>
    <g clip-path="url(#p00f5a7837a)">
     <use style="fill:#2790db;fill-opacity:0.6;" x="0" xlink:href="#m9ba811ef6a" y="288"/>
    </g>
   </g>
   <g id="PolyCollection_2">
    <defs>
     <path d="M 174.837777 -45.949782 
L 174.837777 -45.883636 
L 176.393304 -45.883636 
L 177.948831 -45.883636 
L 179.504358 -45.883636 
L 181.059885 -45.883636 
L 182.615412 -45.883636 
L 184.170939 -45.883636 
L 185.726466 -45.883636 
L 187.281993 -45.883636 
L 188.83752 -45.883636 
L 190.393047 -45.883636 
L 191.948574 -45.883636 
L 193.504101 -45.883636 
L 195.059628 -45.883636 
L 196.615155 -45.883636 
L 198.170682 -45.883636 
L 199.726209 -45.883636 
L 201.281736 -45.883636 
L 202.837263 -45.883636 
L 204.39279 -45.883636 
L 205.948317 -45.883636 
L 207.503844 -45.883636 
L 209.059371 -45.883636 
L 210.614898 -45.883636 
L 212.170425 -45.883636 
L 213.725952 -45.883636 
L 215.281479 -45.883636 
L 216.837006 -45.883636 
L 218.392533 -45.883636 
L 219.94806 -45.883636 
L 221.503587 -45.883636 
L 223.059114 -45.883636 
L 224.614641 -45.883636 
L 226.170168 -45.883636 
L 227.725695 -45.883636 
L 229.281222 -45.883636 
L 230.836749 -45.883636 
L 232.392276 -45.883636 
L 233.947803 -45.883636 
L 235.50333 -45.883636 
L 237.058857 -45.883636 
L 238.614384 -45.883636 
L 240.169911 -45.883636 
L 241.725438 -45.883636 
L 243.280965 -45.883636 
L 244.836492 -45.883636 
L 246.392019 -45.883636 
L 247.947546 -45.883636 
L 249.503073 -45.883636 
L 251.0586 -45.883636 
L 252.614127 -45.883636 
L 254.169654 -45.883636 
L 255.725181 -45.883636 
L 257.280708 -45.883636 
L 258.836235 -45.883636 
L 260.391762 -45.883636 
L 261.947289 -45.883636 
L 263.502816 -45.883636 
L 265.058343 -45.883636 
L 266.61387 -45.883636 
L 268.169397 -45.883636 
L 269.724924 -45.883636 
L 271.280451 -45.883636 
L 272.835978 -45.883636 
L 274.391505 -45.883636 
L 275.947032 -45.883636 
L 277.502559 -45.883636 
L 279.058086 -45.883636 
L 280.613613 -45.883636 
L 282.16914 -45.883636 
L 283.724667 -45.883636 
L 285.280194 -45.883636 
L 286.835721 -45.883636 
L 288.391248 -45.883636 
L 289.946775 -45.883636 
L 291.502302 -45.883636 
L 293.057829 -45.883636 
L 294.613356 -45.883636 
L 296.168883 -45.883636 
L 297.72441 -45.883636 
L 299.279937 -45.883636 
L 300.835464 -45.883636 
L 302.390991 -45.883636 
L 303.946518 -45.883636 
L 305.502045 -45.883636 
L 307.057572 -45.883636 
L 308.613099 -45.883636 
L 310.168626 -45.883636 
L 311.724153 -45.883636 
L 313.27968 -45.883636 
L 314.835207 -45.883636 
L 316.390734 -45.883636 
L 317.946261 -45.883636 
L 319.501788 -45.883636 
L 321.057315 -45.883636 
L 322.612842 -45.883636 
L 324.168369 -45.883636 
L 325.723896 -45.883636 
L 327.279423 -45.883636 
L 328.83495 -45.883636 
L 328.83495 -45.949782 
L 328.83495 -45.949782 
L 327.279423 -45.974724 
L 325.723896 -46.008256 
L 324.168369 -46.053021 
L 322.612842 -46.112368 
L 321.057315 -46.190497 
L 319.501788 -46.292635 
L 317.946261 -46.425222 
L 316.390734 -46.596121 
L 314.835207 -46.814847 
L 313.27968 -47.092799 
L 311.724153 -47.443497 
L 310.168626 -47.882811 
L 308.613099 -48.429175 
L 307.057572 -49.103762 
L 305.502045 -49.930606 
L 303.946518 -50.936659 
L 302.390991 -52.151746 
L 300.835464 -53.608415 
L 299.279937 -55.341641 
L 297.72441 -57.388384 
L 296.168883 -59.786965 
L 294.613356 -62.576257 
L 293.057829 -65.794695 
L 291.502302 -69.479086 
L 289.946775 -73.663253 
L 288.391248 -78.376524 
L 286.835721 -83.642112 
L 285.280194 -89.475425 
L 283.724667 -95.882369 
L 282.16914 -102.857725 
L 280.613613 -110.383657 
L 279.058086 -118.428456 
L 277.502559 -126.945585 
L 275.947032 -135.873118 
L 274.391505 -145.133642 
L 272.835978 -154.634675 
L 271.280451 -164.269642 
L 269.724924 -173.919431 
L 268.169397 -183.454516 
L 266.61387 -192.737613 
L 265.058343 -201.626797 
L 263.502816 -209.979011 
L 261.947289 -217.653819 
L 260.391762 -224.517295 
L 258.836235 -230.445893 
L 257.280708 -235.330129 
L 255.725181 -239.077945 
L 254.169654 -241.617589 
L 252.614127 -242.899904 
L 251.0586 -242.899904 
L 249.503073 -241.617589 
L 247.947546 -239.077945 
L 246.392019 -235.330129 
L 244.836492 -230.445893 
L 243.280965 -224.517295 
L 241.725438 -217.653819 
L 240.169911 -209.979011 
L 238.614384 -201.626797 
L 237.058857 -192.737613 
L 235.50333 -183.454516 
L 233.947803 -173.919431 
L 232.392276 -164.269642 
L 230.836749 -154.634675 
L 229.281222 -145.133642 
L 227.725695 -135.873118 
L 226.170168 -126.945585 
L 224.614641 -118.428456 
L 223.059114 -110.383657 
L 221.503587 -102.857725 
L 219.94806 -95.882369 
L 218.392533 -89.475425 
L 216.837006 -83.642112 
L 215.281479 -78.376524 
L 213.725952 -73.663253 
L 212.170425 -69.479086 
L 210.614898 -65.794695 
L 209.059371 -62.576257 
L 207.503844 -59.786965 
L 205.948317 -57.388384 
L 204.39279 -55.341641 
L 202.837263 -53.608415 
L 201.281736 -52.151746 
L 199.726209 -50.936659 
L 198.170682 -49.930606 
L 196.615155 -49.103762 
L 195.059628 -48.429175 
L 193.504101 -47.882811 
L 191.948574 -47.443497 
L 190.393047 -47.092799 
L 188.83752 -46.814847 
L 187.281993 -46.596121 
L 185.726466 -46.425222 
L 184.170939 -46.292635 
L 182.615412 -46.190497 
L 181.059885 -46.112368 
L 179.504358 -46.053021 
L 177.948831 -46.008256 
L 176.393304 -45.974724 
L 174.837777 -45.949782 
z
" id="mb01d8cf5f9"/>
    </defs>
    <g clip-path="url(#p00f5a7837a)">
     <use style="fill:#af5464;fill-opacity:0.6;" x="0" xlink:href="#mb01d8cf5f9" y="288"/>
    </g>
   </g>
   <g id="line2d_3">
    <path clip-path="url(#p00f5a7837a)" d="M 69.218182 242.091888 
L 82.318919 241.933111 
L 89.32629 241.636444 
L 94.200983 241.221687 
L 98.161671 240.673777 
L 101.513022 239.997604 
L 104.559705 239.158409 
L 107.30172 238.173341 
L 109.739066 237.077211 
L 112.176413 235.738016 
L 114.613759 234.120208 
L 116.746437 232.447938 
L 118.879115 230.511719 
L 121.011794 228.289953 
L 123.144472 225.763696 
L 125.27715 222.917775 
L 127.714496 219.261012 
L 130.151843 215.168215 
L 132.589189 210.64668 
L 135.331204 205.075359 
L 138.377887 198.350283 
L 142.033907 189.699947 
L 153.915971 160.996869 
L 156.353317 155.866331 
L 158.485995 151.826643 
L 160.314005 148.762309 
L 162.142015 146.114389 
L 163.665356 144.255328 
L 165.188698 142.733741 
L 166.712039 141.566101 
L 167.930713 140.895428 
L 169.149386 140.46396 
L 170.368059 140.274472 
L 171.586732 140.327917 
L 172.805405 140.623399 
L 174.024079 141.158156 
L 175.242752 141.927567 
L 176.461425 142.925171 
L 177.984767 144.480318 
L 179.508108 146.35902 
L 181.336118 149.006453 
L 183.164128 152.036269 
L 185.296806 155.979294 
L 188.038821 161.539172 
L 192.913514 172.073243 
L 196.569533 179.755647 
L 199.00688 184.394471 
L 200.834889 187.470833 
L 202.662899 190.102375 
L 204.186241 191.891091 
L 205.404914 193.02076 
L 206.623587 193.854962 
L 207.84226 194.368976 
L 208.756265 194.530053 
L 209.67027 194.488118 
L 210.584275 194.234115 
L 211.49828 193.75955 
L 212.412285 193.056577 
L 213.32629 192.118091 
L 214.544963 190.489718 
L 215.763636 188.419378 
L 216.98231 185.898216 
L 218.200983 182.921182 
L 219.724324 178.558029 
L 221.247666 173.490396 
L 223.075676 166.510149 
L 224.903686 158.609101 
L 227.036364 148.351689 
L 229.47371 135.505214 
L 233.12973 114.82186 
L 238.309091 85.571815 
L 240.746437 73.178812 
L 242.574447 64.942234 
L 244.097789 58.950744 
L 245.62113 53.875278 
L 246.839803 50.541951 
L 248.058477 47.901821 
L 248.972482 46.397849 
L 249.886486 45.314958 
L 250.800491 44.661696 
L 251.409828 44.467747 
L 252.019165 44.468189 
L 252.628501 44.663323 
L 253.237838 45.052848 
L 254.151843 45.999488 
L 255.065848 47.375808 
L 255.979853 49.173336 
L 257.198526 52.205324 
L 258.417199 55.931534 
L 259.940541 61.500871 
L 261.463882 67.991641 
L 263.291892 76.839462 
L 265.42457 88.352015 
L 268.166585 104.482109 
L 278.220639 165.032568 
L 280.657985 177.832716 
L 282.790663 187.992804 
L 284.923342 197.102847 
L 286.751351 204.054293 
L 288.579361 210.221107 
L 290.407371 215.628686 
L 292.235381 220.316908 
L 294.063391 224.336381 
L 295.8914 227.744906 
L 297.414742 230.163173 
L 298.938084 232.236584 
L 300.766093 234.320335 
L 302.594103 236.019827 
L 304.422113 237.391637 
L 306.250123 238.487641 
L 308.382801 239.479564 
L 310.515479 240.223715 
L 312.952826 240.840034 
L 315.999509 241.353779 
L 319.655528 241.718698 
L 324.530221 241.958558 
L 332.146929 242.083616 
L 352.864373 242.116158 
L 373.581818 242.116363 
L 373.581818 242.116363 
" style="fill:none;stroke:#000000;stroke-linecap:square;stroke-width:1.5;"/>
   </g>
   <g id="matplotlib.axis_1">
    <g id="xtick_1">
     <g id="line2d_4">
      <defs>
       <path d="M 0 0 
L 0 3.5 
" id="m45db73fb53" style="stroke:#000000;stroke-width:0.8;"/>
      </defs>
      <g>
       <use style="stroke:#000000;stroke-width:0.8;" x="69.218182" xlink:href="#m45db73fb53" y="252"/>
      </g>
     </g>
     <g id="text_1">
      <!-- −12 -->
      <g transform="translate(59.040682 267.589375)scale(0.12 -0.12)">
       <defs>
        <path d="M 52.828125 31.203125 
L 5.5625 31.203125 
L 5.5625 39.40625 
L 52.828125 39.40625 
z
" id="ArialMT-8722"/>
        <path d="M 37.25 0 
L 28.46875 0 
L 28.46875 56 
Q 25.296875 52.984375 20.140625 49.953125 
Q 14.984375 46.921875 10.890625 45.40625 
L 10.890625 53.90625 
Q 18.265625 57.375 23.78125 62.296875 
Q 29.296875 67.234375 31.59375 71.875 
L 37.25 71.875 
z
" id="ArialMT-49"/>
        <path d="M 50.34375 8.453125 
L 50.34375 0 
L 3.03125 0 
Q 2.9375 3.171875 4.046875 6.109375 
Q 5.859375 10.9375 9.828125 15.625 
Q 13.8125 20.3125 21.34375 26.46875 
Q 33.015625 36.03125 37.109375 41.625 
Q 41.21875 47.21875 41.21875 52.203125 
Q 41.21875 57.421875 37.46875 61 
Q 33.734375 64.59375 27.734375 64.59375 
Q 21.390625 64.59375 17.578125 60.78125 
Q 13.765625 56.984375 13.71875 50.25 
L 4.6875 51.171875 
Q 5.609375 61.28125 11.65625 66.578125 
Q 17.71875 71.875 27.9375 71.875 
Q 38.234375 71.875 44.234375 66.15625 
Q 50.25 60.453125 50.25 52 
Q 50.25 47.703125 48.484375 43.546875 
Q 46.734375 39.40625 42.65625 34.8125 
Q 38.578125 30.21875 29.109375 22.21875 
Q 21.1875 15.578125 18.9375 13.203125 
Q 16.703125 10.84375 15.234375 8.453125 
z
" id="ArialMT-50"/>
       </defs>
       <use xlink:href="#ArialMT-8722"/>
       <use x="58.398438" xlink:href="#ArialMT-49"/>
       <use x="114.013672" xlink:href="#ArialMT-50"/>
      </g>
     </g>
    </g>
    <g id="xtick_2">
     <g id="line2d_5">
      <g>
       <use style="stroke:#000000;stroke-width:0.8;" x="109.8" xlink:href="#m45db73fb53" y="252"/>
      </g>
     </g>
     <g id="text_2">
      <!-- −10 -->
      <g transform="translate(99.6225 267.589375)scale(0.12 -0.12)">
       <defs>
        <path d="M 4.15625 35.296875 
Q 4.15625 48 6.765625 55.734375 
Q 9.375 63.484375 14.515625 67.671875 
Q 19.671875 71.875 27.484375 71.875 
Q 33.25 71.875 37.59375 69.546875 
Q 41.9375 67.234375 44.765625 62.859375 
Q 47.609375 58.5 49.21875 52.21875 
Q 50.828125 45.953125 50.828125 35.296875 
Q 50.828125 22.703125 48.234375 14.96875 
Q 45.65625 7.234375 40.5 3 
Q 35.359375 -1.21875 27.484375 -1.21875 
Q 17.140625 -1.21875 11.234375 6.203125 
Q 4.15625 15.140625 4.15625 35.296875 
z
M 13.1875 35.296875 
Q 13.1875 17.671875 17.3125 11.828125 
Q 21.4375 6 27.484375 6 
Q 33.546875 6 37.671875 11.859375 
Q 41.796875 17.71875 41.796875 35.296875 
Q 41.796875 52.984375 37.671875 58.78125 
Q 33.546875 64.59375 27.390625 64.59375 
Q 21.34375 64.59375 17.71875 59.46875 
Q 13.1875 52.9375 13.1875 35.296875 
z
" id="ArialMT-48"/>
       </defs>
       <use xlink:href="#ArialMT-8722"/>
       <use x="58.398438" xlink:href="#ArialMT-49"/>
       <use x="114.013672" xlink:href="#ArialMT-48"/>
      </g>
     </g>
    </g>
    <g id="xtick_3">
     <g id="line2d_6">
      <g>
       <use style="stroke:#000000;stroke-width:0.8;" x="150.381818" xlink:href="#m45db73fb53" y="252"/>
      </g>
     </g>
     <g id="text_3">
      <!-- −8 -->
      <g transform="translate(143.540881 267.589375)scale(0.12 -0.12)">
       <defs>
        <path d="M 17.671875 38.8125 
Q 12.203125 40.828125 9.5625 44.53125 
Q 6.9375 48.25 6.9375 53.421875 
Q 6.9375 61.234375 12.546875 66.546875 
Q 18.171875 71.875 27.484375 71.875 
Q 36.859375 71.875 42.578125 66.421875 
Q 48.296875 60.984375 48.296875 53.171875 
Q 48.296875 48.1875 45.671875 44.5 
Q 43.0625 40.828125 37.75 38.8125 
Q 44.34375 36.671875 47.78125 31.875 
Q 51.21875 27.09375 51.21875 20.453125 
Q 51.21875 11.28125 44.71875 5.03125 
Q 38.234375 -1.21875 27.640625 -1.21875 
Q 17.046875 -1.21875 10.546875 5.046875 
Q 4.046875 11.328125 4.046875 20.703125 
Q 4.046875 27.6875 7.59375 32.390625 
Q 11.140625 37.109375 17.671875 38.8125 
z
M 15.921875 53.71875 
Q 15.921875 48.640625 19.1875 45.40625 
Q 22.46875 42.1875 27.6875 42.1875 
Q 32.765625 42.1875 36.015625 45.375 
Q 39.265625 48.578125 39.265625 53.21875 
Q 39.265625 58.0625 35.90625 61.359375 
Q 32.5625 64.65625 27.59375 64.65625 
Q 22.5625 64.65625 19.234375 61.421875 
Q 15.921875 58.203125 15.921875 53.71875 
z
M 13.09375 20.65625 
Q 13.09375 16.890625 14.875 13.375 
Q 16.65625 9.859375 20.171875 7.921875 
Q 23.6875 6 27.734375 6 
Q 34.03125 6 38.125 10.046875 
Q 42.234375 14.109375 42.234375 20.359375 
Q 42.234375 26.703125 38.015625 30.859375 
Q 33.796875 35.015625 27.4375 35.015625 
Q 21.234375 35.015625 17.15625 30.90625 
Q 13.09375 26.8125 13.09375 20.65625 
z
" id="ArialMT-56"/>
       </defs>
       <use xlink:href="#ArialMT-8722"/>
       <use x="58.398438" xlink:href="#ArialMT-56"/>
      </g>
     </g>
    </g>
    <g id="xtick_4">
     <g id="line2d_7">
      <g>
       <use style="stroke:#000000;stroke-width:0.8;" x="190.963636" xlink:href="#m45db73fb53" y="252"/>
      </g>
     </g>
     <g id="text_4">
      <!-- −6 -->
      <g transform="translate(184.122699 267.589375)scale(0.12 -0.12)">
       <defs>
        <path d="M 49.75 54.046875 
L 41.015625 53.375 
Q 39.84375 58.546875 37.703125 60.890625 
Q 34.125 64.65625 28.90625 64.65625 
Q 24.703125 64.65625 21.53125 62.3125 
Q 17.390625 59.28125 14.984375 53.46875 
Q 12.59375 47.65625 12.5 36.921875 
Q 15.671875 41.75 20.265625 44.09375 
Q 24.859375 46.4375 29.890625 46.4375 
Q 38.671875 46.4375 44.84375 39.96875 
Q 51.03125 33.5 51.03125 23.25 
Q 51.03125 16.5 48.125 10.71875 
Q 45.21875 4.9375 40.140625 1.859375 
Q 35.0625 -1.21875 28.609375 -1.21875 
Q 17.625 -1.21875 10.6875 6.859375 
Q 3.765625 14.9375 3.765625 33.5 
Q 3.765625 54.25 11.421875 63.671875 
Q 18.109375 71.875 29.4375 71.875 
Q 37.890625 71.875 43.28125 67.140625 
Q 48.6875 62.40625 49.75 54.046875 
z
M 13.875 23.1875 
Q 13.875 18.65625 15.796875 14.5 
Q 17.71875 10.359375 21.1875 8.171875 
Q 24.65625 6 28.46875 6 
Q 34.03125 6 38.03125 10.484375 
Q 42.046875 14.984375 42.046875 22.703125 
Q 42.046875 30.125 38.078125 34.390625 
Q 34.125 38.671875 28.125 38.671875 
Q 22.171875 38.671875 18.015625 34.390625 
Q 13.875 30.125 13.875 23.1875 
z
" id="ArialMT-54"/>
       </defs>
       <use xlink:href="#ArialMT-8722"/>
       <use x="58.398438" xlink:href="#ArialMT-54"/>
      </g>
     </g>
    </g>
    <g id="xtick_5">
     <g id="line2d_8">
      <g>
       <use style="stroke:#000000;stroke-width:0.8;" x="231.545455" xlink:href="#m45db73fb53" y="252"/>
      </g>
     </g>
     <g id="text_5">
      <!-- −4 -->
      <g transform="translate(224.704517 267.589375)scale(0.12 -0.12)">
       <defs>
        <path d="M 32.328125 0 
L 32.328125 17.140625 
L 1.265625 17.140625 
L 1.265625 25.203125 
L 33.9375 71.578125 
L 41.109375 71.578125 
L 41.109375 25.203125 
L 50.78125 25.203125 
L 50.78125 17.140625 
L 41.109375 17.140625 
L 41.109375 0 
z
M 32.328125 25.203125 
L 32.328125 57.46875 
L 9.90625 25.203125 
z
" id="ArialMT-52"/>
       </defs>
       <use xlink:href="#ArialMT-8722"/>
       <use x="58.398438" xlink:href="#ArialMT-52"/>
      </g>
     </g>
    </g>
    <g id="xtick_6">
     <g id="line2d_9">
      <g>
       <use style="stroke:#000000;stroke-width:0.8;" x="272.127273" xlink:href="#m45db73fb53" y="252"/>
      </g>
     </g>
     <g id="text_6">
      <!-- −2 -->
      <g transform="translate(265.286335 267.589375)scale(0.12 -0.12)">
       <use xlink:href="#ArialMT-8722"/>
       <use x="58.398438" xlink:href="#ArialMT-50"/>
      </g>
     </g>
    </g>
    <g id="xtick_7">
     <g id="line2d_10">
      <g>
       <use style="stroke:#000000;stroke-width:0.8;" x="312.709091" xlink:href="#m45db73fb53" y="252"/>
      </g>
     </g>
     <g id="text_7">
      <!-- 0 -->
      <g transform="translate(309.372528 267.589375)scale(0.12 -0.12)">
       <use xlink:href="#ArialMT-48"/>
      </g>
     </g>
    </g>
    <g id="xtick_8">
     <g id="line2d_11">
      <g>
       <use style="stroke:#000000;stroke-width:0.8;" x="353.290909" xlink:href="#m45db73fb53" y="252"/>
      </g>
     </g>
     <g id="text_8">
      <!-- 2 -->
      <g transform="translate(349.954347 267.589375)scale(0.12 -0.12)">
       <use xlink:href="#ArialMT-50"/>
      </g>
     </g>
    </g>
   </g>
   <g id="matplotlib.axis_2">
    <g id="ytick_1">
     <g id="line2d_12">
      <defs>
       <path d="M 0 0 
L -3.5 0 
" id="m6a29856fb8" style="stroke:#000000;stroke-width:0.8;"/>
      </defs>
      <g>
       <use style="stroke:#000000;stroke-width:0.8;" x="54" xlink:href="#m6a29856fb8" y="242.116364"/>
      </g>
     </g>
     <g id="text_9">
      <!-- 0.00 -->
      <g transform="translate(23.646875 246.411051)scale(0.12 -0.12)">
       <defs>
        <path d="M 9.078125 0 
L 9.078125 10.015625 
L 19.09375 10.015625 
L 19.09375 0 
z
" id="ArialMT-46"/>
       </defs>
       <use xlink:href="#ArialMT-48"/>
       <use x="55.615234" xlink:href="#ArialMT-46"/>
       <use x="83.398438" xlink:href="#ArialMT-48"/>
       <use x="139.013672" xlink:href="#ArialMT-48"/>
      </g>
     </g>
    </g>
    <g id="ytick_2">
     <g id="line2d_13">
      <g>
       <use style="stroke:#000000;stroke-width:0.8;" x="54" xlink:href="#m6a29856fb8" y="203.042485"/>
      </g>
     </g>
     <g id="text_10">
      <!-- 0.05 -->
      <g transform="translate(23.646875 207.337173)scale(0.12 -0.12)">
       <defs>
        <path d="M 4.15625 18.75 
L 13.375 19.53125 
Q 14.40625 12.796875 18.140625 9.390625 
Q 21.875 6 27.15625 6 
Q 33.5 6 37.890625 10.78125 
Q 42.28125 15.578125 42.28125 23.484375 
Q 42.28125 31 38.0625 35.34375 
Q 33.84375 39.703125 27 39.703125 
Q 22.75 39.703125 19.328125 37.765625 
Q 15.921875 35.84375 13.96875 32.765625 
L 5.71875 33.84375 
L 12.640625 70.609375 
L 48.25 70.609375 
L 48.25 62.203125 
L 19.671875 62.203125 
L 15.828125 42.96875 
Q 22.265625 47.46875 29.34375 47.46875 
Q 38.71875 47.46875 45.15625 40.96875 
Q 51.609375 34.46875 51.609375 24.265625 
Q 51.609375 14.546875 45.953125 7.46875 
Q 39.0625 -1.21875 27.15625 -1.21875 
Q 17.390625 -1.21875 11.203125 4.25 
Q 5.03125 9.71875 4.15625 18.75 
z
" id="ArialMT-53"/>
       </defs>
       <use xlink:href="#ArialMT-48"/>
       <use x="55.615234" xlink:href="#ArialMT-46"/>
       <use x="83.398438" xlink:href="#ArialMT-48"/>
       <use x="139.013672" xlink:href="#ArialMT-53"/>
      </g>
     </g>
    </g>
    <g id="ytick_3">
     <g id="line2d_14">
      <g>
       <use style="stroke:#000000;stroke-width:0.8;" x="54" xlink:href="#m6a29856fb8" y="163.968607"/>
      </g>
     </g>
     <g id="text_11">
      <!-- 0.10 -->
      <g transform="translate(23.646875 168.263295)scale(0.12 -0.12)">
       <use xlink:href="#ArialMT-48"/>
       <use x="55.615234" xlink:href="#ArialMT-46"/>
       <use x="83.398438" xlink:href="#ArialMT-49"/>
       <use x="139.013672" xlink:href="#ArialMT-48"/>
      </g>
     </g>
    </g>
    <g id="ytick_4">
     <g id="line2d_15">
      <g>
       <use style="stroke:#000000;stroke-width:0.8;" x="54" xlink:href="#m6a29856fb8" y="124.894729"/>
      </g>
     </g>
     <g id="text_12">
      <!-- 0.15 -->
      <g transform="translate(23.646875 129.189416)scale(0.12 -0.12)">
       <use xlink:href="#ArialMT-48"/>
       <use x="55.615234" xlink:href="#ArialMT-46"/>
       <use x="83.398438" xlink:href="#ArialMT-49"/>
       <use x="139.013672" xlink:href="#ArialMT-53"/>
      </g>
     </g>
    </g>
    <g id="ytick_5">
     <g id="line2d_16">
      <g>
       <use style="stroke:#000000;stroke-width:0.8;" x="54" xlink:href="#m6a29856fb8" y="85.820851"/>
      </g>
     </g>
     <g id="text_13">
      <!-- 0.20 -->
      <g transform="translate(23.646875 90.115538)scale(0.12 -0.12)">
       <use xlink:href="#ArialMT-48"/>
       <use x="55.615234" xlink:href="#ArialMT-46"/>
       <use x="83.398438" xlink:href="#ArialMT-50"/>
       <use x="139.013672" xlink:href="#ArialMT-48"/>
      </g>
     </g>
    </g>
    <g id="ytick_6">
     <g id="line2d_17">
      <g>
       <use style="stroke:#000000;stroke-width:0.8;" x="54" xlink:href="#m6a29856fb8" y="46.746972"/>
      </g>
     </g>
     <g id="text_14">
      <!-- 0.25 -->
      <g transform="translate(23.646875 51.04166)scale(0.12 -0.12)">
       <use xlink:href="#ArialMT-48"/>
       <use x="55.615234" xlink:href="#ArialMT-46"/>
       <use x="83.398438" xlink:href="#ArialMT-50"/>
       <use x="139.013672" xlink:href="#ArialMT-53"/>
      </g>
     </g>
    </g>
   </g>
   <g id="line2d_18">
    <path clip-path="url(#p00f5a7837a)" d="M 69.218182 252 
L 69.218182 34.56 
" style="fill:none;stroke:#000000;stroke-dasharray:5.55,2.4;stroke-dashoffset:0;stroke-opacity:0.5;stroke-width:1.5;"/>
   </g>
   <g id="line2d_19">
    <path clip-path="url(#p00f5a7837a)" d="M 373.581818 252 
L 373.581818 34.56 
" style="fill:none;stroke:#000000;stroke-dasharray:5.55,2.4;stroke-dashoffset:0;stroke-opacity:0.5;stroke-width:1.5;"/>
   </g>
   <g id="patch_3">
    <path d="M 54 252 
L 54 34.56 
" style="fill:none;stroke:#000000;stroke-linecap:square;stroke-linejoin:miter;stroke-width:0.8;"/>
   </g>
   <g id="patch_4">
    <path d="M 388.8 252 
L 388.8 34.56 
" style="fill:none;stroke:#000000;stroke-linecap:square;stroke-linejoin:miter;stroke-width:0.8;"/>
   </g>
   <g id="patch_5">
    <path d="M 54 252 
L 388.8 252 
" style="fill:none;stroke:#000000;stroke-linecap:square;stroke-linejoin:miter;stroke-width:0.8;"/>
   </g>
   <g id="patch_6">
    <path d="M 54 34.56 
L 388.8 34.56 
" style="fill:none;stroke:#000000;stroke-linecap:square;stroke-linejoin:miter;stroke-width:0.8;"/>
   </g>
  </g>
 </g>
 <defs>
  <clipPath id="p00f5a7837a">
   <rect height="217.44" width="334.8" x="54" y="34.56"/>
  </clipPath>
 </defs>
</svg>
