<?xml version="1.0" encoding="utf-8" standalone="no"?>
<!DOCTYPE svg PUBLIC "-//W3C//DTD SVG 1.1//EN"
  "http://www.w3.org/Graphics/SVG/1.1/DTD/svg11.dtd">
<svg xmlns:xlink="http://www.w3.org/1999/xlink" width="460.8pt" height="345.6pt" viewBox="0 0 460.8 345.6" xmlns="http://www.w3.org/2000/svg" version="1.1">
 <metadata>
  <rdf:RDF xmlns:dc="http://purl.org/dc/elements/1.1/" xmlns:cc="http://creativecommons.org/ns#" xmlns:rdf="http://www.w3.org/1999/02/22-rdf-syntax-ns#">
   <cc:Work>
    <dc:type rdf:resource="http://purl.org/dc/dcmitype/StillImage"/>
    <dc:date>2023-06-05T14:38:19.393371</dc:date>
    <dc:format>image/svg+xml</dc:format>
    <dc:creator>
     <cc:Agent>
      <dc:title>Matplotlib v3.6.2, https://matplotlib.org/</dc:title>
     </cc:Agent>
    </dc:creator>
   </cc:Work>
  </rdf:RDF>
 </metadata>
 <defs>
  <style type="text/css">*{stroke-linejoin: round; stroke-linecap: butt}</style>
 </defs>
 <g id="figure_1">
  <g id="patch_1">
   <path d="M 0 345.6 
L 460.8 345.6 
L 460.8 0 
L 0 0 
z
" style="fill: #ffffff"/>
  </g>
  <g id="axes_1">
   <g id="line2d_1">
    <path d="M 124.300816 96.675633 
L 123.485275 95.190181 
L 123.937195 96.626357 
L 123.371804 97.744507 
L 124.540575 101.077386 
L 122.637337 104.31746 
L 122.736404 101.317162 
L 123.662475 99.641924 
L 124.856881 98.162136 
L 129.138768 97.065473 
L 130.035945 95.341715 
L 128.472715 97.360156 
L 128.373864 100.311877 
L 128.781338 103.109966 
L 128.4222 101.511909 
L 129.811876 103.341286 
L 130.798149 96.92765 
L 132.745209 94.697301 
L 133.480831 92.578417 
L 134.222359 93.254277 
L 134.75886 93.266899 
L 137.328565 92.64493 
L 138.117482 93.800261 
L 139.449816 90.85257 
L 143.085286 87.778906 
L 144.257266 88.584989 
L 144.837598 93.100108 
L 143.346084 91.244134 
L 143.614595 92.39766 
L 145.794636 91.476772 
L 146.066193 95.584346 
L 145.675544 97.422768 
L 144.0151 96.654135 
L 141.948452 89.753378 
L 134.482576 91.501267 
L 134.39693 96.483345 
L 134.055416 95.198189 
L 133.098825 97.501088 
L 133.008736 98.781197 
L 134.389044 91.715993 
L 135.763329 92.775081 
L 136.376936 96.916767 
L 140.912405 96.518561 
L 141.409098 94.606684 
L 140.321356 101.705648 
L 141.592378 107.406253 
L 138.702904 112.013853 
L 142.950927 108.750441 
L 144.710616 112.861797 
L 147.246415 116.182588 
L 152.296867 113.089746 
L 150.687802 112.134643 
L 151.649742 111.944369 
L 150.476608 111.607104 
L 150.700052 111.631804 
L 148.8038 113.395973 
L 148.413672 111.727954 
L 149.01308 110.218636 
L 148.897434 110.089164 
L 147.923642 109.407537 
L 147.696383 108.561987 
L 147.962734 107.491643 
L 148.573062 106.369078 
L 149.472618 104.390592 
L 150.262892 105.379453 
L 150.233122 103.130745 
L 150.053556 102.706096 
L 151.565789 99.303908 
L 150.936718 99.1618 
L 150.655333 100.988865 
L 149.444365 102.478163 
L 148.832662 104.510782 
L 149.037688 105.061803 
L 149.314342 104.987391 
L 148.40675 106.996164 
L 149.0297 107.398156 
L 149.631345 108.295989 
L 150.401226 108.703017 
L 149.330789 109.961159 
L 149.057548 112.51944 
L 149.83501 113.006609 
L 148.664702 108.38125 
L 149.633124 108.202848 
L 151.076475 107.182519 
L 151.080615 104.125544 
L 152.37424 104.272762 
L 152.695614 103.720939 
L 152.135921 103.207569 
L 151.895171 99.658565 
L 151.962142 97.997506 
L 151.945506 94.917231 
L 151.473592 92.448242 
L 153.438906 91.281431 
L 152.859523 92.432805 
L 152.998312 91.801075 
L 151.983158 93.33526 
L 153.0798 95.03787 
L 153.462771 98.098525 
L 152.75684 97.761832 
L 151.328617 98.819147 
L 151.979314 97.60717 
L 151.995618 99.55445 
L 150.881761 100.826964 
L 150.860934 99.992783 
L 151.313135 101.023122 
L 151.282719 100.740801 
L 152.210753 101.882908 
L 150.14557 102.872024 
L 150.772198 98.991276 
L 150.351525 95.108604 
L 151.222856 91.614158 
L 156.767842 97.525395 
L 155.864415 94.333057 
L 153.263409 93.790945 
L 152.731024 91.579394 
L 154.223596 88.940673 
L 157.860963 88.691275 
L 154.109598 92.713574 
L 155.512012 97.27628 
L 153.289783 91.363932 
L 154.091084 89.767974 
L 154.156226 78.868376 
L 155.385616 74.467316 
L 146.938007 70.294096 
L 149.074678 74.2847 
L 147.572211 68.086554 
L 147.895963 64.00952 
L 147.122582 62.194401 
L 145.659887 59.355414 
L 142.742435 59.752371 
L 144.603923 59.798001 
L 144.619806 60.115207 
L 147.256873 61.143509 
L 147.832473 64.425428 
L 146.343008 66.197771 
L 149.071344 70.662069 
L 146.657554 72.073357 
L 152.248982 62.073474 
L 151.432605 52.194059 
L 143.49088 47.008228 
L 142.615305 50.762722 
L 140.382162 52.092861 
L 140.132986 54.109143 
L 136.990732 52.256867 
L 130.392956 57.451016 
L 130.957143 61.295546 
L 130.18883 60.21905 
L 127.190159 61.74364 
L 128.470345 59.4294 
L 128.153333 63.160482 
L 128.442477 66.160378 
L 129.810882 66.93591 
L 128.569832 62.080477 
L 128.566443 64.916033 
L 127.749549 60.76703 
L 127.247241 62.731451 
L 129.814609 63.893523 
L 131.342279 64.297809 
L 129.895738 61.337932 
L 129.725631 59.752613 
L 129.106688 58.464223 
L 129.181068 57.815633 
L 128.923353 57.889306 
L 128.186123 56.666059 
L 128.261305 58.096286 
L 126.972121 61.152955 
L 126.691492 59.861881 
L 127.259178 61.063347 
L 128.083095 60.853905 
L 126.697113 61.029634 
L 127.258396 62.025251 
L 128.855815 60.186936 
L 128.729606 59.173875 
L 128.959931 59.280467 
L 127.758917 59.469204 
L 126.511395 62.770365 
L 125.484987 60.939732 
L 124.073635 61.909943 
L 124.217449 64.385933 
L 124.710998 62.838458 
L 123.150392 63.613766 
L 121.727461 63.065351 
L 119.692288 66.068285 
L 120.220294 68.411113 
L 118.081774 65.887863 
L 117.656342 66.659693 
L 119.047042 69.561421 
L 120.055944 69.134029 
L 120.310591 71.763736 
L 120.393897 71.399291 
L 119.748723 72.759325 
L 124.420688 71.91102 
L 124.302169 72.893739 
L 124.610941 74.22031 
L 126.312779 75.100774 
L 126.026072 75.669435 
L 125.723863 74.928577 
L 125.153437 73.857669 
L 127.071511 74.879941 
L 126.317063 72.15966 
L 120.051479 74.690898 
L 122.323735 67.373233 
L 124.883756 66.551881 
L 125.017759 67.965352 
L 124.485106 68.305193 
L 121.878349 68.50463 
L 123.302853 73.73106 
L 121.477838 76.6013 
L 120.804096 74.247746 
L 118.653082 76.768162 
L 118.313696 74.788547 
L 113.417134 81.380314 
L 114.161671 82.65791 
L 118.198744 79.102509 
L 118.388403 71.662322 
L 117.279072 73.221629 
L 118.283345 70.920708 
L 112.22764 72.915212 
L 113.631363 91.473959 
L 115.654121 80.728942 
L 110.996796 84.673927 
L 108.811446 79.794732 
L 107.938959 83.646693 
L 106.661534 82.486442 
L 102.174488 77.508197 
L 101.036937 73.978106 
L 103.06905 74.124638 
L 103.69022 72.966391 
L 102.090862 66.030927 
L 104.947266 61.614831 
L 106.216439 59.899988 
L 106.172858 65.36267 
L 108.743535 65.805676 
L 107.865693 67.221945 
L 110.122191 67.750961 
L 111.003497 62.948071 
L 106.96859 65.280521 
L 104.379004 63.430899 
L 100.347533 65.771494 
L 106.161259 60.334779 
L 110.495016 56.601924 
L 101.659379 60.128203 
L 101.16231 56.337638 
L 101.810136 60.627465 
L 104.352333 66.094226 
L 101.898748 66.416988 
L 103.708778 56.253665 
L 103.946785 59.657227 
L 100.790291 70.635235 
L 98.214609 66.39869 
L 95.183991 71.142357 
L 93.224205 73.653188 
L 93.687271 73.631773 
L 89.117579 68.062755 
L 95.666003 79.187297 
L 92.337326 79.81794 
L 92.562235 81.162335 
L 90.704397 83.70505 
L 89.099802 82.656064 
L 92.331767 84.391192 
L 92.361088 85.51868 
L 93.948833 85.751138 
L 91.127535 84.314129 
L 93.34192 85.939313 
L 91.760985 81.550711 
L 96.358139 81.972892 
L 97.602892 77.541114 
L 91.972969 82.90147 
L 93.291578 83.34807 
L 98.421004 75.020558 
L 105.781958 81.638909 
L 108.227581 88.796879 
L 106.235967 87.608173 
L 105.69527 83.947643 
L 100.764709 84.187792 
L 101.107224 91.329951 
L 100.774448 80.390874 
L 100.1307 81.107465 
L 98.755946 79.596146 
L 104.046969 83.138888 
L 100.810543 83.014934 
L 100.184728 80.660737 
L 97.52572 85.870177 
L 92.754038 85.721664 
L 95.637997 88.563 
L 96.368086 84.379992 
L 93.870776 86.614624 
L 91.465278 80.165285 
L 98.05169 64.756598 
L 101.566064 70.897142 
L 96.69307 81.973628 
L 91.836823 85.786712 
L 90.693815 88.497291 
L 86.920789 91.997393 
L 86.463226 89.201887 
L 84.932312 85.068814 
L 81.161919 77.079448 
L 81.45207 76.526965 
L 81.080223 74.861973 
L 80.409443 75.097381 
L 81.47494 75.152139 
L 82.693913 73.300597 
L 81.922299 77.553246 
L 79.043554 80.168787 
L 78.354221 82.909778 
L 77.858633 78.439328 
L 76.288963 79.643791 
L 77.157674 80.199654 
L 75.922248 79.868872 
L 74.460419 80.721392 
L 75.577576 77.512302 
L 76.247818 74.880219 
L 75.204808 70.564153 
L 74.378105 68.134596 
L 75.52041 67.552752 
L 74.216559 66.571356 
L 72.795077 69.298808 
L 70.536904 70.949422 
L 71.563038 71.95279 
L 70.836375 74.343725 
L 70.571998 69.66174 
L 71.559074 71.67444 
L 73.634724 72.243966 
L 73.102476 71.561918 
L 71.515167 72.208959 
L 72.415188 76.86055 
L 73.496693 76.99558 
L 75.727228 76.944894 
L 73.380318 75.852895 
L 71.714652 74.037048 
L 71.819044 67.929987 
L 71.753598 69.213854 
L 72.298178 73.991029 
L 71.340128 76.692977 
L 70.778965 77.12826 
L 71.407877 76.992772 
L 70.249324 74.832321 
L 69.559555 74.787019 
L 68.153992 76.250421 
L 69.100563 74.932622 
L 70.850005 71.888846 
L 71.127046 67.896721 
L 71.496126 71.56953 
L 68.41809 92.040516 
L 62.374332 93.818839 
L 65.861546 99.064986 
L 69.992522 100.025361 
L 71.001477 100.609305 
L 71.282568 100.008397 
L 74.563833 98.546711 
L 72.492033 92.654942 
L 76.510084 91.844029 
L 76.093314 97.022519 
L 77.543982 97.018247 
L 78.462992 92.253591 
L 83.495992 91.278886 
L 85.380087 97.171888 
L 77.736847 94.911924 
L 78.194395 95.95486 
L 75.660839 98.478343 
L 71.037164 97.90976 
L 70.923564 91.666349 
L 70.760156 89.968465 
L 73.446325 88.817386 
L 72.120943 79.821611 
L 75.947463 77.54716 
L 77.167479 84.49764 
L 74.764324 80.483763 
L 74.070535 91.635036 
L 77.032963 99.082465 
L 78.721793 95.04264 
L 72.433525 88.797545 
L 69.231038 83.87812 
L 74.245751 86.811438 
L 78.23408 83.721829 
L 75.715058 81.11579 
L 76.825246 77.732126 
L 75.150041 84.172179 
L 76.12819 85.805192 
L 78.016718 86.73513 
L 76.293563 80.724624 
L 73.475892 82.955217 
L 75.778831 83.828962 
L 80.072164 86.719473 
L 79.05598 92.044192 
L 79.287729 93.79457 
L 81.070914 95.544728 
L 82.372808 95.080753 
L 82.089215 99.197069 
L 85.594201 101.888047 
L 88.835311 89.801418 
L 91.15646 88.633745 
L 88.81134 91.148361 
L 89.151503 93.382652 
L 94.545902 89.116984 
L 94.307666 85.250465 
L 95.710064 90.293053 
L 95.841539 88.070145 
L 98.68539 86.610161 
L 101.558543 79.712556 
L 107.542218 79.677253 
L 104.995367 77.003479 
L 109.898574 67.501994 
L 114.252819 55.277655 
L 111.108794 50.427061 
L 109.244602 55.287082 
L 108.448086 46.612694 
L 113.874777 48.390108 
L 118.842759 45.63392 
L 121.160449 55.855603 
L 121.892343 57.909674 
L 123.018546 62.561626 
L 123.730188 60.144382 
L 125.994199 56.562664 
L 127.222169 55.955669 
L 124.769255 55.404593 
L 126.851803 55.456036 
L 128.108871 59.282657 
L 129.136947 56.859762 
L 130.364048 56.979629 
L 131.916112 58.567394 
L 131.037833 62.268742 
L 133.358311 64.122476 
L 132.648072 60.792812 
L 131.864489 55.867217 
L 137.234714 61.350433 
L 128.384436 55.169236 
L 124.98453 50.25657 
L 123.797782 52.120256 
L 122.091196 53.19899 
L 120.00609 53.756362 
L 121.963442 54.476862 
L 132.937665 61.310065 
L 133.485483 60.202004 
L 132.236674 60.071619 
L 132.332326 61.567348 
L 132.934669 59.518873 
L 133.550089 59.853788 
L 132.787931 60.49753 
L 133.169456 62.311907 
L 133.615312 62.379379 
L 132.81993 62.039038 
L 133.112025 62.409153 
L 134.248096 60.015945 
L 133.88212 61.223026 
L 133.618926 58.553528 
L 133.837106 57.934402 
L 133.333827 56.662297 
L 131.642654 56.265707 
L 132.158195 55.958543 
L 131.603625 54.50322 
L 131.596346 54.521344 
L 130.714273 56.099915 
L 131.660486 55.530554 
L 131.017672 54.568553 
L 131.309315 53.719606 
L 132.022067 55.348243 
L 132.598531 54.626989 
L 134.21512 52.908402 
L 134.463735 54.665838 
L 133.277596 55.233383 
L 133.827684 54.750568 
L 133.417705 52.72949 
L 133.243594 50.590994 
L 132.720268 51.081915 
L 132.54542 48.602439 
L 132.826322 50.173615 
L 131.210835 49.765785 
L 131.061374 47.682783 
L 130.808001 46.259108 
L 130.603263 45.932298 
L 129.429189 46.733969 
L 129.499295 47.749961 
L 128.250324 45.814222 
L 126.254637 46.299958 
L 126.673881 45.482047 
L 126.69686 45.66552 
L 127.531275 47.325143 
L 127.003654 46.651852 
L 127.436138 46.18754 
L 127.142256 46.796785 
L 127.486711 45.029647 
L 127.858352 46.364094 
L 127.724474 47.74611 
L 127.093549 50.339355 
L 126.907266 52.803849 
L 126.907266 52.803849 
" clip-path="url(#pb5e410ee65)" style="fill: none; stroke: #2790db; stroke-width: 1.5; stroke-linecap: square"/>
   </g>
  </g>
  <g id="axes_2">
   <g id="line2d_2">
    <path d="M 270.084331 112.015555 
L 258.26242 116.182588 
L 258.26242 116.182588 
L 254.232692 114.095035 
L 249.608223 113.083159 
L 249.608223 113.083159 
L 233.846831 112.492277 
L 233.846831 112.492277 
L 225.704915 111.119142 
L 225.704915 111.119142 
L 238.456451 105.181839 
L 239.770239 103.70325 
L 229.746856 103.790538 
L 208.748245 96.066638 
L 208.748245 96.066638 
L 204.649965 95.57501 
L 204.649965 95.57501 
L 210.231438 95.502721 
L 199.67906 91.695944 
L 199.67906 91.695944 
L 199.572982 85.219737 
L 208.583862 81.467681 
L 208.583862 81.467681 
L 214.391289 82.590236 
L 214.208418 80.007724 
L 214.208418 80.007724 
L 208.504444 83.542849 
L 207.447923 84.657124 
L 208.376294 85.548399 
L 208.376294 85.548399 
L 198.659619 84.957479 
L 188.416684 88.799966 
L 206.81757 91.714666 
L 206.81757 91.714666 
L 216.508035 86.075472 
L 216.508035 86.075472 
L 225.888676 84.83621 
L 225.888676 84.83621 
L 234.474767 84.243894 
L 240.924916 84.340915 
L 240.924916 84.340915 
L 250.6543 85.437713 
L 250.6543 85.437713 
L 237.573816 82.854409 
L 237.573816 82.854409 
L 233.556306 76.025352 
L 233.556306 76.025352 
L 242.797314 73.171059 
L 242.797314 73.171059 
L 252.808489 68.878134 
L 252.808489 68.878134 
L 266.444766 67.04581 
L 269.888711 67.392605 
L 269.888711 67.392605 
L 276.222669 71.342148 
L 276.222669 71.342148 
L 283.903316 76.875508 
L 283.903316 76.875508 
L 268.173667 71.064781 
L 255.376522 69.289833 
L 255.376522 69.289833 
L 241.906533 68.109957 
L 241.906533 68.109957 
L 240.891949 69.583263 
L 225.195124 71.515754 
L 215.806554 69.172933 
L 215.806554 69.172933 
L 232.511918 71.026084 
L 232.511918 71.026084 
L 229.722191 68.452285 
L 229.722191 68.452285 
L 239.022547 72.698453 
L 243.010793 71.725852 
L 243.010793 71.725852 
L 231.097198 75.649945 
L 227.841547 72.019308 
L 229.79037 71.98527 
L 229.79037 71.98527 
L 231.851232 68.180129 
L 244.331452 66.930646 
L 254.66961 68.517833 
L 254.66961 68.517833 
L 246.857239 64.375194 
L 250.906731 59.415721 
L 250.906731 59.415721 
L 247.124369 61.744721 
L 247.124369 61.744721 
L 229.798474 62.42905 
L 229.798474 62.42905 
L 246.031053 58.799177 
L 246.031053 58.799177 
L 253.757274 58.751491 
L 259.329117 58.119598 
L 259.329117 58.119598 
L 265.611376 52.569274 
L 265.611376 52.569274 
L 262.69091 53.546378 
L 262.69091 53.546378 
L 265.250982 45.029647 
L 265.250982 45.029647 
L 260.118193 47.586084 
L 260.118193 47.586084 
L 257.467704 55.047885 
L 257.467704 55.047885 
L 243.412091 63.849608 
L 245.442605 61.825029 
L 245.442605 61.825029 
L 253.644213 57.252881 
L 253.644213 57.252881 
L 242.453015 62.148869 
L 242.453015 62.148869 
L 254.938965 69.382283 
L 254.938965 69.382283 
L 254.538095 71.096911 
L 254.538095 71.096911 
L 241.572127 76.464069 
L 241.572127 76.464069 
L 245.889461 75.291991 
L 245.889461 75.291991 
L 248.266643 73.850211 
L 248.266643 73.850211 
L 253.503751 78.86309 
L 263.558683 74.318966 
L 263.558683 74.318966 
L 269.493639 78.820562 
L 266.185087 74.072026 
L 263.589917 72.97637 
L 264.107954 72.527247 
L 264.107954 72.527247 
L 261.869244 73.887451 
L 264.092295 72.937058 
L 264.092295 72.937058 
L 263.177222 75.180605 
L 256.785616 72.127355 
L 271.754394 78.121241 
L 279.021052 75.521492 
L 279.021052 75.521492 
L 276.688947 80.368882 
L 276.688947 80.368882 
L 268.016524 73.731668 
L 270.449858 74.766008 
L 270.449858 74.766008 
L 265.015399 75.850671 
L 265.015399 75.850671 
L 272.219274 82.823414 
L 269.476417 82.691302 
L 269.476417 82.691302 
L 265.216719 77.219386 
L 265.216719 77.219386 
" clip-path="url(#p4e1676ea1b)" style="fill: none; stroke: #547cb3; stroke-width: 1.5; stroke-linecap: square"/>
   </g>
  </g>
  <g id="axes_3">
   <g id="line2d_3">
    <path d="M 361.122125 60.547899 
L 366.159177 53.438563 
L 369.86075 51.59866 
L 369.475342 52.843271 
L 370.863169 56.594162 
L 368.795534 54.272559 
L 370.94068 55.140806 
L 369.449874 51.802214 
L 367.371096 48.236406 
L 369.348101 49.971139 
L 369.486274 48.934447 
L 371.05861 48.276775 
L 364.970069 47.494321 
L 360.411764 47.571749 
L 360.112186 46.272979 
L 361.551164 48.677822 
L 360.065701 48.656421 
L 361.401914 46.902902 
L 359.60853 45.086223 
L 356.354673 49.025242 
L 363.053935 49.898957 
L 362.435761 47.105522 
L 362.864185 47.210169 
L 363.670451 52.457515 
L 363.139399 55.202437 
L 367.690344 57.936944 
L 365.748726 54.706679 
L 367.798563 53.863966 
L 366.141805 53.992479 
L 367.68845 50.905367 
L 369.873809 51.509487 
L 373.205441 49.089924 
L 370.09702 51.765286 
L 374.353341 55.619934 
L 370.883428 53.284893 
L 374.251135 52.83945 
L 368.14853 48.133472 
L 365.287746 47.965186 
L 364.941466 50.54144 
L 359.961253 51.711682 
L 356.785206 49.943521 
L 355.286474 54.45651 
L 355.386382 51.444876 
L 358.717745 51.515539 
L 361.081332 45.029647 
L 360.145302 47.856052 
L 366.389454 50.235215 
L 364.998479 51.377797 
L 359.877326 56.926832 
L 359.094496 59.676264 
L 354.218049 60.444516 
L 353.910763 58.548421 
L 349.494163 60.428238 
L 344.56645 58.404791 
L 346.772749 63.078941 
L 350.533309 56.923488 
L 342.173044 56.39589 
L 342.661493 58.167352 
L 343.280417 58.079306 
L 346.109766 63.666995 
L 346.785326 67.661133 
L 345.252957 69.464905 
L 340.643247 67.499219 
L 341.766323 66.360505 
L 341.561091 65.913256 
L 338.488289 64.058581 
L 338.577462 63.288841 
L 333.48864 63.476416 
L 333.610445 61.334032 
L 334.460387 59.455757 
L 339.40302 57.099951 
L 340.457836 60.749854 
L 345.418922 58.150873 
L 348.774987 57.749319 
L 344.690323 58.319439 
L 341.991086 59.439398 
L 338.567834 59.485417 
L 340.921813 56.231088 
L 341.512458 56.354123 
L 338.673933 60.20885 
L 336.931492 61.670919 
L 331.28913 61.599722 
L 328.590364 62.920921 
L 330.428313 68.833694 
L 329.239724 73.924042 
L 332.752519 77.544071 
L 330.919266 74.993559 
L 327.878204 75.568793 
L 333.592913 74.288716 
L 339.178386 72.842022 
L 337.168302 67.815102 
L 334.061804 68.014636 
L 333.29112 68.738808 
L 334.129292 74.802365 
L 335.161546 75.785384 
L 332.224286 70.316997 
L 332.226642 71.935873 
L 330.092328 72.699864 
L 325.710996 70.371684 
L 327.326519 68.927615 
L 322.948532 72.233597 
L 328.101222 71.603333 
L 329.160053 70.053866 
L 328.267573 71.135293 
L 326.498797 73.514925 
L 329.549933 77.235861 
L 331.23248 81.373559 
L 330.763611 78.799622 
L 330.891819 78.487936 
L 334.24304 77.871634 
L 334.913376 76.121224 
L 329.492391 72.495411 
L 330.406974 73.957635 
L 327.947564 72.162098 
L 326.025496 69.42313 
L 321.790001 70.998279 
L 321.754315 73.653338 
L 323.856465 72.397634 
L 328.018211 75.9004 
L 325.151242 75.932136 
L 327.996622 77.256387 
L 328.926203 78.838618 
L 331.652548 78.769361 
L 328.650043 79.234435 
L 331.657396 75.200134 
L 329.956555 79.524337 
L 331.526775 77.193609 
L 333.297033 73.687075 
L 333.665344 72.544343 
L 328.251945 70.171068 
L 331.472444 66.025961 
L 329.411633 66.275847 
L 328.402739 65.655835 
L 328.771909 65.659695 
L 331.314162 70.24211 
L 327.913725 72.048168 
L 326.989574 74.442044 
L 324.668548 73.287402 
L 327.162548 77.076574 
L 321.146914 77.738717 
L 321.636709 84.906902 
L 319.335736 90.583164 
L 322.865077 88.922241 
L 332.19947 86.804104 
L 330.874601 90.12824 
L 334.191563 84.043714 
L 335.162582 83.413061 
L 335.838033 80.511262 
L 335.712671 76.968236 
L 336.613031 80.965806 
L 328.86515 78.897324 
L 326.404882 78.540645 
L 330.97727 77.474716 
L 336.407264 79.097156 
L 334.732486 79.180519 
L 336.364061 80.538056 
L 334.721036 82.898293 
L 334.101714 85.416152 
L 337.354544 87.843073 
L 340.316711 87.389665 
L 340.26845 85.35007 
L 343.771281 83.968107 
L 349.041556 80.570472 
L 350.316219 86.223512 
L 348.705776 91.690661 
L 345.042143 87.006063 
L 348.572575 83.866026 
L 347.84165 80.330395 
L 342.763889 70.299222 
L 337.706302 66.839303 
L 334.075223 67.672311 
L 331.689755 71.471664 
L 325.956808 73.743119 
L 323.333552 70.90773 
L 324.007021 69.737061 
L 322.382899 67.021352 
L 324.683587 70.978643 
L 323.034057 69.952349 
L 321.287917 66.197905 
L 318.546188 66.836301 
L 316.305743 72.482329 
L 321.047705 76.428305 
L 317.353511 74.875629 
L 317.261281 77.051067 
L 315.701114 75.514404 
L 314.459037 78.194254 
L 318.049387 80.25015 
L 318.532073 82.769873 
L 322.899806 85.681556 
L 322.17528 83.741582 
L 322.751311 83.345361 
L 321.967103 85.638133 
L 324.185733 84.206283 
L 328.804507 87.772992 
L 333.770785 90.000016 
L 336.435178 90.326647 
L 334.95309 90.085278 
L 337.701172 92.708027 
L 336.608469 90.696596 
L 336.851296 91.434665 
L 334.788866 93.553985 
L 334.212616 92.350442 
L 338.79544 94.876211 
L 339.503058 99.833563 
L 334.78316 98.166166 
L 334.791687 95.399863 
L 336.989242 98.969604 
L 336.482698 98.179094 
L 337.12826 95.142958 
L 331.621512 93.065035 
L 328.654541 94.941101 
L 329.258256 99.332793 
L 326.450454 95.844437 
L 329.03442 96.380787 
L 327.475734 98.976879 
L 326.267113 95.425407 
L 326.023754 93.05454 
L 325.413647 93.538475 
L 324.488398 90.166585 
L 328.448107 88.305288 
L 328.448058 91.068353 
L 333.842318 88.168619 
L 334.10525 89.754817 
L 336.117171 90.42844 
L 331.496926 92.07295 
L 334.422442 91.255466 
L 329.488602 91.45458 
L 328.561214 96.193584 
L 327.15562 95.278102 
L 325.784165 96.912949 
L 328.748278 95.274171 
L 327.891095 97.002052 
L 326.698114 92.664613 
L 326.689085 88.289109 
L 329.374834 87.116206 
L 331.721082 84.534955 
L 332.91594 84.851783 
L 332.731749 86.019392 
L 336.194773 89.657715 
L 335.34556 93.142078 
L 334.745713 94.921724 
L 336.109102 96.859557 
L 340.856386 98.573667 
L 344.50695 99.194063 
L 344.478862 98.216805 
L 341.56167 95.592318 
L 347.888364 96.76168 
L 350.618699 97.019143 
L 351.048126 98.983363 
L 353.175857 102.535936 
L 358.024601 96.621515 
L 361.738042 97.282681 
L 362.520926 99.535955 
L 358.744201 100.043772 
L 361.496839 100.314053 
L 364.33589 98.330589 
L 363.171477 104.46221 
L 363.631565 106.067345 
L 363.151657 105.926339 
L 361.498162 110.020845 
L 363.388364 110.891854 
L 369.599084 110.963836 
L 369.551438 116.182588 
L 371.139576 109.186669 
L 369.294394 109.448377 
L 368.737169 107.603221 
L 366.871568 102.943502 
L 365.600676 100.791455 
L 364.031119 99.437095 
L 362.411812 100.187803 
L 363.481097 94.441779 
L 364.494098 95.023545 
L 356.690661 93.564359 
L 356.040397 96.309288 
L 355.822011 92.667233 
L 361.520615 86.043765 
L 364.632911 87.114912 
L 366.614143 91.225712 
L 367.491079 92.277702 
L 373.699897 92.024868 
L 373.162493 93.151346 
L 374.534517 92.112026 
L 370.100068 89.842078 
L 366.837832 85.984809 
L 372.913224 85.421697 
L 362.734464 86.851338 
L 362.421875 88.997676 
L 362.840446 86.436051 
L 355.729571 88.224538 
L 355.106796 86.236124 
L 352.81951 83.570601 
L 352.803147 79.313015 
L 353.7952 78.354608 
L 348.798973 77.503687 
L 344.209514 79.555624 
L 342.326147 78.464713 
L 342.494642 80.238619 
L 339.764851 76.571091 
L 340.232024 74.094945 
L 341.216805 71.512375 
L 336.371694 70.14157 
L 333.067957 65.748873 
L 335.064912 69.719512 
L 334.335412 72.067583 
L 334.145901 75.637654 
L 338.775864 75.850295 
L 342.165526 77.986774 
L 340.890186 78.062143 
L 346.430581 82.171169 
L 350.63156 82.036421 
L 355.991389 79.29164 
L 359.538573 87.047763 
L 359.396197 88.570759 
L 359.573289 90.924313 
L 358.04216 87.922729 
L 361.431709 86.376754 
L 358.321315 87.512047 
L 361.073558 83.722511 
L 362.679388 84.438654 
L 356.415327 86.418701 
L 355.889894 86.885803 
L 359.145604 89.683256 
L 360.812065 93.923932 
L 356.273742 90.335596 
L 354.946958 90.515641 
L 353.267478 88.890144 
L 357.631519 88.232713 
L 351.84148 88.786597 
L 352.792839 87.662483 
L 353.769499 89.114926 
L 356.369545 88.682056 
L 361.257061 88.679095 
L 361.703784 88.891646 
L 368.363596 89.999352 
L 367.155249 91.213492 
L 372.473425 93.206802 
L 370.007195 95.139746 
L 369.936182 96.657263 
L 376.619774 99.438489 
L 372.307284 95.617868 
L 372.266469 94.631535 
L 374.797284 95.755823 
L 376.619955 97.599279 
L 375.386534 97.670404 
L 374.180106 97.889665 
L 372.296269 93.263026 
L 369.157905 91.547813 
L 368.692166 90.363375 
L 366.464076 90.639734 
L 366.802145 89.057956 
L 368.558915 88.436728 
L 371.066919 88.592288 
L 375.546022 91.78878 
L 369.107904 90.678322 
L 364.246301 89.098973 
L 362.906823 91.084864 
L 363.639096 91.663416 
L 368.378933 91.446134 
L 366.296101 92.700909 
L 371.197469 93.536103 
L 373.838189 92.969186 
L 371.286015 93.603338 
L 366.488915 92.016134 
L 370.927065 91.782812 
L 368.743641 92.984989 
L 370.312251 95.129037 
L 364.675926 94.206584 
L 363.785873 94.662993 
L 361.897215 93.173997 
L 362.808094 94.840657 
L 366.413754 96.704791 
L 365.489814 95.798199 
L 366.869684 96.363348 
L 372.413338 101.119737 
L 375.338417 98.113467 
L 375.635419 97.645304 
L 381.222607 96.475798 
L 382.470342 93.507866 
L 385.41522 93.529282 
L 391.229155 94.632955 
L 388.61578 90.495936 
L 389.289352 88.076667 
L 399.999349 89.505798 
L 397.863731 90.838959 
L 394.976169 94.122513 
L 396.815578 93.63494 
L 398.453525 93.954359 
L 397.514397 94.281602 
L 403.222818 96.188524 
L 404.244385 96.77016 
L 404.134366 95.541833 
L 404.240373 97.900708 
L 403.724541 98.649777 
L 406.942243 96.660313 
L 401.489014 95.360416 
L 400.005404 95.777386 
L 399.696331 94.571084 
L 405.593588 92.33357 
L 408.76598 89.000388 
L 409.542369 87.451167 
L 409.945668 88.438086 
L 409.829894 90.432086 
L 408.314993 90.176287 
L 408.144929 88.025356 
L 403.396986 87.80648 
L 403.864947 93.221681 
L 402.622551 89.90248 
L 403.190176 89.813648 
L 399.94107 89.24415 
L 400.528478 84.687978 
L 401.777767 88.951445 
L 405.270616 87.108878 
L 408.672501 86.889995 
L 408.197625 87.440409 
L 408.162951 87.98303 
L 402.969304 88.090131 
L 401.758651 95.756636 
L 398.894004 98.611087 
L 394.082628 98.461829 
L 395.061896 98.54302 
L 399.416319 100.595206 
L 398.653807 100.309049 
L 395.771494 101.092648 
L 398.82558 96.698117 
L 402.281935 100.563109 
L 403.602993 99.270998 
L 406.265982 98.926635 
L 406.559151 101.258408 
L 405.540721 100.646603 
L 407.636752 101.492407 
L 406.503452 98.311847 
L 405.23958 97.811078 
L 399.09756 97.724602 
L 403.394198 98.828913 
L 404.469595 92.871909 
L 399.593716 91.86363 
L 401.231046 93.407925 
L 398.556336 93.914287 
L 396.108458 97.324467 
L 394.957732 98.288589 
L 388.310749 97.504579 
L 393.179632 95.92151 
L 394.382069 101.11069 
L 391.113115 103.877962 
L 391.377024 103.40732 
L 394.432669 102.454285 
L 395.97053 101.843282 
L 398.960849 103.046281 
L 401.646212 100.07979 
L 398.596093 100.491243 
L 397.150688 98.777609 
L 400.283398 95.509552 
L 391.025183 89.843326 
L 391.128515 86.528104 
L 393.033681 87.970304 
L 394.883463 91.295591 
L 397.032537 91.23496 
L 396.185515 88.267218 
L 394.840093 87.934998 
L 393.138064 85.398269 
L 393.913216 84.019816 
L 393.099228 86.249193 
L 390.773983 88.966118 
L 391.628029 92.198238 
L 393.039937 93.661566 
L 392.54342 92.414514 
L 398.53591 83.873814 
L 398.642824 84.629503 
L 395.209104 85.972092 
L 398.146738 85.156993 
L 400.310856 83.651494 
L 397.66065 82.863471 
L 400.548731 81.385283 
L 403.974359 83.307883 
L 403.428827 85.425257 
L 404.583084 85.067988 
L 403.971586 88.003556 
L 400.126879 85.48639 
L 395.484556 84.359519 
L 395.183093 85.216635 
L 391.038878 79.373849 
L 392.310363 77.735234 
L 394.251052 73.597842 
L 399.235716 78.225199 
L 403.59835 81.328378 
L 400.753658 86.784337 
L 399.586136 95.854753 
L 395.827048 99.094116 
L 399.052758 98.098869 
L 393.753905 100.506306 
L 398.901888 98.586664 
L 397.511136 99.168656 
L 398.332513 100.184524 
L 399.506717 95.419899 
L 399.67965 92.890038 
L 399.67965 92.890038 
" clip-path="url(#pa0c0146f2d)" style="fill: none; stroke: #81688c; stroke-width: 1.5; stroke-linecap: square"/>
   </g>
  </g>
  <g id="axes_4">
   <g id="line2d_4">
    <path d="M 147.147185 180.601049 
L 147.023054 178.31278 
L 146.655792 185.174254 
L 146.599966 187.470063 
L 146.888991 185.22404 
L 146.256266 183.185948 
L 145.78214 190.033098 
L 145.373958 192.226501 
L 146.72784 191.872302 
L 146.845126 194.161586 
L 144.865708 202.732182 
L 144.126879 204.667285 
L 142.767611 204.957738 
L 143.029336 202.702323 
L 145.729835 207.899422 
L 145.344611 210.104471 
L 145.640266 207.860876 
L 144.29389 207.433739 
L 143.003416 208.206346 
L 144.328132 207.618872 
L 145.280861 205.967436 
L 144.41042 204.19287 
L 143.043639 204.029228 
L 143.001004 201.732623 
L 142.00561 200.153531 
L 140.636365 200.065084 
L 140.868281 197.800516 
L 139.499001 197.713584 
L 142.194248 196.88172 
L 140.979519 195.818478 
L 148.039415 184.930464 
L 145.713987 182.498837 
L 145.092142 184.546323 
L 146.420494 185.11024 
L 146.179398 187.372111 
L 148.636921 189.405899 
L 148.344841 191.65081 
L 147.038048 192.342001 
L 148.384698 191.917301 
L 144.653507 194.810404 
L 145.913154 195.71482 
L 145.333923 197.797155 
L 144.863542 199.955248 
L 145.565377 201.928692 
L 144.198333 201.771335 
L 143.897157 199.529806 
L 144.495505 201.596885 
L 145.351058 203.391694 
L 144.320118 210.064552 
L 143.222207 198.724437 
L 144.187469 197.093594 
L 144.570834 194.887635 
L 143.809874 192.976799 
L 147.811858 191.401404 
L 150.861737 199.037976 
L 150.844227 196.740446 
L 149.671048 195.553236 
L 148.304487 195.384508 
L 147.357304 197.04489 
L 147.111854 194.784336 
L 146.648657 196.946794 
L 147.81908 195.751961 
L 142.896408 191.710403 
L 141.978563 190.004319 
L 142.463283 187.855166 
L 140.954194 184.019213 
L 142.308861 184.364879 
L 143.466174 183.134663 
L 143.909173 185.308988 
L 144.668441 187.221716 
L 145.833828 186.013119 
L 145.428706 188.208118 
L 144.058752 188.159522 
L 145.415879 187.842164 
L 147.609522 185.087647 
L 147.007022 187.151332 
L 148.1433 185.867163 
L 149.046968 184.13993 
L 152.384069 180.114701 
L 153.087393 182.086654 
L 152.64606 179.911376 
L 153.289519 181.939998 
L 154.609135 182.558905 
L 152.030456 181.003071 
L 151.935015 183.295208 
L 150.580028 183.637319 
L 151.947744 183.777274 
L 151.175734 181.878943 
L 149.924324 182.814962 
L 147.195509 182.390659 
L 146.509754 180.401383 
L 145.514012 178.822908 
L 145.959184 180.995985 
L 143.224058 181.284219 
L 142.00789 180.225612 
L 143.093827 181.626913 
L 141.836085 182.538753 
L 143.009232 183.726053 
L 142.669669 185.952103 
L 141.89748 187.85023 
L 141.572667 185.618 
L 140.41759 184.381888 
L 139.048454 184.474951 
L 139.946313 182.739222 
L 145.78411 176.725795 
L 145.961843 174.447488 
L 147.270103 173.764147 
L 146.662528 175.823645 
L 150.627109 177.645652 
L 151.015407 175.44212 
L 152.356919 175.910315 
L 153.412848 174.445949 
L 153.335931 172.151855 
L 154.635606 172.879807 
L 155.45668 174.719341 
L 156.226352 172.818341 
L 156.395556 170.538209 
L 157.498894 171.900752 
L 157.860963 176.455904 
L 155.485047 178.746186 
L 155.185109 176.50419 
L 153.817249 176.640136 
L 154.351774 178.75582 
L 153.43216 183.084803 
L 150.910217 181.286383 
L 149.01983 172.659456 
L 150.166598 173.917133 
L 149.040535 172.607906 
L 148.301579 170.67294 
L 148.639605 172.899646 
L 147.655095 171.301483 
L 149.632577 174.474055 
L 148.699909 172.790726 
L 146.834574 169.42407 
L 143.369876 173.133805 
L 142.25315 171.802282 
L 140.748851 167.961043 
L 136.629745 174.024368 
L 135.338357 174.792671 
L 129.983203 176.751177 
L 128.827515 177.98568 
L 127.777694 176.509015 
L 127.345816 174.328408 
L 128.716069 174.336341 
L 127.412815 173.626607 
L 124.835278 178.996401 
L 80.604804 154.455505 
L 80.016499 156.530674 
L 77.691118 158.962426 
L 79.041706 158.574476 
L 80.01464 160.19245 
L 67.881185 170.8692 
L 70.534104 169.716584 
L 68.360938 172.51637 
L 65.662219 171.716794 
L 66.188316 169.595178 
L 64.821014 169.444263 
L 63.724828 168.065581 
L 62.374332 167.676737 
L 65.640842 171.861618 
L 66.999052 172.16567 
L 65.662596 172.672894 
L 99.935941 138.951529 
L 100.773008 143.327353 
L 100.624523 141.043166 
L 100.355889 143.296295 
L 101.044077 145.283207 
L 102.203693 144.059102 
L 102.78709 146.138164 
L 104.153398 145.963779 
L 104.858381 147.934066 
L 107.553685 147.102728 
L 107.58112 149.399985 
L 107.089003 153.920721 
L 108.456844 153.784221 
L 108.548677 156.076772 
L 107.348206 151.945691 
L 105.836575 163.15116 
L 104.625096 162.077543 
L 104.10434 164.202861 
L 105.022787 165.908033 
L 103.40777 179.425731 
L 102.657969 177.502531 
L 103.833334 178.683644 
L 104.147017 180.920345 
L 106.607291 178.895929 
L 101.887154 187.223068 
L 100.616148 188.081636 
L 99.298407 187.451592 
L 100.668602 187.429053 
L 99.299659 187.529818 
L 91.086005 188.134405 
L 92.140299 186.666731 
L 90.471854 190.312378 
L 89.113057 190.015778 
L 88.607599 187.8801 
L 87.256806 188.266039 
L 88.611968 188.6062 
L 87.242935 188.50896 
L 88.246668 190.07314 
L 87.262188 188.474925 
L 87.282198 190.772397 
L 86.298275 192.371577 
L 84.932615 192.18344 
L 85.561505 194.224867 
L 86.99869 190.312041 
L 84.869838 187.418108 
L 86.050174 188.5852 
L 87.029125 190.192937 
L 87.900166 191.966674 
L 86.544418 192.300195 
L 84.010238 194.049583 
L 84.868967 192.259044 
L 83.506439 192.015289 
L 84.268583 193.924797 
L 85.547514 194.749612 
L 85.988947 192.574391 
L 85.258303 194.518213 
L 84.783407 192.362902 
L 86.142297 192.658288 
L 84.365462 196.156961 
L 83.001785 196.381942 
L 82.140838 198.169483 
L 85.173892 178.125213 
L 85.951419 176.233222 
L 84.630819 176.846205 
L 85.035356 179.041507 
L 85.457059 176.855307 
L 84.629378 175.024117 
L 83.272357 175.342753 
L 82.206934 176.787653 
L 83.302111 178.168585 
L 83.456479 173.580447 
L 82.024046 177.49817 
L 83.386648 177.740762 
L 82.443575 179.40771 
L 83.559694 178.074754 
L 82.20307 177.751392 
L 82.200719 180.049106 
L 81.224222 181.661033 
L 86.303264 189.371555 
L 85.516208 187.490677 
L 86.884794 187.604235 
L 85.594831 186.829232 
L 84.728406 185.049149 
L 86.025617 185.789355 
L 85.066314 184.148655 
L 83.768023 183.41379 
L 84.226543 185.579049 
L 82.880928 186.012878 
L 82.936141 188.308729 
L 86.436833 191.922202 
L 87.433005 193.499914 
L 87.810143 191.290938 
L 85.434413 189.000115 
L 86.702676 189.870013 
L 93.110819 181.23306 
L 92.444851 183.241151 
L 91.513627 184.926725 
L 91.120796 173.457039 
L 90.428306 171.474333 
L 91.540653 170.132542 
L 92.904823 170.348928 
L 91.556754 170.760779 
L 91.709539 173.044169 
L 92.144627 170.865357 
L 91.101958 169.374513 
L 96.679409 179.5033 
L 95.908889 177.603267 
L 95.75336 175.320398 
L 90.276153 174.976584 
L 89.36378 176.6909 
L 89.421332 183.583376 
L 90.788887 183.727717 
L 89.638463 182.479464 
L 89.356888 184.728146 
L 90.317843 183.090168 
L 89.951104 180.876275 
L 88.602294 180.471301 
L 87.317637 179.671902 
L 91.649469 185.302978 
L 91.024156 187.347492 
L 95.112862 186.634055 
L 96.390718 185.80457 
L 100.506496 179.734895 
L 100.506496 179.734895 
" clip-path="url(#pe8c6779f4f)" style="fill: none; stroke: #af5464; stroke-width: 1.5; stroke-linecap: square"/>
   </g>
  </g>
  <g id="axes_5">
   <g id="line2d_5">
    <path d="M 265.43583 164.185443 
L 260.419142 162.228383 
L 263.028668 161.265233 
L 265.4377 161.572861 
L 264.244569 163.083087 
L 265.742189 166.440617 
L 265.711413 168.3902 
L 267.684869 166.070194 
L 267.206696 167.717356 
L 265.642156 164.691134 
L 266.652286 164.055133 
L 266.588377 165.107581 
L 265.405934 167.230358 
L 268.639278 173.69525 
L 266.595548 176.904619 
L 268.345525 177.301089 
L 270.314562 181.43013 
L 269.338507 183.486761 
L 271.363878 186.697459 
L 273.221756 181.834481 
L 275.075644 179.159579 
L 274.738855 178.833083 
L 276.221092 176.533644 
L 278.385307 173.639193 
L 276.980048 173.844165 
L 277.307186 173.569886 
L 280.401358 177.674078 
L 279.542176 176.579911 
L 279.46214 176.006479 
L 281.182887 174.465359 
L 283.903316 173.240568 
L 283.785568 169.396879 
L 281.060199 166.090461 
L 279.561847 162.058257 
L 281.428247 160.208626 
L 282.256929 161.22259 
L 283.23768 155.657839 
L 281.5022 154.795661 
L 281.746657 158.668654 
L 280.071363 153.751455 
L 279.852546 152.576601 
L 278.856402 158.50523 
L 279.549492 162.153104 
L 278.393188 158.659631 
L 279.909095 159.142709 
L 278.117209 158.570463 
L 275.601371 161.34958 
L 273.775115 160.419621 
L 269.120907 165.290505 
L 268.306333 163.948568 
L 267.8109 167.756884 
L 267.977296 166.308044 
L 268.538401 168.304972 
L 270.918345 165.408171 
L 266.985357 167.214493 
L 267.873011 170.213315 
L 267.191453 169.947273 
L 268.077149 172.670301 
L 267.923735 169.125572 
L 271.467597 168.515005 
L 269.617317 163.364167 
L 269.931909 165.814 
L 268.104142 163.400215 
L 266.697405 158.17079 
L 265.843284 157.542822 
L 266.685487 158.002236 
L 264.521491 152.711325 
L 264.448998 157.300845 
L 264.301715 159.153977 
L 262.797237 161.278723 
L 263.048714 160.08994 
L 264.534108 158.490808 
L 263.243734 156.24266 
L 265.345945 158.748424 
L 266.732759 158.490586 
L 268.941446 158.886329 
L 270.878325 155.731402 
L 268.389532 153.506032 
L 268.758043 149.161369 
L 265.308618 153.5525 
L 265.428813 155.238042 
L 264.067482 152.469767 
L 263.040656 155.291002 
L 263.91 155.692231 
L 261.744086 154.78469 
L 259.928866 149.18872 
L 259.53474 150.145165 
L 257.028094 148.833466 
L 258.443211 149.949239 
L 255.022763 150.67117 
L 255.540506 153.671848 
L 256.283712 155.12078 
L 255.190822 154.427782 
L 252.89454 154.566246 
L 253.188506 151.254478 
L 252.471605 149.556705 
L 250.787497 145.053774 
L 251.970396 142.843259 
L 253.060855 141.50537 
L 252.342071 144.054254 
L 250.726988 148.883291 
L 249.809078 147.443629 
L 252.695197 149.704898 
L 252.68145 146.809559 
L 253.786806 144.094717 
L 253.433482 139.063296 
L 253.257417 138.951529 
L 252.978144 139.549368 
L 252.632786 144.590265 
L 250.532507 144.103562 
L 249.40468 145.347112 
L 246.703781 143.369983 
L 250.404875 141.10515 
L 247.675005 140.600197 
L 248.073497 142.854028 
L 247.334832 147.768712 
L 245.01093 152.282827 
L 246.971882 150.817913 
L 245.605331 151.206221 
L 246.257656 154.011141 
L 245.939556 154.807143 
L 244.784631 155.280239 
L 244.351873 157.233469 
L 244.270118 155.175209 
L 242.648156 152.404928 
L 242.757211 146.376671 
L 243.755908 145.560719 
L 245.485846 147.52229 
L 243.905294 149.94628 
L 245.193344 148.755732 
L 245.941457 146.553332 
L 245.909732 147.696824 
L 245.537141 151.784836 
L 244.064394 150.68122 
L 240.69434 150.615808 
L 241.847682 149.56964 
L 241.542072 152.991192 
L 242.57225 148.284604 
L 241.101962 151.537879 
L 243.384769 151.943877 
L 244.158725 151.871239 
L 243.990297 146.643796 
L 246.173699 145.301682 
L 245.647999 147.808254 
L 248.792462 148.389835 
L 248.75479 147.382231 
L 249.054057 146.823135 
L 247.204876 145.90684 
L 247.904973 146.306166 
L 248.876024 143.006942 
L 246.749285 142.60491 
L 249.077215 141.478977 
L 250.46617 142.822888 
L 251.89093 147.86384 
L 253.279923 148.365394 
L 256.844798 148.136105 
L 255.562943 147.842663 
L 254.757801 149.956536 
L 252.229372 149.049974 
L 253.277119 153.557538 
L 252.62364 153.777403 
L 253.369671 156.374378 
L 256.761374 158.253881 
L 257.685176 167.308591 
L 260.110016 162.432051 
L 259.232517 165.213689 
L 261.352322 162.962338 
L 260.174196 161.784675 
L 261.072075 159.592141 
L 263.846591 160.09981 
L 262.775871 156.02241 
L 264.269392 156.105189 
L 264.435143 156.443433 
L 262.011952 157.205942 
L 259.396781 157.088528 
L 258.544644 156.777593 
L 260.421121 157.350899 
L 258.989105 158.362172 
L 254.507648 159.059535 
L 251.832905 157.478459 
L 251.541108 153.362735 
L 252.05725 155.399829 
L 250.246288 153.634107 
L 249.062162 154.248336 
L 248.380425 156.068792 
L 245.465584 154.838647 
L 247.263375 158.347353 
L 244.857315 157.776865 
L 246.457687 155.699841 
L 245.495873 158.912888 
L 244.454553 159.7946 
L 245.659576 163.441059 
L 248.177368 159.175844 
L 246.833812 160.018075 
L 248.490264 156.268295 
L 247.523456 158.759947 
L 245.506456 160.627008 
L 246.545545 161.318359 
L 248.030668 159.437999 
L 246.986077 158.138766 
L 244.628777 161.393095 
L 245.172822 162.897304 
L 246.372774 158.568259 
L 249.081851 159.04042 
L 249.841962 159.793032 
L 247.125714 159.074591 
L 245.617921 157.408817 
L 242.42417 157.174859 
L 238.98606 154.43228 
L 237.960148 153.965702 
L 236.921271 156.768519 
L 235.686962 156.502933 
L 236.239199 154.232711 
L 236.815781 156.740473 
L 237.613618 156.928649 
L 240.200831 155.671171 
L 239.500407 154.948383 
L 239.805253 156.335685 
L 236.847799 157.328465 
L 235.25899 157.731088 
L 234.014544 156.229519 
L 236.181772 156.002941 
L 235.383585 158.018571 
L 233.68272 158.891839 
L 233.745022 160.019459 
L 232.168442 163.273071 
L 234.146409 166.830837 
L 234.609553 165.409246 
L 234.71116 164.698684 
L 234.571861 164.926562 
L 233.288036 166.460518 
L 232.093213 165.770041 
L 230.0522 164.85038 
L 227.142024 165.690792 
L 225.775424 165.401958 
L 229.207672 161.940913 
L 227.609439 160.793734 
L 227.08565 160.734852 
L 227.338756 163.811264 
L 227.149896 162.782171 
L 226.795899 160.651274 
L 225.010578 162.454112 
L 223.216574 160.874774 
L 225.0599 157.780751 
L 227.407686 157.643595 
L 228.793503 158.737473 
L 227.458121 155.482862 
L 230.449314 157.899716 
L 231.661358 156.973095 
L 232.539627 155.365864 
L 231.746894 153.700851 
L 232.096237 151.847494 
L 230.925239 155.466197 
L 231.160666 151.594823 
L 231.275934 154.368186 
L 232.841192 158.208809 
L 233.878047 158.141401 
L 233.454183 158.700558 
L 233.195346 159.810166 
L 232.668713 160.127582 
L 230.906903 162.37424 
L 230.171182 162.076952 
L 227.424281 168.310731 
L 227.46481 169.985022 
L 226.531076 169.927788 
L 225.820223 170.663974 
L 224.619264 170.476609 
L 222.951043 173.348692 
L 220.261647 170.768384 
L 220.114387 178.721318 
L 219.148116 175.799079 
L 217.134865 176.469092 
L 216.549274 181.334869 
L 217.687315 186.360847 
L 214.124626 185.527087 
L 213.731933 187.023426 
L 215.326129 187.172015 
L 212.615605 187.983984 
L 218.168232 188.870708 
L 218.303628 188.118334 
L 217.547766 187.583398 
L 215.050216 185.466216 
L 216.872855 183.475018 
L 216.396902 183.763058 
L 216.320327 185.333337 
L 218.824458 186.659968 
L 216.81318 191.722819 
L 214.453316 192.897145 
L 214.084086 190.553905 
L 215.161241 191.975002 
L 214.865504 193.239697 
L 215.218216 192.371951 
L 216.066894 194.847077 
L 215.437305 193.396882 
L 215.315217 193.865617 
L 214.84109 194.557869 
L 217.33484 200.712051 
L 216.81623 203.773405 
L 218.174188 204.60368 
L 219.645168 200.860016 
L 218.010212 200.719038 
L 219.37215 201.456586 
L 217.989688 201.763137 
L 217.399909 203.704245 
L 218.725758 202.055149 
L 218.234323 201.823023 
L 217.915776 204.067672 
L 216.759466 207.007448 
L 218.348749 203.023072 
L 217.756542 203.83075 
L 219.987801 202.124446 
L 220.012961 204.484098 
L 220.8952 205.093571 
L 222.185033 200.494759 
L 220.721584 202.761513 
L 220.788199 203.384397 
L 219.803345 203.242842 
L 221.391828 206.390706 
L 219.113691 209.066417 
L 217.945152 208.879626 
L 219.227099 210.104471 
L 216.824412 208.844455 
L 217.322728 203.993398 
L 218.385941 206.504254 
L 219.469841 204.716114 
L 219.585877 205.569988 
L 218.249868 206.975577 
L 219.743591 203.373187 
L 218.623756 206.542185 
L 217.733572 205.176224 
L 216.375075 205.443758 
L 215.40313 206.230214 
L 212.979853 204.175401 
L 210.43852 204.038738 
L 211.135416 206.811019 
L 210.865469 206.509076 
L 213.414223 206.888865 
L 212.636535 205.227614 
L 213.206443 201.402668 
L 212.912311 204.914638 
L 214.226298 206.224797 
L 213.945207 205.157288 
L 213.278417 200.225062 
L 211.133857 199.704354 
L 209.667378 200.394963 
L 210.138171 198.946497 
L 205.731834 197.995294 
L 207.315918 194.88713 
L 206.778265 197.54261 
L 208.868654 194.598614 
L 209.485466 194.487532 
L 211.328011 194.588563 
L 211.917599 196.386854 
L 211.638668 195.408767 
L 208.549118 194.990465 
L 207.944633 201.540602 
L 207.380096 201.695627 
L 207.2638 202.657961 
L 206.219155 200.770487 
L 207.709767 196.69036 
L 207.162104 191.190132 
L 204.429183 190.130789 
L 203.709436 195.767188 
L 202.427365 189.828753 
L 202.649836 187.489808 
L 201.29887 183.489824 
L 203.855079 182.131491 
L 202.991931 189.063181 
L 205.313797 183.683105 
L 200.670178 180.928038 
L 201.101671 177.182751 
L 199.289048 179.552379 
L 201.83203 182.431072 
L 198.828453 180.658062 
L 197.926731 182.695106 
L 194.306431 182.429042 
L 194.122146 184.111937 
L 194.526363 181.347252 
L 193.649506 180.925838 
L 191.605318 183.456511 
L 193.970179 183.451327 
L 193.309838 182.924655 
L 195.180088 182.719652 
L 195.368329 185.563593 
L 192.626263 183.008635 
L 189.061813 180.366419 
L 190.860636 176.622277 
L 194.894588 177.024475 
L 197.619529 182.019826 
L 200.286898 184.284493 
L 200.242039 187.321924 
L 197.291785 185.433153 
L 195.472053 184.073052 
L 198.581377 183.496541 
L 198.81323 182.488401 
L 198.442222 180.564185 
L 196.388132 179.912369 
L 199.41909 177.344334 
L 200.677996 175.396796 
L 201.256671 176.246828 
L 200.306442 176.788502 
L 200.797962 179.636395 
L 202.35346 181.024005 
L 201.321791 178.925544 
L 201.820153 178.932321 
L 200.635053 179.258012 
L 202.24162 179.942071 
L 203.156015 180.116333 
L 203.273787 177.119326 
L 203.513219 179.230645 
L 204.275854 178.875763 
L 205.435293 174.836671 
L 203.645534 174.579693 
L 205.558114 172.112139 
L 206.23891 172.398395 
L 205.489774 168.556012 
L 208.283651 168.069624 
L 209.098444 168.866526 
L 209.418011 168.286519 
L 211.802275 172.086787 
L 208.014948 175.211022 
L 207.491989 180.248467 
L 207.582334 178.791344 
L 205.451199 175.866624 
L 206.671554 173.216617 
L 203.673397 173.193794 
L 200.736136 172.741013 
L 201.601175 174.314909 
L 201.401142 175.508754 
L 203.12106 177.331759 
L 203.46755 179.139537 
L 201.511191 179.761595 
L 200.709457 178.991642 
L 201.903843 180.370198 
L 204.357985 180.192161 
L 203.844712 180.88595 
L 197.389951 179.217534 
L 198.441652 179.365937 
L 195.097177 181.023208 
L 196.670098 183.36199 
L 199.151611 182.020198 
L 201.483574 182.967872 
L 199.846626 179.422427 
L 200.979767 180.347149 
L 199.325438 182.73146 
L 198.03405 185.974452 
L 198.282989 184.993638 
L 198.547468 188.273812 
L 197.558068 189.554805 
L 198.5875 192.860692 
L 199.108288 192.183512 
L 200.305089 190.257541 
L 201.203457 191.956853 
L 199.772006 191.80794 
L 201.683877 196.299555 
L 198.805741 198.216771 
L 198.448131 195.510052 
L 196.438902 198.572383 
L 199.84107 196.48733 
L 199.404668 193.69804 
L 201.74192 193.897405 
L 200.398408 197.931451 
L 198.213677 199.677007 
L 197.833358 204.296746 
L 196.634824 204.105229 
L 194.70517 203.417095 
L 193.899439 203.383839 
L 192.548276 202.756005 
L 192.695121 202.315447 
L 191.545097 199.495672 
L 192.067028 196.509599 
L 191.617001 199.476973 
L 188.86287 199.009016 
L 190.45477 201.344379 
L 189.832358 201.114456 
L 190.142069 198.000681 
L 188.416684 201.178782 
L 189.010283 198.79213 
L 189.515417 198.795406 
L 191.636697 200.335055 
L 191.091566 194.789889 
L 190.578749 196.904739 
L 190.307878 196.755986 
L 191.975711 198.303202 
L 192.76483 199.861862 
L 191.932173 198.577252 
L 191.968733 197.101408 
L 193.220435 198.873418 
L 192.132539 201.744808 
L 193.159293 203.316536 
L 189.617422 207.516477 
L 189.617422 207.516477 
" clip-path="url(#p34627cda99)" style="fill: none; stroke: #db403d; stroke-width: 1.5; stroke-linecap: square"/>
   </g>
  </g>
  <g id="axes_6">
   <g id="patch_2">
    <path d="M 309.684706 213.662118 
L 414.72 213.662118 
L 414.72 135.393882 
L 309.684706 135.393882 
z
" style="fill: #ffffff"/>
   </g>
   <g id="matplotlib.axis_1">
    <g id="xtick_1">
     <g id="line2d_6">
      <defs>
       <path id="m645a08984c" d="M 0 0 
L 0 3.5 
" style="stroke: #000000; stroke-width: 0.8"/>
      </defs>
      <g>
       <use xlink:href="#m645a08984c" x="309.684706" y="213.662118" style="stroke: #000000; stroke-width: 0.8"/>
      </g>
     </g>
     <g id="text_1">
      <!-- 0.0 -->
      <g transform="translate(301.733143 228.260555) scale(0.1 -0.1)">
       <defs>
        <path id="DejaVuSans-30" d="M 2034 4250 
Q 1547 4250 1301 3770 
Q 1056 3291 1056 2328 
Q 1056 1369 1301 889 
Q 1547 409 2034 409 
Q 2525 409 2770 889 
Q 3016 1369 3016 2328 
Q 3016 3291 2770 3770 
Q 2525 4250 2034 4250 
z
M 2034 4750 
Q 2819 4750 3233 4129 
Q 3647 3509 3647 2328 
Q 3647 1150 3233 529 
Q 2819 -91 2034 -91 
Q 1250 -91 836 529 
Q 422 1150 422 2328 
Q 422 3509 836 4129 
Q 1250 4750 2034 4750 
z
" transform="scale(0.015625)"/>
        <path id="DejaVuSans-2e" d="M 684 794 
L 1344 794 
L 1344 0 
L 684 0 
L 684 794 
z
" transform="scale(0.015625)"/>
       </defs>
       <use xlink:href="#DejaVuSans-30"/>
       <use xlink:href="#DejaVuSans-2e" x="63.623047"/>
       <use xlink:href="#DejaVuSans-30" x="95.410156"/>
      </g>
     </g>
    </g>
    <g id="xtick_2">
     <g id="line2d_7">
      <g>
       <use xlink:href="#m645a08984c" x="362.202353" y="213.662118" style="stroke: #000000; stroke-width: 0.8"/>
      </g>
     </g>
     <g id="text_2">
      <!-- 0.5 -->
      <g transform="translate(354.25079 228.260555) scale(0.1 -0.1)">
       <defs>
        <path id="DejaVuSans-35" d="M 691 4666 
L 3169 4666 
L 3169 4134 
L 1269 4134 
L 1269 2991 
Q 1406 3038 1543 3061 
Q 1681 3084 1819 3084 
Q 2600 3084 3056 2656 
Q 3513 2228 3513 1497 
Q 3513 744 3044 326 
Q 2575 -91 1722 -91 
Q 1428 -91 1123 -41 
Q 819 9 494 109 
L 494 744 
Q 775 591 1075 516 
Q 1375 441 1709 441 
Q 2250 441 2565 725 
Q 2881 1009 2881 1497 
Q 2881 1984 2565 2268 
Q 2250 2553 1709 2553 
Q 1456 2553 1204 2497 
Q 953 2441 691 2322 
L 691 4666 
z
" transform="scale(0.015625)"/>
       </defs>
       <use xlink:href="#DejaVuSans-30"/>
       <use xlink:href="#DejaVuSans-2e" x="63.623047"/>
       <use xlink:href="#DejaVuSans-35" x="95.410156"/>
      </g>
     </g>
    </g>
    <g id="xtick_3">
     <g id="line2d_8">
      <g>
       <use xlink:href="#m645a08984c" x="414.72" y="213.662118" style="stroke: #000000; stroke-width: 0.8"/>
      </g>
     </g>
     <g id="text_3">
      <!-- 1.0 -->
      <g transform="translate(406.768438 228.260555) scale(0.1 -0.1)">
       <defs>
        <path id="DejaVuSans-31" d="M 794 531 
L 1825 531 
L 1825 4091 
L 703 3866 
L 703 4441 
L 1819 4666 
L 2450 4666 
L 2450 531 
L 3481 531 
L 3481 0 
L 794 0 
L 794 531 
z
" transform="scale(0.015625)"/>
       </defs>
       <use xlink:href="#DejaVuSans-31"/>
       <use xlink:href="#DejaVuSans-2e" x="63.623047"/>
       <use xlink:href="#DejaVuSans-30" x="95.410156"/>
      </g>
     </g>
    </g>
   </g>
   <g id="matplotlib.axis_2">
    <g id="ytick_1">
     <g id="line2d_9">
      <defs>
       <path id="m310026b4c9" d="M 0 0 
L -3.5 0 
" style="stroke: #000000; stroke-width: 0.8"/>
      </defs>
      <g>
       <use xlink:href="#m310026b4c9" x="309.684706" y="213.662118" style="stroke: #000000; stroke-width: 0.8"/>
      </g>
     </g>
     <g id="text_4">
      <!-- 0.0 -->
      <g transform="translate(286.781581 217.461336) scale(0.1 -0.1)">
       <use xlink:href="#DejaVuSans-30"/>
       <use xlink:href="#DejaVuSans-2e" x="63.623047"/>
       <use xlink:href="#DejaVuSans-30" x="95.410156"/>
      </g>
     </g>
    </g>
    <g id="ytick_2">
     <g id="line2d_10">
      <g>
       <use xlink:href="#m310026b4c9" x="309.684706" y="174.528" style="stroke: #000000; stroke-width: 0.8"/>
      </g>
     </g>
     <g id="text_5">
      <!-- 0.5 -->
      <g transform="translate(286.781581 178.327219) scale(0.1 -0.1)">
       <use xlink:href="#DejaVuSans-30"/>
       <use xlink:href="#DejaVuSans-2e" x="63.623047"/>
       <use xlink:href="#DejaVuSans-35" x="95.410156"/>
      </g>
     </g>
    </g>
    <g id="ytick_3">
     <g id="line2d_11">
      <g>
       <use xlink:href="#m310026b4c9" x="309.684706" y="135.393882" style="stroke: #000000; stroke-width: 0.8"/>
      </g>
     </g>
     <g id="text_6">
      <!-- 1.0 -->
      <g transform="translate(286.781581 139.193101) scale(0.1 -0.1)">
       <use xlink:href="#DejaVuSans-31"/>
       <use xlink:href="#DejaVuSans-2e" x="63.623047"/>
       <use xlink:href="#DejaVuSans-30" x="95.410156"/>
      </g>
     </g>
    </g>
   </g>
   <g id="patch_3">
    <path d="M 309.684706 213.662118 
L 309.684706 135.393882 
" style="fill: none; stroke: #000000; stroke-width: 0.8; stroke-linejoin: miter; stroke-linecap: square"/>
   </g>
   <g id="patch_4">
    <path d="M 414.72 213.662118 
L 414.72 135.393882 
" style="fill: none; stroke: #000000; stroke-width: 0.8; stroke-linejoin: miter; stroke-linecap: square"/>
   </g>
   <g id="patch_5">
    <path d="M 309.684706 213.662118 
L 414.72 213.662118 
" style="fill: none; stroke: #000000; stroke-width: 0.8; stroke-linejoin: miter; stroke-linecap: square"/>
   </g>
   <g id="patch_6">
    <path d="M 309.684706 135.393882 
L 414.72 135.393882 
" style="fill: none; stroke: #000000; stroke-width: 0.8; stroke-linejoin: miter; stroke-linecap: square"/>
   </g>
  </g>
  <g id="axes_7">
   <g id="patch_7">
    <path d="M 57.6 307.584 
L 162.635294 307.584 
L 162.635294 229.315765 
L 57.6 229.315765 
z
" style="fill: #ffffff"/>
   </g>
   <g id="matplotlib.axis_3">
    <g id="xtick_4">
     <g id="line2d_12">
      <g>
       <use xlink:href="#m645a08984c" x="57.6" y="307.584" style="stroke: #000000; stroke-width: 0.8"/>
      </g>
     </g>
     <g id="text_7">
      <!-- 0.0 -->
      <g transform="translate(49.648438 322.182437) scale(0.1 -0.1)">
       <use xlink:href="#DejaVuSans-30"/>
       <use xlink:href="#DejaVuSans-2e" x="63.623047"/>
       <use xlink:href="#DejaVuSans-30" x="95.410156"/>
      </g>
     </g>
    </g>
    <g id="xtick_5">
     <g id="line2d_13">
      <g>
       <use xlink:href="#m645a08984c" x="110.117647" y="307.584" style="stroke: #000000; stroke-width: 0.8"/>
      </g>
     </g>
     <g id="text_8">
      <!-- 0.5 -->
      <g transform="translate(102.166085 322.182437) scale(0.1 -0.1)">
       <use xlink:href="#DejaVuSans-30"/>
       <use xlink:href="#DejaVuSans-2e" x="63.623047"/>
       <use xlink:href="#DejaVuSans-35" x="95.410156"/>
      </g>
     </g>
    </g>
    <g id="xtick_6">
     <g id="line2d_14">
      <g>
       <use xlink:href="#m645a08984c" x="162.635294" y="307.584" style="stroke: #000000; stroke-width: 0.8"/>
      </g>
     </g>
     <g id="text_9">
      <!-- 1.0 -->
      <g transform="translate(154.683732 322.182437) scale(0.1 -0.1)">
       <use xlink:href="#DejaVuSans-31"/>
       <use xlink:href="#DejaVuSans-2e" x="63.623047"/>
       <use xlink:href="#DejaVuSans-30" x="95.410156"/>
      </g>
     </g>
    </g>
   </g>
   <g id="matplotlib.axis_4">
    <g id="ytick_4">
     <g id="line2d_15">
      <g>
       <use xlink:href="#m310026b4c9" x="57.6" y="307.584" style="stroke: #000000; stroke-width: 0.8"/>
      </g>
     </g>
     <g id="text_10">
      <!-- 0.0 -->
      <g transform="translate(34.696875 311.383219) scale(0.1 -0.1)">
       <use xlink:href="#DejaVuSans-30"/>
       <use xlink:href="#DejaVuSans-2e" x="63.623047"/>
       <use xlink:href="#DejaVuSans-30" x="95.410156"/>
      </g>
     </g>
    </g>
    <g id="ytick_5">
     <g id="line2d_16">
      <g>
       <use xlink:href="#m310026b4c9" x="57.6" y="268.449882" style="stroke: #000000; stroke-width: 0.8"/>
      </g>
     </g>
     <g id="text_11">
      <!-- 0.5 -->
      <g transform="translate(34.696875 272.249101) scale(0.1 -0.1)">
       <use xlink:href="#DejaVuSans-30"/>
       <use xlink:href="#DejaVuSans-2e" x="63.623047"/>
       <use xlink:href="#DejaVuSans-35" x="95.410156"/>
      </g>
     </g>
    </g>
    <g id="ytick_6">
     <g id="line2d_17">
      <g>
       <use xlink:href="#m310026b4c9" x="57.6" y="229.315765" style="stroke: #000000; stroke-width: 0.8"/>
      </g>
     </g>
     <g id="text_12">
      <!-- 1.0 -->
      <g transform="translate(34.696875 233.114983) scale(0.1 -0.1)">
       <use xlink:href="#DejaVuSans-31"/>
       <use xlink:href="#DejaVuSans-2e" x="63.623047"/>
       <use xlink:href="#DejaVuSans-30" x="95.410156"/>
      </g>
     </g>
    </g>
   </g>
   <g id="patch_8">
    <path d="M 57.6 307.584 
L 57.6 229.315765 
" style="fill: none; stroke: #000000; stroke-width: 0.8; stroke-linejoin: miter; stroke-linecap: square"/>
   </g>
   <g id="patch_9">
    <path d="M 162.635294 307.584 
L 162.635294 229.315765 
" style="fill: none; stroke: #000000; stroke-width: 0.8; stroke-linejoin: miter; stroke-linecap: square"/>
   </g>
   <g id="patch_10">
    <path d="M 57.6 307.584 
L 162.635294 307.584 
" style="fill: none; stroke: #000000; stroke-width: 0.8; stroke-linejoin: miter; stroke-linecap: square"/>
   </g>
   <g id="patch_11">
    <path d="M 57.6 229.315765 
L 162.635294 229.315765 
" style="fill: none; stroke: #000000; stroke-width: 0.8; stroke-linejoin: miter; stroke-linecap: square"/>
   </g>
  </g>
  <g id="axes_8">
   <g id="patch_12">
    <path d="M 183.642353 307.584 
L 288.677647 307.584 
L 288.677647 229.315765 
L 183.642353 229.315765 
z
" style="fill: #ffffff"/>
   </g>
   <g id="matplotlib.axis_5">
    <g id="xtick_7">
     <g id="line2d_18">
      <g>
       <use xlink:href="#m645a08984c" x="183.642353" y="307.584" style="stroke: #000000; stroke-width: 0.8"/>
      </g>
     </g>
     <g id="text_13">
      <!-- 0.0 -->
      <g transform="translate(175.69079 322.182437) scale(0.1 -0.1)">
       <use xlink:href="#DejaVuSans-30"/>
       <use xlink:href="#DejaVuSans-2e" x="63.623047"/>
       <use xlink:href="#DejaVuSans-30" x="95.410156"/>
      </g>
     </g>
    </g>
    <g id="xtick_8">
     <g id="line2d_19">
      <g>
       <use xlink:href="#m645a08984c" x="236.16" y="307.584" style="stroke: #000000; stroke-width: 0.8"/>
      </g>
     </g>
     <g id="text_14">
      <!-- 0.5 -->
      <g transform="translate(228.208438 322.182437) scale(0.1 -0.1)">
       <use xlink:href="#DejaVuSans-30"/>
       <use xlink:href="#DejaVuSans-2e" x="63.623047"/>
       <use xlink:href="#DejaVuSans-35" x="95.410156"/>
      </g>
     </g>
    </g>
    <g id="xtick_9">
     <g id="line2d_20">
      <g>
       <use xlink:href="#m645a08984c" x="288.677647" y="307.584" style="stroke: #000000; stroke-width: 0.8"/>
      </g>
     </g>
     <g id="text_15">
      <!-- 1.0 -->
      <g transform="translate(280.726085 322.182437) scale(0.1 -0.1)">
       <use xlink:href="#DejaVuSans-31"/>
       <use xlink:href="#DejaVuSans-2e" x="63.623047"/>
       <use xlink:href="#DejaVuSans-30" x="95.410156"/>
      </g>
     </g>
    </g>
   </g>
   <g id="matplotlib.axis_6">
    <g id="ytick_7">
     <g id="line2d_21">
      <g>
       <use xlink:href="#m310026b4c9" x="183.642353" y="307.584" style="stroke: #000000; stroke-width: 0.8"/>
      </g>
     </g>
     <g id="text_16">
      <!-- 0.0 -->
      <g transform="translate(160.739228 311.383219) scale(0.1 -0.1)">
       <use xlink:href="#DejaVuSans-30"/>
       <use xlink:href="#DejaVuSans-2e" x="63.623047"/>
       <use xlink:href="#DejaVuSans-30" x="95.410156"/>
      </g>
     </g>
    </g>
    <g id="ytick_8">
     <g id="line2d_22">
      <g>
       <use xlink:href="#m310026b4c9" x="183.642353" y="268.449882" style="stroke: #000000; stroke-width: 0.8"/>
      </g>
     </g>
     <g id="text_17">
      <!-- 0.5 -->
      <g transform="translate(160.739228 272.249101) scale(0.1 -0.1)">
       <use xlink:href="#DejaVuSans-30"/>
       <use xlink:href="#DejaVuSans-2e" x="63.623047"/>
       <use xlink:href="#DejaVuSans-35" x="95.410156"/>
      </g>
     </g>
    </g>
    <g id="ytick_9">
     <g id="line2d_23">
      <g>
       <use xlink:href="#m310026b4c9" x="183.642353" y="229.315765" style="stroke: #000000; stroke-width: 0.8"/>
      </g>
     </g>
     <g id="text_18">
      <!-- 1.0 -->
      <g transform="translate(160.739228 233.114983) scale(0.1 -0.1)">
       <use xlink:href="#DejaVuSans-31"/>
       <use xlink:href="#DejaVuSans-2e" x="63.623047"/>
       <use xlink:href="#DejaVuSans-30" x="95.410156"/>
      </g>
     </g>
    </g>
   </g>
   <g id="patch_13">
    <path d="M 183.642353 307.584 
L 183.642353 229.315765 
" style="fill: none; stroke: #000000; stroke-width: 0.8; stroke-linejoin: miter; stroke-linecap: square"/>
   </g>
   <g id="patch_14">
    <path d="M 288.677647 307.584 
L 288.677647 229.315765 
" style="fill: none; stroke: #000000; stroke-width: 0.8; stroke-linejoin: miter; stroke-linecap: square"/>
   </g>
   <g id="patch_15">
    <path d="M 183.642353 307.584 
L 288.677647 307.584 
" style="fill: none; stroke: #000000; stroke-width: 0.8; stroke-linejoin: miter; stroke-linecap: square"/>
   </g>
   <g id="patch_16">
    <path d="M 183.642353 229.315765 
L 288.677647 229.315765 
" style="fill: none; stroke: #000000; stroke-width: 0.8; stroke-linejoin: miter; stroke-linecap: square"/>
   </g>
  </g>
  <g id="axes_9">
   <g id="patch_17">
    <path d="M 309.684706 307.584 
L 414.72 307.584 
L 414.72 229.315765 
L 309.684706 229.315765 
z
" style="fill: #ffffff"/>
   </g>
   <g id="matplotlib.axis_7">
    <g id="xtick_10">
     <g id="line2d_24">
      <g>
       <use xlink:href="#m645a08984c" x="309.684706" y="307.584" style="stroke: #000000; stroke-width: 0.8"/>
      </g>
     </g>
     <g id="text_19">
      <!-- 0.0 -->
      <g transform="translate(301.733143 322.182437) scale(0.1 -0.1)">
       <use xlink:href="#DejaVuSans-30"/>
       <use xlink:href="#DejaVuSans-2e" x="63.623047"/>
       <use xlink:href="#DejaVuSans-30" x="95.410156"/>
      </g>
     </g>
    </g>
    <g id="xtick_11">
     <g id="line2d_25">
      <g>
       <use xlink:href="#m645a08984c" x="362.202353" y="307.584" style="stroke: #000000; stroke-width: 0.8"/>
      </g>
     </g>
     <g id="text_20">
      <!-- 0.5 -->
      <g transform="translate(354.25079 322.182437) scale(0.1 -0.1)">
       <use xlink:href="#DejaVuSans-30"/>
       <use xlink:href="#DejaVuSans-2e" x="63.623047"/>
       <use xlink:href="#DejaVuSans-35" x="95.410156"/>
      </g>
     </g>
    </g>
    <g id="xtick_12">
     <g id="line2d_26">
      <g>
       <use xlink:href="#m645a08984c" x="414.72" y="307.584" style="stroke: #000000; stroke-width: 0.8"/>
      </g>
     </g>
     <g id="text_21">
      <!-- 1.0 -->
      <g transform="translate(406.768438 322.182437) scale(0.1 -0.1)">
       <use xlink:href="#DejaVuSans-31"/>
       <use xlink:href="#DejaVuSans-2e" x="63.623047"/>
       <use xlink:href="#DejaVuSans-30" x="95.410156"/>
      </g>
     </g>
    </g>
   </g>
   <g id="matplotlib.axis_8">
    <g id="ytick_10">
     <g id="line2d_27">
      <g>
       <use xlink:href="#m310026b4c9" x="309.684706" y="307.584" style="stroke: #000000; stroke-width: 0.8"/>
      </g>
     </g>
     <g id="text_22">
      <!-- 0.0 -->
      <g transform="translate(286.781581 311.383219) scale(0.1 -0.1)">
       <use xlink:href="#DejaVuSans-30"/>
       <use xlink:href="#DejaVuSans-2e" x="63.623047"/>
       <use xlink:href="#DejaVuSans-30" x="95.410156"/>
      </g>
     </g>
    </g>
    <g id="ytick_11">
     <g id="line2d_28">
      <g>
       <use xlink:href="#m310026b4c9" x="309.684706" y="268.449882" style="stroke: #000000; stroke-width: 0.8"/>
      </g>
     </g>
     <g id="text_23">
      <!-- 0.5 -->
      <g transform="translate(286.781581 272.249101) scale(0.1 -0.1)">
       <use xlink:href="#DejaVuSans-30"/>
       <use xlink:href="#DejaVuSans-2e" x="63.623047"/>
       <use xlink:href="#DejaVuSans-35" x="95.410156"/>
      </g>
     </g>
    </g>
    <g id="ytick_12">
     <g id="line2d_29">
      <g>
       <use xlink:href="#m310026b4c9" x="309.684706" y="229.315765" style="stroke: #000000; stroke-width: 0.8"/>
      </g>
     </g>
     <g id="text_24">
      <!-- 1.0 -->
      <g transform="translate(286.781581 233.114983) scale(0.1 -0.1)">
       <use xlink:href="#DejaVuSans-31"/>
       <use xlink:href="#DejaVuSans-2e" x="63.623047"/>
       <use xlink:href="#DejaVuSans-30" x="95.410156"/>
      </g>
     </g>
    </g>
   </g>
   <g id="patch_18">
    <path d="M 309.684706 307.584 
L 309.684706 229.315765 
" style="fill: none; stroke: #000000; stroke-width: 0.8; stroke-linejoin: miter; stroke-linecap: square"/>
   </g>
   <g id="patch_19">
    <path d="M 414.72 307.584 
L 414.72 229.315765 
" style="fill: none; stroke: #000000; stroke-width: 0.8; stroke-linejoin: miter; stroke-linecap: square"/>
   </g>
   <g id="patch_20">
    <path d="M 309.684706 307.584 
L 414.72 307.584 
" style="fill: none; stroke: #000000; stroke-width: 0.8; stroke-linejoin: miter; stroke-linecap: square"/>
   </g>
   <g id="patch_21">
    <path d="M 309.684706 229.315765 
L 414.72 229.315765 
" style="fill: none; stroke: #000000; stroke-width: 0.8; stroke-linejoin: miter; stroke-linecap: square"/>
   </g>
  </g>
 </g>
 <defs>
  <clipPath id="pb5e410ee65">
   <rect x="57.6" y="41.472" width="105.035294" height="78.268235"/>
  </clipPath>
  <clipPath id="p4e1676ea1b">
   <rect x="183.642353" y="41.472" width="105.035294" height="78.268235"/>
  </clipPath>
  <clipPath id="pa0c0146f2d">
   <rect x="309.684706" y="41.472" width="105.035294" height="78.268235"/>
  </clipPath>
  <clipPath id="pe8c6779f4f">
   <rect x="57.6" y="135.393882" width="105.035294" height="78.268235"/>
  </clipPath>
  <clipPath id="p34627cda99">
   <rect x="183.642353" y="135.393882" width="105.035294" height="78.268235"/>
  </clipPath>
 </defs>
</svg>
