<?xml version="1.0" encoding="UTF-8" standalone="no"?>
<!-- Created with Inkscape (http://www.inkscape.org/) -->

<svg
   width="54.785526mm"
   height="55.939297mm"
   viewBox="0 0 54.785526 55.939297"
   version="1.1"
   id="svg5"
   inkscape:version="1.2 (dc2aedaf03, 2022-05-15)"
   sodipodi:docname="logo.svg"
   xmlns:inkscape="http://www.inkscape.org/namespaces/inkscape"
   xmlns:sodipodi="http://sodipodi.sourceforge.net/DTD/sodipodi-0.dtd"
   xmlns="http://www.w3.org/2000/svg"
   xmlns:svg="http://www.w3.org/2000/svg">
  <sodipodi:namedview
     id="namedview7"
     pagecolor="#ffffff"
     bordercolor="#000000"
     borderopacity="0.25"
     inkscape:showpageshadow="2"
     inkscape:pageopacity="0.0"
     inkscape:pagecheckerboard="0"
     inkscape:deskcolor="#d1d1d1"
     inkscape:document-units="mm"
     showgrid="false"
     inkscape:zoom="2.3786088"
     inkscape:cx="-12.402208"
     inkscape:cy="97.115592"
     inkscape:window-width="1920"
     inkscape:window-height="1106"
     inkscape:window-x="-11"
     inkscape:window-y="-11"
     inkscape:window-maximized="1"
     inkscape:current-layer="layer1" />
  <defs
     id="defs2">
    <inkscape:path-effect
       effect="simplify"
       id="path-effect2298"
       is_visible="true"
       lpeversion="1"
       steps="1"
       threshold="0.00172414"
       smooth_angles="360"
       helper_size="0"
       simplify_individual_paths="false"
       simplify_just_coalesce="false" />
    <inkscape:path-effect
       effect="simplify"
       id="path-effect2294"
       is_visible="true"
       lpeversion="1"
       steps="1"
       threshold="0.00172414"
       smooth_angles="360"
       helper_size="0"
       simplify_individual_paths="false"
       simplify_just_coalesce="false" />
    <inkscape:path-effect
       effect="simplify"
       id="path-effect2290"
       is_visible="true"
       lpeversion="1"
       steps="1"
       threshold="0.00172414"
       smooth_angles="360"
       helper_size="0"
       simplify_individual_paths="false"
       simplify_just_coalesce="false" />
    <inkscape:path-effect
       effect="simplify"
       id="path-effect2290-9"
       is_visible="true"
       lpeversion="1"
       steps="1"
       threshold="0.00172414"
       smooth_angles="360"
       helper_size="0"
       simplify_individual_paths="false"
       simplify_just_coalesce="false" />
    <inkscape:path-effect
       effect="simplify"
       id="path-effect2294-5"
       is_visible="true"
       lpeversion="1"
       steps="1"
       threshold="0.00172414"
       smooth_angles="360"
       helper_size="0"
       simplify_individual_paths="false"
       simplify_just_coalesce="false" />
    <inkscape:path-effect
       effect="simplify"
       id="path-effect2298-3"
       is_visible="true"
       lpeversion="1"
       steps="1"
       threshold="0.00172414"
       smooth_angles="360"
       helper_size="0"
       simplify_individual_paths="false"
       simplify_just_coalesce="false" />
  </defs>
  <g
     inkscape:label="Capa 1"
     inkscape:groupmode="layer"
     id="layer1"
     transform="translate(-124.38671,-79.149847)">
    <g
       aria-label="α"
       id="text190"
       style="font-stretch:condensed;font-size:53.959px;font-family:Arial;-inkscape-font-specification:'Arial Condensed';opacity:1;vector-effect:none;fill:none;stroke:#000000;stroke-width:0.468236;stroke-linecap:square;stroke-linejoin:round;stroke-miterlimit:10;stop-color:#000000;stop-opacity:1" />
    <path
       id="path3880"
       style="fill:#ffffff;fill-opacity:1;stroke:#000000;stroke-width:0;stroke-linecap:square;stroke-linejoin:round;stroke-miterlimit:10;stroke-dasharray:none;stroke-opacity:1;stop-color:#000000"
       d="m 159.58926,88.642954 q 2.98563,-0.628554 6.3484,-1.50853 l 0.28284,0.219993 q -0.81711,2.545646 -1.66567,4.777015 -0.81711,2.19994 -1.75995,4.337025 -0.9114,2.105657 -1.94851,4.274163 -1.00569,2.13709 -2.23137,4.49417 1.16282,4.87129 3.61418,7.16551 2.45137,2.29423 6.44269,2.41995 l 0.15714,1.44567 q -2.29422,0.65998 -4.3056,0.97426 -2.01137,0.31427 -3.33133,0.31427 -1.66567,0 -2.85994,-1.97994 -1.16281,-1.97994 -2.1685,-6.09698 -5.37415,8.3912 -11.34541,8.3912 -4.68274,0 -7.38551,-4.11703 -2.70279,-4.11704 -2.70279,-9.74259 0,-7.134093 3.58276,-12.00539 3.61419,-4.871296 9.23976,-4.871296 7.19694,0 9.42831,11.376835 h 0.0629 q 0.84855,-2.702784 1.41425,-4.997008 0.5657,-2.325651 1.1314,-4.871297 z m -4.58844,15.211006 q -1.19426,-6.662665 -3.17421,-9.962577 -1.94851,-3.331338 -4.55702,-3.331338 -3.20563,0 -4.99701,3.331338 -1.79138,3.331339 -1.79138,8.579767 0,5.27985 1.60282,8.20263 1.63424,2.89135 4.46274,2.89135 2.13707,0 4.24273,-2.41993 2.10566,-2.45136 4.21133,-7.29124 z" />
    <path
       style="font-variation-settings:normal;opacity:1;vector-effect:none;fill:#d7e7fd;fill-opacity:1;stroke:none;stroke-width:0.52583;stroke-linecap:square;stroke-linejoin:round;stroke-miterlimit:10;stroke-dasharray:none;stroke-dashoffset:0;stroke-opacity:1;-inkscape-stroke:none;stop-color:#000000;stop-opacity:1"
       d="m 584.89298,344.6925 c -5.14715,-8.69553 -12.09332,-14.0507 -20.66036,-15.92817 -4.24979,-0.93135 -12.49054,-0.62152 -17.60392,0.66186 -0.57805,0.14508 -0.20105,-0.80766 2.91633,-7.37001 1.96911,-4.14514 3.80519,-8.0373 4.08018,-8.64924 l 0.49997,-1.11262 21.8499,11.32442 c 12.01744,6.22843 21.89448,11.44467 21.94898,11.59165 0.14861,0.40074 0.87882,0.32163 1.14957,-0.12454 0.13075,-0.21547 4.98674,-4.64943 10.79108,-9.85324 5.80434,-5.20381 11.09144,-9.97515 11.74909,-10.60297 l 1.19575,-1.1415 3.70933,2.76645 c 4.71102,3.51352 9.3849,7.74061 12.82086,11.59529 3.00087,3.36659 8.27921,10.24153 8.27921,10.78354 0,0.27852 -3.4039,5.563 -4.13293,6.4163 -0.0977,0.11432 -3.99018,-0.0506 -8.65001,-0.36661 -4.65982,-0.31595 -8.82167,-0.57671 -9.24856,-0.57946 l -0.77616,-0.005 2.33687,-6.86598 c 1.28527,-3.77628 2.33686,-7.04696 2.33686,-7.26816 0,-0.22121 -0.45376,-0.7483 -1.00835,-1.17131 l -1.00835,-0.7691 -5.90335,1.48124 c -4.74683,1.19105 -18.9145,4.48588 -19.28917,4.48588 -0.09,0 -0.9932,3.72579 -1.64957,6.80488 l -0.34161,1.60254 -2.71621,-0.21978 c -3.72018,-0.301 -4.04211,-0.28513 -4.44499,0.21918 -0.29828,0.37336 -5.32731,4.15146 -6.3288,4.75457 -0.19806,0.11927 -0.95272,-0.85703 -1.90164,-2.46012 z"
       id="path4003"
       transform="scale(0.26458333)" />
    <path
       style="font-variation-settings:normal;opacity:1;vector-effect:none;fill:#0d65d9;fill-opacity:1;stroke:none;stroke-width:0.52583;stroke-linecap:square;stroke-linejoin:round;stroke-miterlimit:10;stroke-dasharray:none;stroke-dashoffset:0;stroke-opacity:1;-inkscape-stroke:none;stop-color:#000000;stop-opacity:1"
       d="m 592.95313,365.13688 c -1.07422,-4.20595 -2.92331,-9.81854 -4.21877,-12.80537 -0.641,-1.47791 -1.16546,-2.77246 -1.16546,-2.87677 0,-0.10432 1.60302,-1.35928 3.56226,-2.7888 l 3.56226,-2.59912 2.53193,0.20544 c 1.39256,0.11299 2.53192,0.24239 2.53192,0.28755 0,0.0452 -0.65856,2.80259 -1.46347,6.12763 -1.22382,5.05546 -2.07183,8.20951 -4.44447,16.53038 -0.14357,0.50351 -0.37097,-0.0245 -0.8962,-2.08094 z"
       id="path4005"
       transform="scale(0.26458333)" />
    <path
       style="font-variation-settings:normal;opacity:1;vector-effect:none;fill:#94bdf2;fill-opacity:1;stroke:none;stroke-width:1.05166;stroke-linecap:square;stroke-linejoin:round;stroke-miterlimit:10;stroke-dasharray:none;stroke-dashoffset:0;stroke-opacity:1;-inkscape-stroke:none;stop-color:#000000;stop-opacity:1"
       d="m 550.02135,427.60503 c -1.70451,-0.40109 -4.07175,-1.48699 -4.06782,-1.866 0.002,-0.18424 0.81725,-3.01048 1.81187,-6.28053 2.08094,-6.8416 2.33355,-7.79175 2.12658,-7.99872 -0.25498,-0.25498 -2.73371,-32.71599 -2.51358,-32.91744 0.70576,-0.64588 26.92286,-19.57981 27.11142,-19.57981 0.3952,0 2.97074,6.16899 4.48357,10.7391 1.7383,5.25127 3.12674,10.56647 4.55735,17.44631 l 1.07015,5.1464 -1.95855,4.26564 c -5.25075,11.43596 -11.06217,20.42099 -16.5467,25.58283 -4.38579,4.12774 -7.97392,5.78956 -12.41637,5.75056 -1.38977,-0.0122 -3.03584,-0.14196 -3.65792,-0.28834 z"
       id="path4007"
       transform="scale(0.26458333)" />
    <path
       style="font-variation-settings:normal;opacity:1;vector-effect:none;fill:#0d65d9;fill-opacity:1;stroke:none;stroke-width:0.52583;stroke-linecap:square;stroke-linejoin:round;stroke-miterlimit:10;stroke-dasharray:none;stroke-dashoffset:0;stroke-opacity:1;-inkscape-stroke:none;stop-color:#000000;stop-opacity:1"
       d="m 542.00779,422.92623 c -4.79647,-5.0286 -7.7503,-12.54569 -9.18923,-23.38532 -0.53178,-4.00593 -0.53704,-20.41916 -0.008,-24.07948 1.76393,-12.19788 5.57685,-21.45437 10.97697,-26.64839 2.28787,-2.20054 4.0514,-3.31316 6.88315,-4.34259 2.39661,-0.87125 6.35065,-1.19138 8.64298,-0.69976 4.70742,1.00956 9.22396,4.84824 13.03247,11.07649 l 1.21003,1.97884 -13.9151,10.13522 c -7.65331,5.57437 -14.05109,10.13522 -14.2173,10.13522 -0.37112,0 -0.72494,0.84852 -0.50334,1.20707 0.0889,0.14388 0.76062,7.79042 1.49267,16.99231 l 1.33101,16.73072 -1.86111,6.31715 c -1.02361,3.47443 -1.94207,6.31714 -2.04102,6.31714 -0.0989,0 -0.92445,-0.78058 -1.83445,-1.73462 z"
       id="path4009"
       transform="scale(0.26458333)" />
    <path
       style="font-variation-settings:normal;opacity:1;vector-effect:none;fill:#5c9df2;fill-opacity:1;stroke:none;stroke-width:0.52583;stroke-linecap:square;stroke-linejoin:round;stroke-miterlimit:10;stroke-dasharray:none;stroke-dashoffset:0;stroke-opacity:1;-inkscape-stroke:none;stop-color:#000000;stop-opacity:1"
       d="m 615.95527,425.59034 c -5.69581,-4.54836 -10.07726,-11.53647 -13.23038,-21.10153 -2.27127,-6.88995 -2.60232,-5.14498 3.22275,-16.98764 7.11199,-14.45903 12.46655,-26.50946 16.27762,-36.63275 l 1.76013,-4.67542 1.18911,-0.006 c 1.93799,-0.0101 18.30206,1.15885 18.57377,1.32678 0.3326,0.20556 1.19518,-0.13829 1.19518,-0.47644 0,-0.14737 0.89828,-1.61712 1.99619,-3.26611 2.34398,-3.52052 1.9451,-3.6491 4.75348,1.53223 5.39426,9.95217 8.96013,21.4612 10.1729,32.83365 0.44822,4.20302 0.67474,11.16783 0.40959,12.59344 l -0.24122,1.29691 -15.15989,4.56893 c -8.33795,2.51291 -15.453,4.57135 -15.81123,4.57432 -0.61916,0.005 -1.05296,0.39356 -1.16807,1.04587 -0.0289,0.16351 -2.775,5.81066 -6.10255,12.54923 l -6.05009,12.25194 z"
       id="path4011"
       transform="scale(0.26458333)" />
    <path
       style="font-variation-settings:normal;opacity:1;fill:#d7e7fd;fill-opacity:1;stroke:none;stroke-width:0.52583;stroke-linecap:square;stroke-linejoin:round;stroke-miterlimit:10;stroke-dasharray:none;stroke-dashoffset:0;stroke-opacity:1;stop-color:#000000;stop-opacity:1"
       d="m 555.46293,474.25359 c -3.7507,-0.79868 -9.08747,-2.34556 -12.68576,-3.67702 -5.28779,-1.95662 -17.05183,-7.96468 -17.03824,-8.70167 0.004,-0.23026 9.66884,-4.36489 10.2028,-4.36489 0.50505,0 1.04712,-0.5847 0.9904,-1.06828 -0.027,-0.22996 0.61731,-2.66948 1.43173,-5.42116 l 1.48076,-5.00306 0.89746,0.1648 c 2.27107,0.41705 8.49103,0.53486 10.93972,0.20721 12.51573,-1.67466 24.26502,-10.31915 35.7334,-26.29072 l 2.31521,-3.22429 1.26842,4.4134 c 3.72512,12.96134 7.84207,20.27127 12.84442,22.80615 0.81919,0.41511 2.14126,0.91432 2.93793,1.10934 0.79668,0.19502 1.49094,0.38844 1.54281,0.42981 0.0519,0.0414 -0.25023,0.75512 -0.67133,1.58612 -0.49297,0.97283 -1.00295,1.56533 -1.43205,1.66373 -1.61099,0.36946 -40.9103,7.2934 -41.81076,7.36642 l -1.00205,0.0813 -2.03397,8.61613 c -1.11869,4.73887 -2.10618,8.91712 -2.19444,9.285 -0.18942,0.78963 -0.11234,0.78917 -3.71646,0.0217 z"
       id="path4013"
       transform="scale(0.26458333)" />
    <path
       style="font-variation-settings:normal;opacity:1;vector-effect:none;fill:#0d65d9;fill-opacity:1;stroke:none;stroke-width:0.52583;stroke-linecap:square;stroke-linejoin:round;stroke-miterlimit:10;stroke-dasharray:none;stroke-dashoffset:0;stroke-opacity:1;-inkscape-stroke:none;stop-color:#000000;stop-opacity:1"
       d="m 565.27309,475.75328 c -3.7936,-0.34353 -4.22924,-0.46039 -4.04626,-1.0854 0.0822,-0.28068 0.97812,-4.05537 1.991,-8.38818 1.01288,-4.33282 1.85623,-7.89636 1.87411,-7.91898 0.11061,-0.13992 42.41116,-7.54175 42.71411,-7.4742 0.21337,0.0476 0.94493,-1.08374 1.70371,-2.63473 l 1.32977,-2.71811 2.55968,-0.19894 c 3.36137,-0.26125 10.12984,-1.22838 13.85623,-1.97986 4.6817,-0.94415 11.25717,-2.68217 11.69804,-3.09202 0.33061,-0.30735 0.3413,-0.94342 0.0606,-3.60278 -0.39323,-3.72487 -0.56887,-3.97214 -2.82277,-3.97393 -4.45745,-0.004 -13.32256,-2.41074 -16.15102,-4.38559 -0.28507,-0.19903 1.11385,-3.3006 5.69793,-12.63296 5.85002,-11.90963 6.11256,-12.37961 7.06656,-12.65033 0.54495,-0.15464 7.31774,-2.18684 15.05066,-4.516 7.73291,-2.32917 14.10503,-4.18518 14.16028,-4.12446 0.21461,0.23586 -0.75747,7.3494 -1.49213,10.91909 -2.63151,12.78642 -8.13317,24.86332 -16.26686,35.708 -3.55797,4.74386 -10.77352,12.15303 -15.36621,15.77853 -13.74237,10.84834 -29.80876,17.28683 -47.39307,18.99244 -3.7407,0.36283 -12.10204,0.35171 -16.22431,-0.0216 z"
       id="path4015"
       transform="scale(0.26458333)" />
    <path
       style="font-variation-settings:normal;opacity:1;fill:#5c9df2;fill-opacity:1;stroke:none;stroke-width:0.52583;stroke-linecap:square;stroke-linejoin:round;stroke-miterlimit:10;stroke-dasharray:none;stroke-dashoffset:0;stroke-opacity:1;stop-color:#000000;stop-opacity:1"
       d="m 520.17396,458.13609 c -13.90978,-10.50241 -24.51241,-25.06251 -30.25822,-41.55221 -1.34502,-3.86005 -3.16887,-10.69834 -3.57412,-13.40071 -0.18869,-1.25829 0.43573,-3.01466 9.97524,-28.05815 5.5971,-14.69371 10.2295,-26.85711 10.29423,-27.02978 0.0694,-0.18501 2.34178,-0.46644 5.53333,-0.68529 2.9786,-0.20424 6.39683,-0.45144 7.59605,-0.54932 l 2.18042,-0.17797 -2.14051,3.24148 c -4.25609,6.4452 -7.86124,15.07722 -9.61027,23.01043 -3.44994,15.64818 -2.66905,32.69501 2.08169,45.4431 2.86767,7.69511 6.6849,13.83201 11.67446,18.76883 3.91176,3.87043 6.99559,5.90056 11.30442,7.44187 l 2.59224,0.92726 -1.49897,5.01397 -1.49898,5.01396 -5.66644,2.39529 c -3.11654,1.31742 -5.758,2.3953 -5.86991,2.3953 -0.11191,0 -1.5135,-0.98913 -3.11466,-2.19806 z"
       id="path4017"
       transform="scale(0.26458333)" />
    <path
       style="font-variation-settings:normal;opacity:1;fill:#94bdf2;fill-opacity:1;stroke:none;stroke-width:1.05166;stroke-linecap:square;stroke-linejoin:round;stroke-miterlimit:10;stroke-dasharray:none;stroke-dashoffset:0;stroke-opacity:1;stop-color:#000000;stop-opacity:1"
       d="m 485.20887,391.68358 c -0.47808,-5.49952 0.44748,-16.2754 2.00465,-23.33907 7.53201,-34.16711 34.44762,-60.41435 69.58716,-67.8592 5.02937,-1.06554 8.20748,-1.32525 16.35026,-1.33609 11.29936,-0.0151 17.5563,0.87916 27.01267,3.8605 6.15055,1.9391 20.43349,8.62675 20.1382,9.42924 -0.0996,0.27057 -5.12301,4.91357 -11.1632,10.31776 l -10.98217,9.82581 -8.34087,-4.36554 c -19.23501,-10.06745 -36.14335,-18.75115 -36.51101,-18.75115 -0.21667,0 -2.54868,4.59741 -5.18224,10.21648 l -4.7883,10.21648 -5.27385,2.71373 c -3.70416,1.90602 -6.69924,4.06057 -10.06285,7.23885 l -4.78899,4.52512 -5.64827,0.39386 c -10.68501,0.74508 -13.08021,1.07919 -13.08021,1.8246 0,0.64546 -18.30523,49.13374 -18.70521,49.54778 -0.0899,0.0931 -0.34448,-1.91358 -0.56577,-4.45916 z"
       id="path4023"
       transform="scale(0.26458333)" />
    <path
       id="path3880-7"
       style="fill:none;stroke:#000000;stroke-width:0.558526;stroke-linecap:square;stroke-linejoin:round;stroke-miterlimit:10;stop-color:#000000"
       d="m 38.11236,39.578362 q 2.98563,-0.628554 6.3484,-1.50853 l 0.28284,0.219993 q -0.81711,2.545646 -1.66567,4.777015 -0.81711,2.19994 -1.75995,4.337025 -0.9114,2.105657 -1.94851,4.274163 -1.00569,2.13709 -2.23137,4.49417 1.16282,4.87129 3.61418,7.16551 2.45137,2.29423 6.44269,2.41995 l 0.15714,1.44567 q -2.29422,0.65998 -4.3056,0.97426 -2.01137,0.31427 -3.33133,0.31427 -1.66567,0 -2.85994,-1.97994 -1.16281,-1.97994 -2.1685,-6.09698 -5.37415,8.3912 -11.34541,8.3912 -4.68274,0 -7.38551,-4.11703 -2.70279,-4.11704 -2.70279,-9.74259 0,-7.134093 3.58276,-12.00539 3.61419,-4.871296 9.23976,-4.871296 7.19694,0 9.42831,11.376835 h 0.0629 q 0.84855,-2.702784 1.41425,-4.997008 0.5657,-2.325651 1.1314,-4.871297 z m -4.58844,15.211006 q -1.19426,-6.662665 -3.17421,-9.962577 -1.94851,-3.331338 -4.55702,-3.331338 -3.20563,0 -4.99701,3.331338 -1.79138,3.331339 -1.79138,8.579767 0,5.27985 1.60282,8.20263 1.63424,2.89135 4.46274,2.89135 2.13707,0 4.24273,-2.41993 2.10566,-2.45136 4.21133,-7.29124 z" />
    <path
       style="fill:none;stroke:#000000;stroke-width:0.468236;stroke-linecap:square;stroke-linejoin:round;stroke-miterlimit:10;stop-color:#000000"
       d="M 54.05113,53.437988 A 23.748562,23.748562 0 0 1 30.30256,77.186548 23.748562,23.748562 0 0 1 6.554,53.437988 23.748562,23.748562 0 0 1 30.30256,29.689425 23.748562,23.748562 0 0 1 54.05113,53.437988 Z"
       id="path1889-9" />
    <path
       style="font-variation-settings:normal;fill:none;fill-opacity:1;stroke:#000000;stroke-width:0.468;stroke-linecap:square;stroke-linejoin:round;stroke-miterlimit:10;stroke-dasharray:none;stroke-dashoffset:0;stroke-opacity:1;stop-color:#000000"
       d="M 4.44921,63.547468 C 7.09725,56.599639 9.74529,49.651809 12.39333,42.70398 m 0,0 c 2.80535,-0.209745 5.6107,-0.41949 8.41605,-0.629235 m 0,0 c 1.400553,-2.962659 2.801107,-5.925318 4.20166,-8.887977 m 0,0 c 3.947963,2.045021 7.895927,4.090043 11.84389,6.135064 m 0,0 c 3.460807,-3.112453 6.921613,-6.224905 10.38242,-9.337358"
       id="path2288-3"
       inkscape:original-d="M 4.44921,63.547468 12.39333,42.70398 m 0,0 8.41605,-0.629235 m 0,0 4.20166,-8.887977 m 0,0 11.84389,6.135064 m 0,0 10.38242,-9.337358"
       inkscape:path-effect="#path-effect2290-9"
       sodipodi:nodetypes="cccccccccc" />
    <path
       style="font-variation-settings:normal;fill:none;fill-opacity:1;stroke:#000000;stroke-width:0.468;stroke-linecap:square;stroke-linejoin:round;stroke-miterlimit:10;stroke-dasharray:none;stroke-dashoffset:0;stroke-opacity:1;stop-color:#000000"
       d="m 8.93253,76.468248 c 3.775423,-1.599313 7.550847,-3.198627 11.32627,-4.79794 m 0,0 c 1.1536,-3.880293 2.3072,-7.760587 3.4608,-11.64088 m 0,0 c -0.235963,-3.015097 -0.471927,-6.030193 -0.70789,-9.04529 m 0,0 c 4.247353,-3.09375 8.494707,-6.187501 12.74206,-9.281251 m 0,0 c 4.378443,0.2884 8.756887,0.576801 13.13533,0.865201 m 0,0 c 2.64804,-3.880297 5.29608,-7.760593 7.94412,-11.64089"
       id="path2292-5"
       inkscape:original-d="m 8.93253,76.468248 11.32627,-4.79794 m 0,0 3.4608,-11.64088 m 0,0 -0.70789,-9.04529 m 0,0 12.74206,-9.281251 m 0,0 13.13533,0.865201 m 0,0 7.94412,-11.64089"
       inkscape:path-effect="#path-effect2294-5" />
    <path
       style="font-variation-settings:normal;fill:none;fill-opacity:1;stroke:#000000;stroke-width:0.468;stroke-linecap:square;stroke-linejoin:round;stroke-miterlimit:10;stroke-dasharray:none;stroke-dashoffset:0;stroke-opacity:1;stop-color:#000000"
       d="m 25.2927,82.581888 c 0.838983,-3.53946 1.677967,-7.07892 2.51695,-10.61838 m 0,0 c 3.82786,-0.681673 7.65572,-1.363347 11.48358,-2.04502 m 0,0 c 2.07124,-4.168697 4.14248,-8.337393 6.21372,-12.50609 m 0,0 c 6.528337,-1.966367 13.056673,-3.932733 19.58501,-5.8991"
       id="path2296-0"
       inkscape:original-d="m 25.2927,82.581888 2.51695,-10.61838 m 0,0 11.48358,-2.04502 m 0,0 6.21372,-12.50609 m 0,0 19.58501,-5.8991"
       inkscape:path-effect="#path-effect2298-3" />
    <path
       style="font-variation-settings:normal;fill:#d7e7fd;fill-opacity:1;stroke:none;stroke-width:0.139126;stroke-linecap:square;stroke-linejoin:round;stroke-miterlimit:10;stroke-dasharray:none;stroke-dashoffset:0;stroke-opacity:1;stop-color:#000000"
       d="m 33.276032,42.135297 c -1.36185,-2.300692 -3.199691,-3.717581 -5.466387,-4.214328 -1.124423,-0.246419 -3.304788,-0.164444 -4.657703,0.175117 -0.152943,0.03839 -0.05319,-0.213693 0.771612,-1.949981 0.520994,-1.096735 1.00679,-2.126536 1.079548,-2.288445 l 0.132283,-0.294381 5.78112,2.996253 c 3.179614,1.647939 5.792914,3.028069 5.807334,3.066957 0.03932,0.106029 0.232521,0.0851 0.304157,-0.03295 0.03459,-0.05701 1.319408,-1.230162 2.85514,-2.607003 1.535731,-1.376841 2.93461,-2.639258 3.108613,-2.805369 l 0.316376,-0.302022 0.981427,0.731957 c 1.246457,0.929618 2.483088,2.048036 3.392185,3.06792 0.793981,0.890744 2.190541,2.709738 2.190541,2.853145 0,0.07369 -0.900615,1.471877 -1.093504,1.697646 -0.02585,0.03025 -1.055735,-0.01339 -2.288648,-0.097 -1.232911,-0.08359 -2.334067,-0.152588 -2.447015,-0.153315 l -0.205359,-0.0013 0.618297,-1.816624 c 0.340061,-0.999141 0.618294,-1.864508 0.618294,-1.923034 0,-0.05853 -0.120058,-0.197988 -0.266793,-0.309909 L 44.540758,37.72514 42.97883,38.117051 c -1.255933,0.315132 -5.004462,1.186889 -5.103593,1.186889 -0.02381,0 -0.262784,0.985782 -0.436449,1.800458 l -0.09038,0.424005 -0.718664,-0.05815 c -0.984298,-0.07964 -1.069475,-0.07544 -1.17607,0.05799 -0.07892,0.09878 -1.409518,1.098407 -1.674495,1.25798 -0.0524,0.03156 -0.252074,-0.226756 -0.503143,-0.650907 z"
       id="path4003-9" />
    <path
       style="font-variation-settings:normal;fill:#0d65d9;fill-opacity:1;stroke:none;stroke-width:0.139126;stroke-linecap:square;stroke-linejoin:round;stroke-miterlimit:10;stroke-dasharray:none;stroke-dashoffset:0;stroke-opacity:1;stop-color:#000000"
       d="m 35.408614,47.54454 c -0.284221,-1.112825 -0.773459,-2.597822 -1.116217,-3.388088 -0.169597,-0.39103 -0.308361,-0.733547 -0.308361,-0.761145 0,-0.0276 0.424133,-0.359643 0.942515,-0.73787 l 0.942514,-0.687684 0.669907,0.05436 c 0.368448,0.02989 0.669904,0.06413 0.669904,0.07608 0,0.01196 -0.174244,0.741519 -0.38721,1.621269 -0.323802,1.33759 -0.548172,2.172099 -1.175933,4.373663 -0.03799,0.13322 -0.09815,-0.0065 -0.237119,-0.550582 z"
       id="path4005-1" />
    <path
       style="font-variation-settings:normal;fill:#94bdf2;fill-opacity:1;stroke:none;stroke-width:0.278252;stroke-linecap:square;stroke-linejoin:round;stroke-miterlimit:10;stroke-dasharray:none;stroke-dashoffset:0;stroke-opacity:1;stop-color:#000000"
       d="m 24.04958,64.072571 c -0.450985,-0.106122 -1.077317,-0.393433 -1.076277,-0.493713 5.29e-4,-0.04875 0.216231,-0.796523 0.479391,-1.661723 0.550582,-1.810174 0.617418,-2.061567 0.562657,-2.116328 -0.06746,-0.06746 -0.723294,-8.656106 -0.665051,-8.709406 0.186732,-0.170889 7.12334,-5.180491 7.17323,-5.180491 0.104563,0 0.786008,1.632211 1.186278,2.841386 0.459925,1.389399 0.827283,2.795712 1.205798,4.616003 l 0.283144,1.361652 -0.518199,1.128617 c -1.389261,3.025764 -2.926866,5.403054 -4.377981,6.76879 -1.160407,1.092132 -2.109767,1.531821 -3.285165,1.521503 -0.36771,-0.0032 -0.803233,-0.03756 -0.967825,-0.07629 z"
       id="path4007-8" />
    <path
       style="font-variation-settings:normal;fill:#0d65d9;fill-opacity:1;stroke:none;stroke-width:0.139126;stroke-linecap:square;stroke-linejoin:round;stroke-miterlimit:10;stroke-dasharray:none;stroke-dashoffset:0;stroke-opacity:1;stop-color:#000000"
       d="m 21.929326,62.834638 c -1.269066,-1.330483 -2.0506,-3.31938 -2.431317,-6.187366 -0.1407,-1.059902 -0.142092,-5.402569 -0.0021,-6.371029 0.466707,-3.227355 1.475542,-5.676468 2.904323,-7.050719 0.605333,-0.582227 1.071933,-0.876607 1.821167,-1.148977 0.634103,-0.230518 1.680276,-0.31522 2.286789,-0.185145 1.245505,0.267113 2.440506,1.282763 3.448174,2.930655 l 0.320154,0.523568 -3.681704,2.68161 c -2.024938,1.474885 -3.717684,2.68161 -3.76166,2.68161 -0.09819,0 -0.191807,0.224504 -0.133176,0.319371 0.02352,0.03807 0.201248,2.061215 0.394936,4.495882 l 0.352163,4.426669 -0.492419,1.671413 c -0.27083,0.919276 -0.513839,1.67141 -0.54002,1.67141 -0.02617,0 -0.244594,-0.206529 -0.485364,-0.458952 z"
       id="path4009-9" />
    <path
       style="font-variation-settings:normal;fill:#5c9df2;fill-opacity:1;stroke:none;stroke-width:0.139126;stroke-linecap:square;stroke-linejoin:round;stroke-miterlimit:10;stroke-dasharray:none;stroke-dashoffset:0;stroke-opacity:1;stop-color:#000000"
       d="m 41.494596,63.539517 c -1.507016,-1.20342 -2.666275,-3.052357 -3.500538,-5.583113 -0.60094,-1.822966 -0.68853,-1.361276 0.852686,-4.494646 1.881714,-3.825618 3.298442,-7.013961 4.306787,-9.692415 l 0.465701,-1.237038 0.314619,-0.0016 c 0.51276,-0.0027 4.84242,0.306613 4.91431,0.351044 0.088,0.05439 0.316225,-0.03659 0.316225,-0.126058 0,-0.03899 0.23767,-0.427863 0.528158,-0.864158 0.620178,-0.931471 0.514641,-0.965491 1.257692,0.405402 1.427231,2.633179 2.370701,5.678276 2.69158,8.687237 0.118591,1.112049 0.178525,2.954821 0.10837,3.332014 l -0.06382,0.343141 -4.011054,1.208863 c -2.206082,0.664874 -4.088606,1.209503 -4.183388,1.210288 -0.163819,0.0013 -0.278595,0.10413 -0.309051,0.27672 -0.0076,0.04326 -0.734219,1.537404 -1.614633,3.320317 l -1.600753,3.241659 z"
       id="path4011-1" />
    <path
       style="font-variation-settings:normal;fill:#d7e7fd;fill-opacity:1;stroke:none;stroke-width:0.139126;stroke-linecap:square;stroke-linejoin:round;stroke-miterlimit:10;stroke-dasharray:none;stroke-dashoffset:0;stroke-opacity:1;stop-color:#000000"
       d="m 25.489332,76.415002 c -0.992373,-0.211317 -2.404393,-0.620596 -3.356441,-0.972878 -1.399061,-0.517689 -4.51163,-2.107322 -4.508034,-2.302317 0.0011,-0.06092 2.558214,-1.154877 2.699491,-1.154877 0.133627,0 0.27705,-0.154702 0.262043,-0.282649 -0.0071,-0.06084 0.16333,-0.7063 0.378812,-1.434349 l 0.391784,-1.323726 0.237453,0.0436 c 0.600887,0.110345 2.246585,0.141515 2.894468,0.05483 3.311453,-0.443087 6.42012,-2.730275 9.454462,-6.956087 l 0.612566,-0.853093 0.335602,1.167712 c 0.985605,3.429355 2.074881,5.36344 3.39842,6.034127 0.216744,0.109831 0.566542,0.241914 0.777327,0.293513 0.210788,0.0516 0.394478,0.102775 0.408202,0.113721 0.01373,0.01095 -0.06621,0.199792 -0.177623,0.419661 -0.130431,0.257394 -0.265364,0.41416 -0.378896,0.440195 -0.426241,0.09775 -10.824184,1.929712 -11.06243,1.949032 l -0.265126,0.02151 -0.538155,2.279685 c -0.295986,1.253826 -0.55726,2.359321 -0.580612,2.456656 -0.05012,0.208923 -0.02972,0.208801 -0.983313,0.0057 z"
       id="path4013-4" />
    <path
       style="font-variation-settings:normal;fill:#0d65d9;fill-opacity:1;stroke:none;stroke-width:0.139126;stroke-linecap:square;stroke-linejoin:round;stroke-miterlimit:10;stroke-dasharray:none;stroke-dashoffset:0;stroke-opacity:1;stop-color:#000000"
       d="m 28.084937,76.811795 c -1.003724,-0.09089 -1.118987,-0.121811 -1.070573,-0.287179 0.02175,-0.07426 0.258794,-1.072983 0.526785,-2.219372 0.267991,-1.146392 0.491127,-2.089245 0.495858,-2.09523 0.02927,-0.03702 11.221286,-1.995422 11.301442,-1.977549 0.05645,0.01259 0.250012,-0.28674 0.450773,-0.697106 l 0.351835,-0.719166 0.677249,-0.05264 c 0.889362,-0.06912 2.680186,-0.325008 3.666127,-0.523837 1.2387,-0.249807 2.97846,-0.709658 3.095106,-0.818097 0.08747,-0.08132 0.0903,-0.249614 0.01603,-0.953236 -0.104042,-0.985538 -0.150513,-1.050962 -0.746858,-1.051436 -1.179367,-0.0011 -3.524927,-0.637841 -4.27329,-1.160354 -0.07543,-0.05266 0.294706,-0.873283 1.507577,-3.34247 1.547818,-3.15109 1.617281,-3.275439 1.869694,-3.347067 0.144185,-0.04091 1.936152,-0.578601 3.982154,-1.194858 2.045999,-0.61626 3.731955,-1.107329 3.746574,-1.091263 0.05678,0.0624 -0.200414,1.944528 -0.394793,2.889009 -0.696254,3.383073 -2.151901,6.57842 -4.30394,9.447741 -0.94138,1.255147 -2.850494,3.21549 -4.065643,4.174736 -3.636002,2.87029 -7.886901,4.573807 -12.539416,5.025083 -0.989727,0.096 -3.201998,0.09306 -4.292682,-0.0057 z"
       id="path4015-3" />
    <path
       style="font-variation-settings:normal;fill:#5c9df2;fill-opacity:1;stroke:none;stroke-width:0.139126;stroke-linecap:square;stroke-linejoin:round;stroke-miterlimit:10;stroke-dasharray:none;stroke-dashoffset:0;stroke-opacity:1;stop-color:#000000"
       d="M 16.152459,72.15058 C 12.472163,69.371818 9.6668835,65.519458 8.1466379,61.156558 7.790768,60.135253 7.3082077,58.325956 7.2009853,57.610954 c -0.049924,-0.332923 0.1152869,-0.797629 2.6392823,-7.423719 1.4808994,-3.887711 2.7065554,-7.105944 2.7236814,-7.151629 0.01836,-0.04895 0.619596,-0.123412 1.464027,-0.181317 0.788088,-0.05404 1.692495,-0.119443 2.009788,-0.14534 l 0.576903,-0.04709 -0.566343,0.857641 c -1.126091,1.705293 -2.079953,3.989181 -2.542717,6.088176 -0.912797,4.140248 -0.706187,8.650555 0.55078,12.023487 0.758738,2.035998 1.768713,3.659719 3.088868,4.96592 1.034986,1.024051 1.850916,1.561189 2.990961,1.968994 l 0.685863,0.245338 -0.396602,1.326613 -0.396605,1.32661 -1.499246,0.633754 c -0.824585,0.348567 -1.523471,0.633756 -1.55308,0.633756 -0.02961,0 -0.400447,-0.261707 -0.824087,-0.58157 z"
       id="path4017-1" />
    <path
       style="font-variation-settings:normal;fill:#94bdf2;fill-opacity:1;stroke:none;stroke-width:0.278252;stroke-linecap:square;stroke-linejoin:round;stroke-miterlimit:10;stroke-dasharray:none;stroke-dashoffset:0;stroke-opacity:1;stop-color:#000000"
       d="m 6.9012786,54.568354 c -0.126492,-1.455081 0.1183957,-4.3062 0.5303969,-6.175129 1.9928443,-9.040048 9.1142665,-15.98463 18.4116025,-17.954413 1.330688,-0.281924 2.171562,-0.350639 4.326006,-0.353507 2.989623,-0.004 4.645105,0.232611 7.147102,1.021424 1.627333,0.513053 5.406361,2.282494 5.328232,2.494819 -0.02635,0.07159 -1.355463,1.300049 -2.953596,2.729908 l -2.905699,2.599745 -2.206855,-1.155049 C 29.489205,35.112473 25.01554,32.81491 24.918263,32.81491 c -0.05733,0 -0.674338,1.216399 -1.371134,2.703111 l -1.266905,2.70311 -1.395372,0.718008 c -0.980059,0.504301 -1.772508,1.074359 -2.662463,1.915279 l -1.267087,1.197271 -1.494438,0.104209 c -2.827075,0.197136 -3.460805,0.285536 -3.460805,0.482759 0,0.170778 -4.8432591,12.999968 -4.9490871,13.109516 -0.023786,0.02463 -0.091144,-0.506301 -0.1496933,-1.179819 z"
       id="path4023-7" />
    <text
       xml:space="preserve"
       style="font-style:normal;font-variant:normal;font-weight:normal;font-stretch:normal;font-size:8.20181px;font-family:Constantia;-inkscape-font-specification:Constantia;font-variation-settings:normal;opacity:1;fill:#0d65d9;fill-opacity:1;stroke:none;stroke-width:0.139126;stroke-linecap:square;stroke-linejoin:round;stroke-miterlimit:10;stroke-dasharray:none;stroke-dashoffset:0;stroke-opacity:1;stop-color:#000000;stop-opacity:1"
       x="124.03429"
       y="134.06392"
       id="text8631"><tspan
         sodipodi:role="line"
         id="tspan8629"
         style="font-style:normal;font-variant:normal;font-weight:bold;font-stretch:normal;font-family:'Century Gothic';-inkscape-font-specification:'Century Gothic Bold';fill:#0d65d9;fill-opacity:1;stroke:none;stroke-width:0.139126;stroke-linecap:square;stroke-linejoin:round;stroke-miterlimit:10;stroke-dasharray:none;stroke-dashoffset:0;stroke-opacity:1;stop-color:#000000;stop-opacity:1"
         x="124.03429"
         y="134.06392">andi_datasets</tspan></text>
  </g>
</svg>
