<?xml version="1.0" encoding="utf-8" standalone="no"?>
<!DOCTYPE svg PUBLIC "-//W3C//DTD SVG 1.1//EN"
  "http://www.w3.org/Graphics/SVG/1.1/DTD/svg11.dtd">
<!-- Created with matplotlib (https://matplotlib.org/) -->
<svg height="288pt" version="1.1" viewBox="0 0 432 288" width="432pt" xmlns="http://www.w3.org/2000/svg" xmlns:xlink="http://www.w3.org/1999/xlink">
 <metadata>
  <rdf:RDF xmlns:cc="http://creativecommons.org/ns#" xmlns:dc="http://purl.org/dc/elements/1.1/" xmlns:rdf="http://www.w3.org/1999/02/22-rdf-syntax-ns#">
   <cc:Work>
    <dc:type rdf:resource="http://purl.org/dc/dcmitype/StillImage"/>
    <dc:date>2022-05-24T14:21:33.476290</dc:date>
    <dc:format>image/svg+xml</dc:format>
    <dc:creator>
     <cc:Agent>
      <dc:title>Matplotlib v3.3.4, https://matplotlib.org/</dc:title>
     </cc:Agent>
    </dc:creator>
   </cc:Work>
  </rdf:RDF>
 </metadata>
 <defs>
  <style type="text/css">*{stroke-linecap:butt;stroke-linejoin:round;}</style>
 </defs>
 <g id="figure_1">
  <g id="patch_1">
   <path d="M 0 288 
L 432 288 
L 432 0 
L 0 0 
z
" style="fill:none;"/>
  </g>
  <g id="axes_1">
   <g id="patch_2">
    <path d="M 54 252 
L 388.8 252 
L 388.8 34.56 
L 54 34.56 
z
" style="fill:#ffffff;"/>
   </g>
   <g id="line2d_1">
    <path clip-path="url(#p273d968e90)" d="M 82.983371 242.049998 
L 84.219303 242.024972 
L 85.455235 241.991329 
L 86.691167 241.946415 
L 87.927098 241.88687 
L 89.16303 241.80848 
L 90.398962 241.706002 
L 91.634893 241.572974 
L 92.870825 241.401505 
L 94.106757 241.18205 
L 95.342689 240.903172 
L 96.57862 240.551306 
L 97.814552 240.110528 
L 99.050484 239.562343 
L 100.286416 238.885509 
L 101.522347 238.055909 
L 102.758279 237.046504 
L 103.994211 235.827368 
L 105.230142 234.365846 
L 106.466074 232.626845 
L 107.702006 230.573282 
L 108.937938 228.166709 
L 110.173869 225.368123 
L 111.409801 222.138961 
L 112.645733 218.442294 
L 113.881665 214.244185 
L 115.117596 209.515209 
L 116.353528 204.232076 
L 117.58946 198.379327 
L 118.825391 191.951035 
L 120.061323 184.952437 
L 121.297255 177.401428 
L 122.533187 169.329824 
L 123.769118 160.784316 
L 125.00505 151.827037 
L 126.240982 142.535656 
L 127.476913 133.002965 
L 128.712845 123.335895 
L 129.948777 113.653953 
L 131.184709 104.087096 
L 132.42064 94.773069 
L 133.656572 85.854265 
L 134.892504 77.474221 
L 136.128436 69.773841 
L 137.364367 62.887496 
L 138.600299 56.939144 
L 139.836231 52.038633 
L 141.072162 48.27833 
L 142.308094 45.730223 
L 143.544026 44.443636 
L 144.779958 44.443636 
L 146.015889 45.730223 
L 147.251821 48.27833 
L 148.487753 52.038633 
L 149.723685 56.939144 
L 150.959616 62.887496 
L 152.195548 69.773841 
L 153.43148 77.474221 
L 154.667411 85.854265 
L 155.903343 94.773069 
L 157.139275 104.087096 
L 158.375207 113.653953 
L 159.611138 123.335895 
L 160.84707 133.002965 
L 162.083002 142.535656 
L 163.318934 151.827037 
L 164.554865 160.784316 
L 165.790797 169.329824 
L 167.026729 177.401428 
L 168.26266 184.952437 
L 169.498592 191.951035 
L 170.734524 198.379327 
L 171.970456 204.232076 
L 173.206387 209.515209 
L 174.442319 214.244185 
L 175.678251 218.442294 
L 176.914182 222.138961 
L 178.150114 225.368123 
L 179.386046 228.166709 
L 180.621978 230.573282 
L 181.857909 232.626845 
L 183.093841 234.365846 
L 184.329773 235.827368 
L 185.565705 237.046504 
L 186.801636 238.055909 
L 188.037568 238.885509 
L 189.2735 239.562343 
L 190.509431 240.110528 
L 191.745363 240.551306 
L 192.981295 240.903172 
L 194.217227 241.18205 
L 195.453158 241.401505 
L 196.68909 241.572974 
L 197.925022 241.706002 
L 199.160954 241.80848 
L 200.396885 241.88687 
L 201.632817 241.946415 
L 202.868749 241.991329 
L 204.10468 242.024972 
L 205.340612 242.049998 
" style="fill:none;stroke:#2790db;stroke-linecap:square;stroke-width:0.5;"/>
   </g>
   <g id="line2d_2">
    <path clip-path="url(#p273d968e90)" d="M 151.809319 242.089817 
L 153.045251 242.079807 
L 154.281183 242.06635 
L 155.517114 242.048384 
L 156.753046 242.024566 
L 157.988978 241.99321 
L 159.22491 241.952219 
L 160.460841 241.899008 
L 161.696773 241.83042 
L 162.932705 241.742638 
L 164.168637 241.631087 
L 165.404568 241.490341 
L 166.6405 241.31403 
L 167.876432 241.094756 
L 169.112363 240.824022 
L 170.348295 240.492182 
L 171.584227 240.08842 
L 172.820159 239.600766 
L 174.05609 239.016158 
L 175.292022 238.320557 
L 176.527954 237.499132 
L 177.763886 236.536504 
L 178.999817 235.417069 
L 180.235749 234.125405 
L 181.471681 232.646738 
L 182.707612 230.967496 
L 183.943544 229.075906 
L 185.179476 226.962653 
L 186.415408 224.621554 
L 187.651339 222.050238 
L 188.887271 219.2508 
L 190.123203 216.230397 
L 191.359135 213.001756 
L 192.595066 209.583554 
L 193.830998 206.000643 
L 195.06693 202.284092 
L 196.302861 198.471017 
L 197.538793 194.60419 
L 198.774725 190.731414 
L 200.010657 186.904673 
L 201.246588 183.179063 
L 202.48252 179.611542 
L 203.718452 176.259526 
L 204.954383 173.179374 
L 206.190315 170.424837 
L 207.426247 168.045497 
L 208.662179 166.085293 
L 209.89811 164.581172 
L 211.134042 163.56193 
L 212.369974 163.047295 
L 213.605906 163.047295 
L 214.841837 163.56193 
L 216.077769 164.581172 
L 217.313701 166.085293 
L 218.549632 168.045497 
L 219.785564 170.424837 
L 221.021496 173.179374 
L 222.257428 176.259526 
L 223.493359 179.611542 
L 224.729291 183.179063 
L 225.965223 186.904673 
L 227.201155 190.731414 
L 228.437086 194.60419 
L 229.673018 198.471017 
L 230.90895 202.284092 
L 232.144881 206.000643 
L 233.380813 209.583554 
L 234.616745 213.001756 
L 235.852677 216.230397 
L 237.088608 219.2508 
L 238.32454 222.050238 
L 239.560472 224.621554 
L 240.796404 226.962653 
L 242.032335 229.075906 
L 243.268267 230.967496 
L 244.504199 232.646738 
L 245.74013 234.125405 
L 246.976062 235.417069 
L 248.211994 236.536504 
L 249.447926 237.499132 
L 250.683857 238.320557 
L 251.919789 239.016158 
L 253.155721 239.600766 
L 254.391652 240.08842 
L 255.627584 240.492182 
L 256.863516 240.824022 
L 258.099448 241.094756 
L 259.335379 241.31403 
L 260.571311 241.490341 
L 261.807243 241.631087 
L 263.043175 241.742638 
L 264.279106 241.83042 
L 265.515038 241.899008 
L 266.75097 241.952219 
L 267.986901 241.99321 
L 269.222833 242.024566 
L 270.458765 242.048384 
L 271.694697 242.06635 
L 272.930628 242.079807 
L 274.16656 242.089817 
" style="fill:none;stroke:#81688c;stroke-linecap:square;stroke-width:0.5;"/>
   </g>
   <g id="line2d_3">
    <path clip-path="url(#p273d968e90)" d="M 264.120201 242.083454 
L 265.225874 242.07604 
L 266.331547 242.067086 
L 267.43722 242.056299 
L 268.542892 242.043343 
L 269.648565 242.027824 
L 270.754238 242.009286 
L 271.859911 241.987205 
L 272.965584 241.960977 
L 274.071257 241.929911 
L 275.17693 241.893218 
L 276.282603 241.850001 
L 277.388276 241.799244 
L 278.493949 241.7398 
L 279.599622 241.67038 
L 280.705294 241.589541 
L 281.810967 241.495673 
L 282.91664 241.386987 
L 284.022313 241.261508 
L 285.127986 241.117056 
L 286.233659 240.951243 
L 287.339332 240.761462 
L 288.445005 240.544881 
L 289.550678 240.298435 
L 290.656351 240.018829 
L 291.762023 239.702534 
L 292.867696 239.345792 
L 293.973369 238.944626 
L 295.079042 238.494849 
L 296.184715 237.992081 
L 297.290388 237.431771 
L 298.396061 236.809225 
L 299.501734 236.119639 
L 300.607407 235.358132 
L 301.71308 234.5198 
L 302.818752 233.59976 
L 303.924425 232.593208 
L 305.030098 231.495484 
L 306.135771 230.302137 
L 307.241444 229.009002 
L 308.347117 227.612275 
L 309.45279 226.108596 
L 310.558463 224.495131 
L 311.664136 222.769661 
L 312.769809 220.930664 
L 313.875481 218.977402 
L 314.981154 216.910007 
L 316.086827 214.729553 
L 317.1925 212.438131 
L 318.298173 210.038918 
L 319.403846 207.536228 
L 320.509519 204.935558 
L 321.615192 202.243625 
L 322.720865 199.468378 
L 323.826538 196.619009 
L 324.93221 193.705932 
L 326.037883 190.74076 
L 327.143556 187.736252 
L 328.249229 184.706247 
L 329.354902 181.66558 
L 330.460575 178.629975 
L 331.566248 175.615928 
L 332.671921 172.640568 
L 333.777594 169.721501 
L 334.883267 166.876648 
L 335.98894 164.124066 
L 337.094612 161.481759 
L 338.200285 158.967487 
L 339.305958 156.59857 
L 340.411631 154.39169 
L 341.517304 152.362694 
L 342.622977 150.526408 
L 343.72865 148.896459 
L 344.834323 147.4851 
L 345.939996 146.303064 
L 347.045669 145.359421 
L 348.151341 144.661471 
L 349.257014 144.21464 
L 350.362687 144.022418 
L 351.46836 144.086308 
L 352.574033 144.405811 
L 353.679706 144.978429 
L 354.785379 145.799698 
L 355.891052 146.863248 
L 356.996725 148.160884 
L 358.102398 149.682689 
L 359.20807 151.417155 
L 360.313743 153.351323 
L 361.419416 155.470948 
L 362.525089 157.76067 
L 363.630762 160.204202 
L 364.736435 162.78452 
L 365.842108 165.484059 
L 366.947781 168.284913 
L 368.053454 171.169027 
L 369.159127 174.118391 
L 370.264799 177.115218 
L 371.370472 180.14212 
L 372.476145 183.182267 
L 373.581818 186.21953 
" style="fill:none;stroke:#db403d;stroke-linecap:square;stroke-width:0.5;"/>
   </g>
   <g id="PolyCollection_1">
    <defs>
     <path d="M 82.983371 -45.950002 
L 82.983371 -45.883636 
L 84.219303 -45.883636 
L 85.455235 -45.883636 
L 86.691167 -45.883636 
L 87.927098 -45.883636 
L 89.16303 -45.883636 
L 90.398962 -45.883636 
L 91.634893 -45.883636 
L 92.870825 -45.883636 
L 94.106757 -45.883636 
L 95.342689 -45.883636 
L 96.57862 -45.883636 
L 97.814552 -45.883636 
L 99.050484 -45.883636 
L 100.286416 -45.883636 
L 101.522347 -45.883636 
L 102.758279 -45.883636 
L 103.994211 -45.883636 
L 105.230142 -45.883636 
L 106.466074 -45.883636 
L 107.702006 -45.883636 
L 108.937938 -45.883636 
L 110.173869 -45.883636 
L 111.409801 -45.883636 
L 112.645733 -45.883636 
L 113.881665 -45.883636 
L 115.117596 -45.883636 
L 116.353528 -45.883636 
L 117.58946 -45.883636 
L 118.825391 -45.883636 
L 120.061323 -45.883636 
L 121.297255 -45.883636 
L 122.533187 -45.883636 
L 123.769118 -45.883636 
L 125.00505 -45.883636 
L 126.240982 -45.883636 
L 127.476913 -45.883636 
L 128.712845 -45.883636 
L 129.948777 -45.883636 
L 131.184709 -45.883636 
L 132.42064 -45.883636 
L 133.656572 -45.883636 
L 134.892504 -45.883636 
L 136.128436 -45.883636 
L 137.364367 -45.883636 
L 138.600299 -45.883636 
L 139.836231 -45.883636 
L 141.072162 -45.883636 
L 142.308094 -45.883636 
L 143.544026 -45.883636 
L 144.779958 -45.883636 
L 146.015889 -45.883636 
L 147.251821 -45.883636 
L 148.487753 -45.883636 
L 149.723685 -45.883636 
L 150.959616 -45.883636 
L 152.195548 -45.883636 
L 153.43148 -45.883636 
L 154.667411 -45.883636 
L 155.903343 -45.883636 
L 157.139275 -45.883636 
L 158.375207 -45.883636 
L 159.611138 -45.883636 
L 160.84707 -45.883636 
L 162.083002 -45.883636 
L 163.318934 -45.883636 
L 164.554865 -45.883636 
L 165.790797 -45.883636 
L 167.026729 -45.883636 
L 168.26266 -45.883636 
L 169.498592 -45.883636 
L 170.734524 -45.883636 
L 171.970456 -45.883636 
L 173.206387 -45.883636 
L 174.442319 -45.883636 
L 175.678251 -45.883636 
L 176.914182 -45.883636 
L 178.150114 -45.883636 
L 179.386046 -45.883636 
L 180.621978 -45.883636 
L 181.857909 -45.883636 
L 183.093841 -45.883636 
L 184.329773 -45.883636 
L 185.565705 -45.883636 
L 186.801636 -45.883636 
L 188.037568 -45.883636 
L 189.2735 -45.883636 
L 190.509431 -45.883636 
L 191.745363 -45.883636 
L 192.981295 -45.883636 
L 194.217227 -45.883636 
L 195.453158 -45.883636 
L 196.68909 -45.883636 
L 197.925022 -45.883636 
L 199.160954 -45.883636 
L 200.396885 -45.883636 
L 201.632817 -45.883636 
L 202.868749 -45.883636 
L 204.10468 -45.883636 
L 205.340612 -45.883636 
L 205.340612 -45.950002 
L 205.340612 -45.950002 
L 204.10468 -45.975028 
L 202.868749 -46.008671 
L 201.632817 -46.053585 
L 200.396885 -46.11313 
L 199.160954 -46.19152 
L 197.925022 -46.293998 
L 196.68909 -46.427026 
L 195.453158 -46.598495 
L 194.217227 -46.81795 
L 192.981295 -47.096828 
L 191.745363 -47.448694 
L 190.509431 -47.889472 
L 189.2735 -48.437657 
L 188.037568 -49.114491 
L 186.801636 -49.944091 
L 185.565705 -50.953496 
L 184.329773 -52.172632 
L 183.093841 -53.634154 
L 181.857909 -55.373155 
L 180.621978 -57.426718 
L 179.386046 -59.833291 
L 178.150114 -62.631877 
L 176.914182 -65.861039 
L 175.678251 -69.557706 
L 174.442319 -73.755815 
L 173.206387 -78.484791 
L 171.970456 -83.767924 
L 170.734524 -89.620673 
L 169.498592 -96.048965 
L 168.26266 -103.047563 
L 167.026729 -110.598572 
L 165.790797 -118.670176 
L 164.554865 -127.215684 
L 163.318934 -136.172963 
L 162.083002 -145.464344 
L 160.84707 -154.997035 
L 159.611138 -164.664105 
L 158.375207 -174.346047 
L 157.139275 -183.912904 
L 155.903343 -193.226931 
L 154.667411 -202.145735 
L 153.43148 -210.525779 
L 152.195548 -218.226159 
L 150.959616 -225.112504 
L 149.723685 -231.060856 
L 148.487753 -235.961367 
L 147.251821 -239.72167 
L 146.015889 -242.269777 
L 144.779958 -243.556364 
L 143.544026 -243.556364 
L 142.308094 -242.269777 
L 141.072162 -239.72167 
L 139.836231 -235.961367 
L 138.600299 -231.060856 
L 137.364367 -225.112504 
L 136.128436 -218.226159 
L 134.892504 -210.525779 
L 133.656572 -202.145735 
L 132.42064 -193.226931 
L 131.184709 -183.912904 
L 129.948777 -174.346047 
L 128.712845 -164.664105 
L 127.476913 -154.997035 
L 126.240982 -145.464344 
L 125.00505 -136.172963 
L 123.769118 -127.215684 
L 122.533187 -118.670176 
L 121.297255 -110.598572 
L 120.061323 -103.047563 
L 118.825391 -96.048965 
L 117.58946 -89.620673 
L 116.353528 -83.767924 
L 115.117596 -78.484791 
L 113.881665 -73.755815 
L 112.645733 -69.557706 
L 111.409801 -65.861039 
L 110.173869 -62.631877 
L 108.937938 -59.833291 
L 107.702006 -57.426718 
L 106.466074 -55.373155 
L 105.230142 -53.634154 
L 103.994211 -52.172632 
L 102.758279 -50.953496 
L 101.522347 -49.944091 
L 100.286416 -49.114491 
L 99.050484 -48.437657 
L 97.814552 -47.889472 
L 96.57862 -47.448694 
L 95.342689 -47.096828 
L 94.106757 -46.81795 
L 92.870825 -46.598495 
L 91.634893 -46.427026 
L 90.398962 -46.293998 
L 89.16303 -46.19152 
L 87.927098 -46.11313 
L 86.691167 -46.053585 
L 85.455235 -46.008671 
L 84.219303 -45.975028 
L 82.983371 -45.950002 
z
" id="mf7db1f9365"/>
    </defs>
    <g clip-path="url(#p273d968e90)">
     <use style="fill:#2790db;fill-opacity:0.6;" x="0" xlink:href="#mf7db1f9365" y="288"/>
    </g>
   </g>
   <g id="PolyCollection_2">
    <defs>
     <path d="M 151.809319 -45.910183 
L 151.809319 -45.883636 
L 153.045251 -45.883636 
L 154.281183 -45.883636 
L 155.517114 -45.883636 
L 156.753046 -45.883636 
L 157.988978 -45.883636 
L 159.22491 -45.883636 
L 160.460841 -45.883636 
L 161.696773 -45.883636 
L 162.932705 -45.883636 
L 164.168637 -45.883636 
L 165.404568 -45.883636 
L 166.6405 -45.883636 
L 167.876432 -45.883636 
L 169.112363 -45.883636 
L 170.348295 -45.883636 
L 171.584227 -45.883636 
L 172.820159 -45.883636 
L 174.05609 -45.883636 
L 175.292022 -45.883636 
L 176.527954 -45.883636 
L 177.763886 -45.883636 
L 178.999817 -45.883636 
L 180.235749 -45.883636 
L 181.471681 -45.883636 
L 182.707612 -45.883636 
L 183.943544 -45.883636 
L 185.179476 -45.883636 
L 186.415408 -45.883636 
L 187.651339 -45.883636 
L 188.887271 -45.883636 
L 190.123203 -45.883636 
L 191.359135 -45.883636 
L 192.595066 -45.883636 
L 193.830998 -45.883636 
L 195.06693 -45.883636 
L 196.302861 -45.883636 
L 197.538793 -45.883636 
L 198.774725 -45.883636 
L 200.010657 -45.883636 
L 201.246588 -45.883636 
L 202.48252 -45.883636 
L 203.718452 -45.883636 
L 204.954383 -45.883636 
L 206.190315 -45.883636 
L 207.426247 -45.883636 
L 208.662179 -45.883636 
L 209.89811 -45.883636 
L 211.134042 -45.883636 
L 212.369974 -45.883636 
L 213.605906 -45.883636 
L 214.841837 -45.883636 
L 216.077769 -45.883636 
L 217.313701 -45.883636 
L 218.549632 -45.883636 
L 219.785564 -45.883636 
L 221.021496 -45.883636 
L 222.257428 -45.883636 
L 223.493359 -45.883636 
L 224.729291 -45.883636 
L 225.965223 -45.883636 
L 227.201155 -45.883636 
L 228.437086 -45.883636 
L 229.673018 -45.883636 
L 230.90895 -45.883636 
L 232.144881 -45.883636 
L 233.380813 -45.883636 
L 234.616745 -45.883636 
L 235.852677 -45.883636 
L 237.088608 -45.883636 
L 238.32454 -45.883636 
L 239.560472 -45.883636 
L 240.796404 -45.883636 
L 242.032335 -45.883636 
L 243.268267 -45.883636 
L 244.504199 -45.883636 
L 245.74013 -45.883636 
L 246.976062 -45.883636 
L 248.211994 -45.883636 
L 249.447926 -45.883636 
L 250.683857 -45.883636 
L 251.919789 -45.883636 
L 253.155721 -45.883636 
L 254.391652 -45.883636 
L 255.627584 -45.883636 
L 256.863516 -45.883636 
L 258.099448 -45.883636 
L 259.335379 -45.883636 
L 260.571311 -45.883636 
L 261.807243 -45.883636 
L 263.043175 -45.883636 
L 264.279106 -45.883636 
L 265.515038 -45.883636 
L 266.75097 -45.883636 
L 267.986901 -45.883636 
L 269.222833 -45.883636 
L 270.458765 -45.883636 
L 271.694697 -45.883636 
L 272.930628 -45.883636 
L 274.16656 -45.883636 
L 274.16656 -45.910183 
L 274.16656 -45.910183 
L 272.930628 -45.920193 
L 271.694697 -45.93365 
L 270.458765 -45.951616 
L 269.222833 -45.975434 
L 267.986901 -46.00679 
L 266.75097 -46.047781 
L 265.515038 -46.100992 
L 264.279106 -46.16958 
L 263.043175 -46.257362 
L 261.807243 -46.368913 
L 260.571311 -46.509659 
L 259.335379 -46.68597 
L 258.099448 -46.905244 
L 256.863516 -47.175978 
L 255.627584 -47.507818 
L 254.391652 -47.91158 
L 253.155721 -48.399234 
L 251.919789 -48.983842 
L 250.683857 -49.679443 
L 249.447926 -50.500868 
L 248.211994 -51.463496 
L 246.976062 -52.582931 
L 245.74013 -53.874595 
L 244.504199 -55.353262 
L 243.268267 -57.032504 
L 242.032335 -58.924094 
L 240.796404 -61.037347 
L 239.560472 -63.378446 
L 238.32454 -65.949762 
L 237.088608 -68.7492 
L 235.852677 -71.769603 
L 234.616745 -74.998244 
L 233.380813 -78.416446 
L 232.144881 -81.999357 
L 230.90895 -85.715908 
L 229.673018 -89.528983 
L 228.437086 -93.39581 
L 227.201155 -97.268586 
L 225.965223 -101.095327 
L 224.729291 -104.820937 
L 223.493359 -108.388458 
L 222.257428 -111.740474 
L 221.021496 -114.820626 
L 219.785564 -117.575163 
L 218.549632 -119.954503 
L 217.313701 -121.914707 
L 216.077769 -123.418828 
L 214.841837 -124.43807 
L 213.605906 -124.952705 
L 212.369974 -124.952705 
L 211.134042 -124.43807 
L 209.89811 -123.418828 
L 208.662179 -121.914707 
L 207.426247 -119.954503 
L 206.190315 -117.575163 
L 204.954383 -114.820626 
L 203.718452 -111.740474 
L 202.48252 -108.388458 
L 201.246588 -104.820937 
L 200.010657 -101.095327 
L 198.774725 -97.268586 
L 197.538793 -93.39581 
L 196.302861 -89.528983 
L 195.06693 -85.715908 
L 193.830998 -81.999357 
L 192.595066 -78.416446 
L 191.359135 -74.998244 
L 190.123203 -71.769603 
L 188.887271 -68.7492 
L 187.651339 -65.949762 
L 186.415408 -63.378446 
L 185.179476 -61.037347 
L 183.943544 -58.924094 
L 182.707612 -57.032504 
L 181.471681 -55.353262 
L 180.235749 -53.874595 
L 178.999817 -52.582931 
L 177.763886 -51.463496 
L 176.527954 -50.500868 
L 175.292022 -49.679443 
L 174.05609 -48.983842 
L 172.820159 -48.399234 
L 171.584227 -47.91158 
L 170.348295 -47.507818 
L 169.112363 -47.175978 
L 167.876432 -46.905244 
L 166.6405 -46.68597 
L 165.404568 -46.509659 
L 164.168637 -46.368913 
L 162.932705 -46.257362 
L 161.696773 -46.16958 
L 160.460841 -46.100992 
L 159.22491 -46.047781 
L 157.988978 -46.00679 
L 156.753046 -45.975434 
L 155.517114 -45.951616 
L 154.281183 -45.93365 
L 153.045251 -45.920193 
L 151.809319 -45.910183 
z
" id="m1809641d15"/>
    </defs>
    <g clip-path="url(#p273d968e90)">
     <use style="fill:#81688c;fill-opacity:0.6;" x="0" xlink:href="#m1809641d15" y="288"/>
    </g>
   </g>
   <g id="PolyCollection_3">
    <defs>
     <path d="M 264.120201 -45.916546 
L 264.120201 -45.883636 
L 265.225874 -45.883636 
L 266.331547 -45.883636 
L 267.43722 -45.883636 
L 268.542892 -45.883636 
L 269.648565 -45.883636 
L 270.754238 -45.883636 
L 271.859911 -45.883636 
L 272.965584 -45.883636 
L 274.071257 -45.883636 
L 275.17693 -45.883636 
L 276.282603 -45.883636 
L 277.388276 -45.883636 
L 278.493949 -45.883636 
L 279.599622 -45.883636 
L 280.705294 -45.883636 
L 281.810967 -45.883636 
L 282.91664 -45.883636 
L 284.022313 -45.883636 
L 285.127986 -45.883636 
L 286.233659 -45.883636 
L 287.339332 -45.883636 
L 288.445005 -45.883636 
L 289.550678 -45.883636 
L 290.656351 -45.883636 
L 291.762023 -45.883636 
L 292.867696 -45.883636 
L 293.973369 -45.883636 
L 295.079042 -45.883636 
L 296.184715 -45.883636 
L 297.290388 -45.883636 
L 298.396061 -45.883636 
L 299.501734 -45.883636 
L 300.607407 -45.883636 
L 301.71308 -45.883636 
L 302.818752 -45.883636 
L 303.924425 -45.883636 
L 305.030098 -45.883636 
L 306.135771 -45.883636 
L 307.241444 -45.883636 
L 308.347117 -45.883636 
L 309.45279 -45.883636 
L 310.558463 -45.883636 
L 311.664136 -45.883636 
L 312.769809 -45.883636 
L 313.875481 -45.883636 
L 314.981154 -45.883636 
L 316.086827 -45.883636 
L 317.1925 -45.883636 
L 318.298173 -45.883636 
L 319.403846 -45.883636 
L 320.509519 -45.883636 
L 321.615192 -45.883636 
L 322.720865 -45.883636 
L 323.826538 -45.883636 
L 324.93221 -45.883636 
L 326.037883 -45.883636 
L 327.143556 -45.883636 
L 328.249229 -45.883636 
L 329.354902 -45.883636 
L 330.460575 -45.883636 
L 331.566248 -45.883636 
L 332.671921 -45.883636 
L 333.777594 -45.883636 
L 334.883267 -45.883636 
L 335.98894 -45.883636 
L 337.094612 -45.883636 
L 338.200285 -45.883636 
L 339.305958 -45.883636 
L 340.411631 -45.883636 
L 341.517304 -45.883636 
L 342.622977 -45.883636 
L 343.72865 -45.883636 
L 344.834323 -45.883636 
L 345.939996 -45.883636 
L 347.045669 -45.883636 
L 348.151341 -45.883636 
L 349.257014 -45.883636 
L 350.362687 -45.883636 
L 351.46836 -45.883636 
L 352.574033 -45.883636 
L 353.679706 -45.883636 
L 354.785379 -45.883636 
L 355.891052 -45.883636 
L 356.996725 -45.883636 
L 358.102398 -45.883636 
L 359.20807 -45.883636 
L 360.313743 -45.883636 
L 361.419416 -45.883636 
L 362.525089 -45.883636 
L 363.630762 -45.883636 
L 364.736435 -45.883636 
L 365.842108 -45.883636 
L 366.947781 -45.883636 
L 368.053454 -45.883636 
L 369.159127 -45.883636 
L 370.264799 -45.883636 
L 371.370472 -45.883636 
L 372.476145 -45.883636 
L 373.581818 -45.883636 
L 373.581818 -101.78047 
L 373.581818 -101.78047 
L 372.476145 -104.817733 
L 371.370472 -107.85788 
L 370.264799 -110.884782 
L 369.159127 -113.881609 
L 368.053454 -116.830973 
L 366.947781 -119.715087 
L 365.842108 -122.515941 
L 364.736435 -125.21548 
L 363.630762 -127.795798 
L 362.525089 -130.23933 
L 361.419416 -132.529052 
L 360.313743 -134.648677 
L 359.20807 -136.582845 
L 358.102398 -138.317311 
L 356.996725 -139.839116 
L 355.891052 -141.136752 
L 354.785379 -142.200302 
L 353.679706 -143.021571 
L 352.574033 -143.594189 
L 351.46836 -143.913692 
L 350.362687 -143.977582 
L 349.257014 -143.78536 
L 348.151341 -143.338529 
L 347.045669 -142.640579 
L 345.939996 -141.696936 
L 344.834323 -140.5149 
L 343.72865 -139.103541 
L 342.622977 -137.473592 
L 341.517304 -135.637306 
L 340.411631 -133.60831 
L 339.305958 -131.40143 
L 338.200285 -129.032513 
L 337.094612 -126.518241 
L 335.98894 -123.875934 
L 334.883267 -121.123352 
L 333.777594 -118.278499 
L 332.671921 -115.359432 
L 331.566248 -112.384072 
L 330.460575 -109.370025 
L 329.354902 -106.33442 
L 328.249229 -103.293753 
L 327.143556 -100.263748 
L 326.037883 -97.25924 
L 324.93221 -94.294068 
L 323.826538 -91.380991 
L 322.720865 -88.531622 
L 321.615192 -85.756375 
L 320.509519 -83.064442 
L 319.403846 -80.463772 
L 318.298173 -77.961082 
L 317.1925 -75.561869 
L 316.086827 -73.270447 
L 314.981154 -71.089993 
L 313.875481 -69.022598 
L 312.769809 -67.069336 
L 311.664136 -65.230339 
L 310.558463 -63.504869 
L 309.45279 -61.891404 
L 308.347117 -60.387725 
L 307.241444 -58.990998 
L 306.135771 -57.697863 
L 305.030098 -56.504516 
L 303.924425 -55.406792 
L 302.818752 -54.40024 
L 301.71308 -53.4802 
L 300.607407 -52.641868 
L 299.501734 -51.880361 
L 298.396061 -51.190775 
L 297.290388 -50.568229 
L 296.184715 -50.007919 
L 295.079042 -49.505151 
L 293.973369 -49.055374 
L 292.867696 -48.654208 
L 291.762023 -48.297466 
L 290.656351 -47.981171 
L 289.550678 -47.701565 
L 288.445005 -47.455119 
L 287.339332 -47.238538 
L 286.233659 -47.048757 
L 285.127986 -46.882944 
L 284.022313 -46.738492 
L 282.91664 -46.613013 
L 281.810967 -46.504327 
L 280.705294 -46.410459 
L 279.599622 -46.32962 
L 278.493949 -46.2602 
L 277.388276 -46.200756 
L 276.282603 -46.149999 
L 275.17693 -46.106782 
L 274.071257 -46.070089 
L 272.965584 -46.039023 
L 271.859911 -46.012795 
L 270.754238 -45.990714 
L 269.648565 -45.972176 
L 268.542892 -45.956657 
L 267.43722 -45.943701 
L 266.331547 -45.932914 
L 265.225874 -45.92396 
L 264.120201 -45.916546 
z
" id="m92cb03fcf8"/>
    </defs>
    <g clip-path="url(#p273d968e90)">
     <use style="fill:#db403d;fill-opacity:0.6;" x="0" xlink:href="#m92cb03fcf8" y="288"/>
    </g>
   </g>
   <g id="line2d_4">
    <path clip-path="url(#p273d968e90)" d="M 69.218182 242.115154 
L 72.292562 242.11319 
L 75.366942 242.108365 
L 78.441322 242.097004 
L 81.515702 242.07136 
L 84.590083 242.015893 
L 87.664463 241.900944 
L 90.738843 241.672771 
L 93.813223 241.239091 
L 96.887603 240.450124 
L 99.961983 239.076931 
L 103.036364 236.791606 
L 106.110744 233.157364 
L 109.185124 227.639601 
L 112.259504 219.649848 
L 115.333884 208.631212 
L 118.408264 194.184851 
L 121.482645 176.222905 
L 124.557025 155.117058 
L 127.631405 131.799579 
L 130.705785 107.771907 
L 133.780165 84.989539 
L 136.854545 65.620917 
L 139.928926 51.715158 
L 143.003306 44.846865 
L 146.077686 45.822454 
L 149.152066 54.523324 
L 152.226446 69.927376 
L 155.300826 90.302418 
L 158.375207 113.519136 
L 161.449587 137.403055 
L 164.523967 160.042622 
L 167.598347 179.992638 
L 170.672727 196.348846 
L 173.747107 208.7069 
L 176.821488 217.045883 
L 179.895868 221.586977 
L 182.970248 222.672324 
L 186.044628 220.692498 
L 189.119008 216.069878 
L 192.193388 209.285745 
L 195.267769 200.925513 
L 198.342149 191.711678 
L 201.416529 182.498656 
L 204.490909 174.216332 
L 207.565289 167.7666 
L 210.639669 163.894335 
L 213.71405 163.065462 
L 216.78843 165.385933 
L 219.86281 170.585544 
L 222.93719 178.072707 
L 226.01157 187.046576 
L 229.08595 196.638101 
L 232.160331 206.046283 
L 235.234711 214.641013 
L 238.309091 222.016506 
L 241.383471 227.994277 
L 244.457851 232.586893 
L 247.532231 235.940074 
L 250.606612 238.270837 
L 253.680992 239.814834 
L 256.755372 240.789619 
L 259.829752 241.374677 
L 262.904132 241.705128 
L 265.978512 241.874346 
L 269.052893 241.94091 
L 272.127273 241.936417 
L 275.201653 241.872123 
L 278.276033 241.743521 
L 281.350413 241.532834 
L 284.424793 241.209793 
L 287.499174 240.731324 
L 290.573554 240.040788 
L 293.647934 239.067487 
L 296.722314 237.727098 
L 299.796694 235.92372 
L 302.871074 233.554114 
L 305.945455 230.514542 
L 309.019835 226.710335 
L 312.094215 222.067887 
L 315.168595 216.548277 
L 318.242975 210.161187 
L 321.317355 202.977306 
L 324.391736 195.137158 
L 327.466116 186.854297 
L 330.540496 178.411187 
L 333.614876 170.146864 
L 336.689256 162.436535 
L 339.763636 155.664481 
L 342.838017 150.192839 
L 345.912397 146.329702 
L 348.986777 144.300441 
L 352.061157 144.225935 
L 355.135537 146.110655 
L 358.209917 149.842218 
L 361.284298 155.202478 
L 364.358678 161.888644 
L 367.433058 169.541558 
L 370.507438 177.777488 
L 373.581818 186.21953 
" style="fill:none;stroke:#000000;stroke-linecap:square;stroke-width:1.5;"/>
   </g>
   <g id="matplotlib.axis_1">
    <g id="xtick_1">
     <g id="line2d_5">
      <defs>
       <path d="M 0 0 
L 0 3.5 
" id="mcde8336d0c" style="stroke:#000000;stroke-width:0.8;"/>
      </defs>
      <g>
       <use style="stroke:#000000;stroke-width:0.8;" x="67.688716" xlink:href="#mcde8336d0c" y="252"/>
      </g>
     </g>
     <g id="text_1">
      <!-- 0.0 -->
      <g transform="translate(59.348716 267.589375)scale(0.12 -0.12)">
       <defs>
        <path d="M 4.15625 35.296875 
Q 4.15625 48 6.765625 55.734375 
Q 9.375 63.484375 14.515625 67.671875 
Q 19.671875 71.875 27.484375 71.875 
Q 33.25 71.875 37.59375 69.546875 
Q 41.9375 67.234375 44.765625 62.859375 
Q 47.609375 58.5 49.21875 52.21875 
Q 50.828125 45.953125 50.828125 35.296875 
Q 50.828125 22.703125 48.234375 14.96875 
Q 45.65625 7.234375 40.5 3 
Q 35.359375 -1.21875 27.484375 -1.21875 
Q 17.140625 -1.21875 11.234375 6.203125 
Q 4.15625 15.140625 4.15625 35.296875 
z
M 13.1875 35.296875 
Q 13.1875 17.671875 17.3125 11.828125 
Q 21.4375 6 27.484375 6 
Q 33.546875 6 37.671875 11.859375 
Q 41.796875 17.71875 41.796875 35.296875 
Q 41.796875 52.984375 37.671875 58.78125 
Q 33.546875 64.59375 27.390625 64.59375 
Q 21.34375 64.59375 17.71875 59.46875 
Q 13.1875 52.9375 13.1875 35.296875 
z
" id="ArialMT-48"/>
        <path d="M 9.078125 0 
L 9.078125 10.015625 
L 19.09375 10.015625 
L 19.09375 0 
z
" id="ArialMT-46"/>
       </defs>
       <use xlink:href="#ArialMT-48"/>
       <use x="55.615234" xlink:href="#ArialMT-46"/>
       <use x="83.398438" xlink:href="#ArialMT-48"/>
      </g>
     </g>
    </g>
    <g id="xtick_2">
     <g id="line2d_6">
      <g>
       <use style="stroke:#000000;stroke-width:0.8;" x="144.161992" xlink:href="#mcde8336d0c" y="252"/>
      </g>
     </g>
     <g id="text_2">
      <!-- 0.5 -->
      <g transform="translate(135.821992 267.589375)scale(0.12 -0.12)">
       <defs>
        <path d="M 4.15625 18.75 
L 13.375 19.53125 
Q 14.40625 12.796875 18.140625 9.390625 
Q 21.875 6 27.15625 6 
Q 33.5 6 37.890625 10.78125 
Q 42.28125 15.578125 42.28125 23.484375 
Q 42.28125 31 38.0625 35.34375 
Q 33.84375 39.703125 27 39.703125 
Q 22.75 39.703125 19.328125 37.765625 
Q 15.921875 35.84375 13.96875 32.765625 
L 5.71875 33.84375 
L 12.640625 70.609375 
L 48.25 70.609375 
L 48.25 62.203125 
L 19.671875 62.203125 
L 15.828125 42.96875 
Q 22.265625 47.46875 29.34375 47.46875 
Q 38.71875 47.46875 45.15625 40.96875 
Q 51.609375 34.46875 51.609375 24.265625 
Q 51.609375 14.546875 45.953125 7.46875 
Q 39.0625 -1.21875 27.15625 -1.21875 
Q 17.390625 -1.21875 11.203125 4.25 
Q 5.03125 9.71875 4.15625 18.75 
z
" id="ArialMT-53"/>
       </defs>
       <use xlink:href="#ArialMT-48"/>
       <use x="55.615234" xlink:href="#ArialMT-46"/>
       <use x="83.398438" xlink:href="#ArialMT-53"/>
      </g>
     </g>
    </g>
    <g id="xtick_3">
     <g id="line2d_7">
      <g>
       <use style="stroke:#000000;stroke-width:0.8;" x="220.635267" xlink:href="#mcde8336d0c" y="252"/>
      </g>
     </g>
     <g id="text_3">
      <!-- 1.0 -->
      <g transform="translate(212.295267 267.589375)scale(0.12 -0.12)">
       <defs>
        <path d="M 37.25 0 
L 28.46875 0 
L 28.46875 56 
Q 25.296875 52.984375 20.140625 49.953125 
Q 14.984375 46.921875 10.890625 45.40625 
L 10.890625 53.90625 
Q 18.265625 57.375 23.78125 62.296875 
Q 29.296875 67.234375 31.59375 71.875 
L 37.25 71.875 
z
" id="ArialMT-49"/>
       </defs>
       <use xlink:href="#ArialMT-49"/>
       <use x="55.615234" xlink:href="#ArialMT-46"/>
       <use x="83.398438" xlink:href="#ArialMT-48"/>
      </g>
     </g>
    </g>
    <g id="xtick_4">
     <g id="line2d_8">
      <g>
       <use style="stroke:#000000;stroke-width:0.8;" x="297.108543" xlink:href="#mcde8336d0c" y="252"/>
      </g>
     </g>
     <g id="text_4">
      <!-- 1.5 -->
      <g transform="translate(288.768543 267.589375)scale(0.12 -0.12)">
       <use xlink:href="#ArialMT-49"/>
       <use x="55.615234" xlink:href="#ArialMT-46"/>
       <use x="83.398438" xlink:href="#ArialMT-53"/>
      </g>
     </g>
    </g>
    <g id="xtick_5">
     <g id="line2d_9">
      <g>
       <use style="stroke:#000000;stroke-width:0.8;" x="373.581818" xlink:href="#mcde8336d0c" y="252"/>
      </g>
     </g>
     <g id="text_5">
      <!-- 2.0 -->
      <g transform="translate(365.241818 267.589375)scale(0.12 -0.12)">
       <defs>
        <path d="M 50.34375 8.453125 
L 50.34375 0 
L 3.03125 0 
Q 2.9375 3.171875 4.046875 6.109375 
Q 5.859375 10.9375 9.828125 15.625 
Q 13.8125 20.3125 21.34375 26.46875 
Q 33.015625 36.03125 37.109375 41.625 
Q 41.21875 47.21875 41.21875 52.203125 
Q 41.21875 57.421875 37.46875 61 
Q 33.734375 64.59375 27.734375 64.59375 
Q 21.390625 64.59375 17.578125 60.78125 
Q 13.765625 56.984375 13.71875 50.25 
L 4.6875 51.171875 
Q 5.609375 61.28125 11.65625 66.578125 
Q 17.71875 71.875 27.9375 71.875 
Q 38.234375 71.875 44.234375 66.15625 
Q 50.25 60.453125 50.25 52 
Q 50.25 47.703125 48.484375 43.546875 
Q 46.734375 39.40625 42.65625 34.8125 
Q 38.578125 30.21875 29.109375 22.21875 
Q 21.1875 15.578125 18.9375 13.203125 
Q 16.703125 10.84375 15.234375 8.453125 
z
" id="ArialMT-50"/>
       </defs>
       <use xlink:href="#ArialMT-50"/>
       <use x="55.615234" xlink:href="#ArialMT-46"/>
       <use x="83.398438" xlink:href="#ArialMT-48"/>
      </g>
     </g>
    </g>
   </g>
   <g id="matplotlib.axis_2">
    <g id="ytick_1">
     <g id="line2d_10">
      <defs>
       <path d="M 0 0 
L -3.5 0 
" id="md48d0ea496" style="stroke:#000000;stroke-width:0.8;"/>
      </defs>
      <g>
       <use style="stroke:#000000;stroke-width:0.8;" x="54" xlink:href="#md48d0ea496" y="242.116364"/>
      </g>
     </g>
     <g id="text_6">
      <!-- 0.00 -->
      <g transform="translate(23.646875 246.411051)scale(0.12 -0.12)">
       <use xlink:href="#ArialMT-48"/>
       <use x="55.615234" xlink:href="#ArialMT-46"/>
       <use x="83.398438" xlink:href="#ArialMT-48"/>
       <use x="139.013672" xlink:href="#ArialMT-48"/>
      </g>
     </g>
    </g>
    <g id="ytick_2">
     <g id="line2d_11">
      <g>
       <use style="stroke:#000000;stroke-width:0.8;" x="54" xlink:href="#md48d0ea496" y="217.321538"/>
      </g>
     </g>
     <g id="text_7">
      <!-- 0.25 -->
      <g transform="translate(23.646875 221.616226)scale(0.12 -0.12)">
       <use xlink:href="#ArialMT-48"/>
       <use x="55.615234" xlink:href="#ArialMT-46"/>
       <use x="83.398438" xlink:href="#ArialMT-50"/>
       <use x="139.013672" xlink:href="#ArialMT-53"/>
      </g>
     </g>
    </g>
    <g id="ytick_3">
     <g id="line2d_12">
      <g>
       <use style="stroke:#000000;stroke-width:0.8;" x="54" xlink:href="#md48d0ea496" y="192.526712"/>
      </g>
     </g>
     <g id="text_8">
      <!-- 0.50 -->
      <g transform="translate(23.646875 196.8214)scale(0.12 -0.12)">
       <use xlink:href="#ArialMT-48"/>
       <use x="55.615234" xlink:href="#ArialMT-46"/>
       <use x="83.398438" xlink:href="#ArialMT-53"/>
       <use x="139.013672" xlink:href="#ArialMT-48"/>
      </g>
     </g>
    </g>
    <g id="ytick_4">
     <g id="line2d_13">
      <g>
       <use style="stroke:#000000;stroke-width:0.8;" x="54" xlink:href="#md48d0ea496" y="167.731887"/>
      </g>
     </g>
     <g id="text_9">
      <!-- 0.75 -->
      <g transform="translate(23.646875 172.026574)scale(0.12 -0.12)">
       <defs>
        <path d="M 4.734375 62.203125 
L 4.734375 70.65625 
L 51.078125 70.65625 
L 51.078125 63.8125 
Q 44.234375 56.546875 37.515625 44.484375 
Q 30.8125 32.421875 27.15625 19.671875 
Q 24.515625 10.6875 23.78125 0 
L 14.75 0 
Q 14.890625 8.453125 18.0625 20.40625 
Q 21.234375 32.375 27.171875 43.484375 
Q 33.109375 54.59375 39.796875 62.203125 
z
" id="ArialMT-55"/>
       </defs>
       <use xlink:href="#ArialMT-48"/>
       <use x="55.615234" xlink:href="#ArialMT-46"/>
       <use x="83.398438" xlink:href="#ArialMT-55"/>
       <use x="139.013672" xlink:href="#ArialMT-53"/>
      </g>
     </g>
    </g>
    <g id="ytick_5">
     <g id="line2d_14">
      <g>
       <use style="stroke:#000000;stroke-width:0.8;" x="54" xlink:href="#md48d0ea496" y="142.937061"/>
      </g>
     </g>
     <g id="text_10">
      <!-- 1.00 -->
      <g transform="translate(23.646875 147.231749)scale(0.12 -0.12)">
       <use xlink:href="#ArialMT-49"/>
       <use x="55.615234" xlink:href="#ArialMT-46"/>
       <use x="83.398438" xlink:href="#ArialMT-48"/>
       <use x="139.013672" xlink:href="#ArialMT-48"/>
      </g>
     </g>
    </g>
    <g id="ytick_6">
     <g id="line2d_15">
      <g>
       <use style="stroke:#000000;stroke-width:0.8;" x="54" xlink:href="#md48d0ea496" y="118.142236"/>
      </g>
     </g>
     <g id="text_11">
      <!-- 1.25 -->
      <g transform="translate(23.646875 122.436923)scale(0.12 -0.12)">
       <use xlink:href="#ArialMT-49"/>
       <use x="55.615234" xlink:href="#ArialMT-46"/>
       <use x="83.398438" xlink:href="#ArialMT-50"/>
       <use x="139.013672" xlink:href="#ArialMT-53"/>
      </g>
     </g>
    </g>
    <g id="ytick_7">
     <g id="line2d_16">
      <g>
       <use style="stroke:#000000;stroke-width:0.8;" x="54" xlink:href="#md48d0ea496" y="93.34741"/>
      </g>
     </g>
     <g id="text_12">
      <!-- 1.50 -->
      <g transform="translate(23.646875 97.642097)scale(0.12 -0.12)">
       <use xlink:href="#ArialMT-49"/>
       <use x="55.615234" xlink:href="#ArialMT-46"/>
       <use x="83.398438" xlink:href="#ArialMT-53"/>
       <use x="139.013672" xlink:href="#ArialMT-48"/>
      </g>
     </g>
    </g>
    <g id="ytick_8">
     <g id="line2d_17">
      <g>
       <use style="stroke:#000000;stroke-width:0.8;" x="54" xlink:href="#md48d0ea496" y="68.552584"/>
      </g>
     </g>
     <g id="text_13">
      <!-- 1.75 -->
      <g transform="translate(23.646875 72.847272)scale(0.12 -0.12)">
       <use xlink:href="#ArialMT-49"/>
       <use x="55.615234" xlink:href="#ArialMT-46"/>
       <use x="83.398438" xlink:href="#ArialMT-55"/>
       <use x="139.013672" xlink:href="#ArialMT-53"/>
      </g>
     </g>
    </g>
    <g id="ytick_9">
     <g id="line2d_18">
      <g>
       <use style="stroke:#000000;stroke-width:0.8;" x="54" xlink:href="#md48d0ea496" y="43.757759"/>
      </g>
     </g>
     <g id="text_14">
      <!-- 2.00 -->
      <g transform="translate(23.646875 48.052446)scale(0.12 -0.12)">
       <use xlink:href="#ArialMT-50"/>
       <use x="55.615234" xlink:href="#ArialMT-46"/>
       <use x="83.398438" xlink:href="#ArialMT-48"/>
       <use x="139.013672" xlink:href="#ArialMT-48"/>
      </g>
     </g>
    </g>
   </g>
   <g id="line2d_19">
    <path clip-path="url(#p273d968e90)" d="M 67.688716 252 
L 67.688716 34.56 
" style="fill:none;stroke:#000000;stroke-dasharray:5.55,2.4;stroke-dashoffset:0;stroke-opacity:0.5;stroke-width:1.5;"/>
   </g>
   <g id="line2d_20">
    <path clip-path="url(#p273d968e90)" d="M 373.581818 252 
L 373.581818 34.56 
" style="fill:none;stroke:#000000;stroke-dasharray:5.55,2.4;stroke-dashoffset:0;stroke-opacity:0.5;stroke-width:1.5;"/>
   </g>
   <g id="patch_3">
    <path d="M 54 252 
L 54 34.56 
" style="fill:none;stroke:#000000;stroke-linecap:square;stroke-linejoin:miter;stroke-width:0.8;"/>
   </g>
   <g id="patch_4">
    <path d="M 388.8 252 
L 388.8 34.56 
" style="fill:none;stroke:#000000;stroke-linecap:square;stroke-linejoin:miter;stroke-width:0.8;"/>
   </g>
   <g id="patch_5">
    <path d="M 54 252 
L 388.8 252 
" style="fill:none;stroke:#000000;stroke-linecap:square;stroke-linejoin:miter;stroke-width:0.8;"/>
   </g>
   <g id="patch_6">
    <path d="M 54 34.56 
L 388.8 34.56 
" style="fill:none;stroke:#000000;stroke-linecap:square;stroke-linejoin:miter;stroke-width:0.8;"/>
   </g>
  </g>
 </g>
 <defs>
  <clipPath id="p273d968e90">
   <rect height="217.44" width="334.8" x="54" y="34.56"/>
  </clipPath>
 </defs>
</svg>
