<?xml version="1.0" encoding="UTF-8" standalone="no"?>
<!-- Created with Inkscape (http://www.inkscape.org/) -->

<svg
   xmlns:dc="http://purl.org/dc/elements/1.1/"
   xmlns:cc="http://creativecommons.org/ns#"
   xmlns:rdf="http://www.w3.org/1999/02/22-rdf-syntax-ns#"
   xmlns:svg="http://www.w3.org/2000/svg"
   xmlns="http://www.w3.org/2000/svg"
   xmlns:sodipodi="http://sodipodi.sourceforge.net/DTD/sodipodi-0.dtd"
   xmlns:inkscape="http://www.inkscape.org/namespaces/inkscape"
   version="1.1"
   id="svg2"
   xml:space="preserve"
   width="2101.3035"
   height="852.26727"
   viewBox="0 0 2101.3035 852.26727"
   sodipodi:docname="scheme_v1.svg"
   inkscape:version="0.92.3 (2405546, 2018-03-11)"><metadata
     id="metadata8"><rdf:RDF><cc:Work
         rdf:about=""><dc:format>image/svg+xml</dc:format><dc:type
           rdf:resource="http://purl.org/dc/dcmitype/StillImage" /><dc:title></dc:title></cc:Work></rdf:RDF></metadata><defs
     id="defs6" /><sodipodi:namedview
     pagecolor="#ffffff"
     bordercolor="#666666"
     borderopacity="1"
     objecttolerance="10"
     gridtolerance="10"
     guidetolerance="10"
     inkscape:pageopacity="0"
     inkscape:pageshadow="2"
     inkscape:window-width="1920"
     inkscape:window-height="1017"
     id="namedview4"
     showgrid="false"
     inkscape:zoom="1.6218505"
     inkscape:cx="1095.4595"
     inkscape:cy="347.42918"
     inkscape:window-x="-8"
     inkscape:window-y="-8"
     inkscape:window-maximized="1"
     inkscape:current-layer="g10" /><g
     id="g10"
     inkscape:groupmode="layer"
     inkscape:label="scheme_v1"
     transform="matrix(1.3333333,0,0,1.3333333,0,1.9306681e-5)"><path
       inkscape:connector-curvature="0"
       id="path14"
       style="fill:#ffc872;fill-opacity:1;fill-rule:evenodd;stroke:none"
       d="m 0,235.031 h 403.258 v 57.93 H 0 Z" /><text
       id="text18"
       style="font-variant:normal;font-weight:bold;font-size:43.89129639px;font-family:'Sitka Text';-inkscape-font-specification:SitkaText-Bold;writing-mode:lr-tb;fill:#000000;fill-opacity:1;fill-rule:nonzero;stroke:none"
       x="50.488579"
       y="276.5582"><tspan
         id="tspan16"
         sodipodi:role="line"
         y="276.5582"
         x="50.488579 75.550507 103.8604 131.02911 146.65442 170.57518 197.74388 222.80582 240.84514 265.90707 288.20386 311.90515 329.94449">andi_datasets</tspan></text>
<path
       inkscape:connector-curvature="0"
       id="path20"
       style="fill:#ffefd6;fill-opacity:1;fill-rule:evenodd;stroke:none"
       d="m 454.523,145.723 h 392.301 v 94.902 H 454.523 Z" /><path
       inkscape:connector-curvature="0"
       id="path22"
       style="fill:#ffc872;fill-opacity:1;fill-rule:evenodd;stroke:none"
       d="m 454.523,112.129 h 392.301 v 39.594 H 454.523 Z" /><text
       id="text30"
       style="font-variant:normal;font-weight:bold;font-size:29.99999809px;font-family:'Sitka Text';-inkscape-font-specification:SitkaText-Bold;writing-mode:lr-tb;fill:#000000;fill-opacity:1;fill-rule:nonzero;stroke:none"
       x="471.74948"
       y="138.94565"><tspan
         id="tspan24"
         sodipodi:role="line"
         y="138.94565"
         x="471.74948 490.31946 507.44946 519.77948 536.90948 552.14948 568.34949 580.67944 595.91949 612.26947 624.59949 643.70947 659.90948 677.57947 692.72949">datasets_theory</tspan><tspan
         id="tspan26"
         sodipodi:role="line"
         y="185.26265"
         x="471.76279 486.22278 500.50278 516.70282 533.83276 546.16278 562.36279 578.71277 597.28278 614.41278 626.7428 643.96277 659.20282 675.40277 687.73279">create_datasets</tspan><tspan
         id="tspan28"
         sodipodi:role="line"
         y="223.43098"
         x="471.76279 486.5228 505.63278 522.76282 533.20282 543.64276 559.84277 579.19281 596.65277 612.85278 629.11279 646.78278 666.10278 683.77277 703.09277 719.44281 738.01276 755.14276 767.47278 784.69275 799.9328 816.13275">challenge_2020_dataset</tspan></text>
<path
       inkscape:connector-curvature="0"
       id="path32"
       style="fill:#ffefd6;fill-opacity:1;fill-rule:evenodd;stroke:none"
       d="m 454.523,320.961 h 392.301 v 94.902 H 454.523 Z" /><path
       inkscape:connector-curvature="0"
       id="path34"
       style="fill:#ffc872;fill-opacity:1;fill-rule:evenodd;stroke:none"
       d="m 454.523,287.367 h 392.301 v 39.594 H 454.523 Z" /><text
       id="text40"
       style="font-variant:normal;font-weight:bold;font-size:29.99999809px;font-family:'Sitka Text';-inkscape-font-specification:SitkaText-Bold;writing-mode:lr-tb;fill:#000000;fill-opacity:1;fill-rule:nonzero;stroke:none"
       x="471.74948"
       y="314.1846"><tspan
         id="tspan36"
         sodipodi:role="line"
         y="314.1846"
         x="471.74948 490.31946 507.44946 519.77948 536.90948 552.14948 568.34949 580.67944 595.91949 612.26947 630.95947 650.06946 666.26947 685.61945 703.28949">datasets_phenom</tspan><tspan
         id="tspan38"
         sodipodi:role="line"
         y="360.50162"
         x="471.76279 486.22278 500.50278 516.70282 533.83276 546.16278 562.36279 578.71277 597.28278 614.41278 626.7428 643.96277 659.20282 675.40277 687.73279">create_datasets</tspan></text>
<text
       id="text44"
       style="font-variant:normal;font-weight:bold;font-size:29.99999809px;font-family:'Sitka Text';-inkscape-font-specification:SitkaText-Bold;writing-mode:lr-tb;fill:#4d001f;fill-opacity:1;fill-rule:nonzero;stroke:none"
       x="471.76279"
       y="398.66995"><tspan
         id="tspan42"
         sodipodi:role="line"
         y="398.66995"
         x="471.76279">challenge_2022_datasets</tspan></text>
<path
       inkscape:connector-curvature="0"
       id="path46"
       style="fill:#ffefd6;fill-opacity:1;fill-rule:evenodd;stroke:none"
       d="m 952.246,24.652 h 623.73 v 215.973 h -623.73 z" /><path
       inkscape:connector-curvature="0"
       id="path48"
       style="fill:#ffc872;fill-opacity:1;fill-rule:evenodd;stroke:none"
       d="m 952.246,0 h 623.73 v 39.594 h -623.73 z" /><text
       id="text62"
       style="font-variant:normal;font-weight:bold;font-size:29.99999809px;font-family:'Sitka Text';-inkscape-font-specification:SitkaText-Bold;writing-mode:lr-tb;fill:#000000;fill-opacity:1;fill-rule:nonzero;stroke:none"
       x="969.60748"
       y="26.817713"><tspan
         id="tspan50"
         sodipodi:role="line"
         y="26.817713"
         x="969.60748 997.71753 1015.3875 1033.9575 1050.1575 1060.5975 1075.8375 1092.1875 1104.5175 1123.6274 1139.8275 1157.4976 1172.5275">models_theory</tspan><tspan
         id="tspan52"
         sodipodi:role="line"
         y="69.393799"
         x="970.86084 989.9408 1007.6108 1026.9608 1039.2908 1049.9708 1069.3208 1088.3108 1105.9808 1121.2208 1129.7408 1142.0708 1152.7509 1180.8608 1197.0608 1205.5808 1219.8008 1236.9308 1256.2808 1274.8508 1292.5208 1320.6307 1329.1508 1354.6208 1371.7507 1382.1908 1400.2507 1408.7708 1422.6307 1441.7108 1461.4808 1481.9108 1511.7908">Continuos time random walk (CTRW)</tspan><tspan
         id="tspan54"
         sodipodi:role="line"
         y="107.56214"
         x="970.86084 989.34082 1003.5308 1020.6608 1035.4208 1047.7509 1058.4308 1076.1008 1095.4508 1103.9708 1124.1908 1138.4708 1156.0208 1181.6108 1200.9608 1211.6407 1228.7708 1248.1208 1256.6407 1284.7509 1302.4208 1314.7509 1325.4308 1343.1008 1362.4508 1370.9708 1384.8308 1403.3108 1423.5308 1452.0608">Fraction Brownian motion (FBM)</tspan><tspan
         id="tspan56"
         sodipodi:role="line"
         y="145.73048"
         x="970.86084 988.95081 1003.4108 1020.5408 1030.9808 1047.1808 1065.7509 1074.2709 1094.4908 1108.7708 1126.3208 1151.9108 1171.2609 1181.9408 1199.0708 1218.4208 1226.9408 1255.0508 1272.7208 1285.0508 1295.7308 1313.4008 1332.7507 1341.2708 1355.1307 1373.2208 1393.4408 1421.9708">Scaled Brownian motion (SBM)</tspan><tspan
         id="tspan58"
         sodipodi:role="line"
         y="183.89882"
         x="970.86084 989.31079 1005.3908 1022.7908 1039.9808 1048.5009 1077.2408 1094.3708 1104.8108 1122.8708 1131.3907 1145.2509 1162.7108 1192.5908">Lévy Walk (LW)</tspan><tspan
         id="tspan60"
         sodipodi:role="line"
         y="222.06715"
         x="970.86084 991.14081 1010.4908 1029.8408 1046.0408 1063.1708 1073.6108 1089.8108 1106.9408 1125.5109 1134.0308 1152.8108 1166.9708 1184.1008 1203.4508 1218.6908 1229.3708 1241.7008 1250.2208 1269.9908 1280.6708 1308.7808 1324.9808 1333.5007 1362.0308 1379.7008 1392.0308 1402.7108 1420.3807 1439.7308 1448.2507 1462.1108 1481.0708 1500.8408 1520.6108 1549.1407">Annealead Transit Time Motion (ATTM)</tspan></text>
<path
       inkscape:connector-curvature="0"
       id="path64"
       style="fill:#ffefd6;fill-opacity:1;fill-rule:evenodd;stroke:none"
       d="m 952.246,312.02 h 623.73 v 215.973 h -623.73 z" /><path
       inkscape:connector-curvature="0"
       id="path66"
       style="fill:#ffc872;fill-opacity:1;fill-rule:evenodd;stroke:none"
       d="m 952.246,287.367 h 623.73 v 39.594 h -623.73 z" /><text
       id="text72"
       style="font-variant:normal;font-weight:bold;font-size:29.99999809px;font-family:'Sitka Text';-inkscape-font-specification:SitkaText-Bold;writing-mode:lr-tb;fill:#000000;fill-opacity:1;fill-rule:nonzero;stroke:none"
       x="969.60748"
       y="314.18457"><tspan
         id="tspan68"
         sodipodi:role="line"
         y="314.18457"
         x="969.60748 997.71747 1015.3875 1033.9575 1050.1575 1060.5975 1075.8375 1092.1875 1110.8774 1129.8975 1146.0975 1165.4475 1183.1176">models_phenom</tspan><tspan
         id="tspan70"
         sodipodi:role="line"
         y="356.76065"
         x="970.86078 988.95081 999.6308 1018.9808 1036.4408 1046.8809 1063.0808 1071.6008 1086.8408 1099.1708 1116.3008 1128.6309 1144.8308 1153.3508 1171.9208">Single state di</tspan></text>
<text
       id="text76"
       style="font-variant:normal;font-weight:bold;font-size:29.99999809px;font-family:'Sitka Text';-inkscape-font-specification:SitkaText-Bold;writing-mode:lr-tb;fill:#000000;fill-opacity:1;fill-rule:nonzero;stroke:none"
       x="1182.6008"
       y="356.76065"><tspan
         id="tspan74"
         y="356.76065"
         x="1182.6008">ﬀ</tspan></text>
<text
       id="text82"
       style="font-variant:normal;font-weight:bold;font-size:29.99999809px;font-family:'Sitka Text';-inkscape-font-specification:SitkaText-Bold;writing-mode:lr-tb;fill:#000000;fill-opacity:1;fill-rule:nonzero;stroke:none"
       x="1207.3508"
       y="356.76065"><tspan
         id="tspan78"
         sodipodi:role="line"
         y="356.76065"
         x="1207.3508 1226.3408 1241.5808 1252.2607 1269.9308">usion</tspan><tspan
         id="tspan80"
         sodipodi:role="line"
         y="394.92899"
         x="970.86084 999.39081 1018.3808 1028.9408 1041.2708 1051.9508 1070.6409 1081.0808 1097.2808 1105.8008 1121.0408 1133.3708 1150.5009 1162.8308 1179.0308 1187.5508 1206.1208">Multiple state di</tspan></text>
<text
       id="text86"
       style="font-variant:normal;font-weight:bold;font-size:29.99999809px;font-family:'Sitka Text';-inkscape-font-specification:SitkaText-Bold;writing-mode:lr-tb;fill:#000000;fill-opacity:1;fill-rule:nonzero;stroke:none"
       x="1216.8907"
       y="394.92899"><tspan
         id="tspan84"
         y="394.92899"
         x="1216.8907">ﬀ</tspan></text>
<text
       id="text92"
       style="font-variant:normal;font-weight:bold;font-size:29.99999809px;font-family:'Sitka Text';-inkscape-font-specification:SitkaText-Bold;writing-mode:lr-tb;fill:#000000;fill-opacity:1;fill-rule:nonzero;stroke:none"
       x="1241.5808"
       y="394.92899"><tspan
         id="tspan88"
         sodipodi:role="line"
         y="394.92899"
         x="1241.5808 1260.5708 1275.8108 1286.4908 1304.1608">usion</tspan><tspan
         id="tspan90"
         sodipodi:role="line"
         y="433.09732"
         x="970.86078 992.97083">Di</tspan></text>
<text
       id="text96"
       style="font-variant:normal;font-weight:bold;font-size:29.99999809px;font-family:'Sitka Text';-inkscape-font-specification:SitkaText-Bold;writing-mode:lr-tb;fill:#000000;fill-opacity:1;fill-rule:nonzero;stroke:none"
       x="1003.6508"
       y="433.09732"><tspan
         id="tspan94"
         y="433.09732"
         x="1003.6508">ﬀ</tspan></text>
<text
       id="text102"
       style="font-variant:normal;font-weight:bold;font-size:29.99999809px;font-family:'Sitka Text';-inkscape-font-specification:SitkaText-Bold;writing-mode:lr-tb;fill:#000000;fill-opacity:1;fill-rule:nonzero;stroke:none"
       x="1028.4008"
       y="433.09732"><tspan
         id="tspan98"
         sodipodi:role="line"
         y="433.09732"
         x="1028.4008 1047.3907 1062.6309 1073.3108 1090.9808 1110.3308 1118.8508 1144.4408 1155.1208 1167.4508 1186.5608 1195.0808 1213.6508 1224.3308 1252.4408 1268.6407 1283.5208 1294.2008 1309.8008 1326.9308 1339.2607 1349.9408 1367.6108">usion with dimerization</tspan><tspan
         id="tspan100"
         sodipodi:role="line"
         y="471.26566"
         x="970.86078 992.97083">Di</tspan></text>
<text
       id="text106"
       style="font-variant:normal;font-weight:bold;font-size:29.99999809px;font-family:'Sitka Text';-inkscape-font-specification:SitkaText-Bold;writing-mode:lr-tb;fill:#000000;fill-opacity:1;fill-rule:nonzero;stroke:none"
       x="1003.6508"
       y="471.26566"><tspan
         id="tspan104"
         y="471.26566"
         x="1003.6508">ﬀ</tspan></text>
<text
       id="text110"
       style="font-variant:normal;font-weight:bold;font-size:29.99999809px;font-family:'Sitka Text';-inkscape-font-specification:SitkaText-Bold;writing-mode:lr-tb;fill:#000000;fill-opacity:1;fill-rule:nonzero;stroke:none"
       x="1028.4008"
       y="471.26566"><tspan
         id="tspan108"
         sodipodi:role="line"
         y="471.26566"
         x="1028.4008 1047.3907 1062.6309 1073.3108 1090.9808 1110.3308 1118.8508 1131.1808 1150.2908 1164.6008 1182.2708 1201.2607 1218.7208 1237.8308 1246.3508 1257.0308 1285.1407 1313.2507 1330.9208 1349.0708 1359.7507 1370.1908 1386.3907 1394.9108 1407.2408 1421.4308 1438.5608 1457.2507">usion through immobile traps</tspan></text>
<text
       id="text114"
       style="font-variant:normal;font-weight:bold;font-size:29.99999809px;font-family:'Sitka Text';-inkscape-font-specification:SitkaText-Bold;writing-mode:lr-tb;fill:#4d001f;fill-opacity:1;fill-rule:nonzero;stroke:none"
       x="970.86078"
       y="509.43399"><tspan
         id="tspan112"
         sodipodi:role="line"
         y="509.43399"
         x="970.86078 991.08081 1005.3308 1022.8808 1048.4708 1067.8208 1078.5009 1095.6307 1114.9808 1123.5009 1151.6108 1169.2808 1181.6108 1192.2908 1209.9608 1229.3108 1237.8308 1252.2908 1269.9608 1287.0908 1297.5308 1313.7308 1328.9708 1343.4308 1359.6307 1378.9808 1393.4408">Brownian motion coalescence</tspan></text>
<g
       id="g116"><path
         inkscape:connector-curvature="0"
         id="path118"
         style="fill:none;stroke:#e7e7e7;stroke-width:30.51496124;stroke-linecap:butt;stroke-linejoin:round;stroke-miterlimit:3.0999999;stroke-dasharray:none;stroke-opacity:1"
         d="M 200.605,292.961 V 358.66 H 411.18" /></g><g
       id="g120"><path
         inkscape:connector-curvature="0"
         id="path122"
         style="fill:#e7e7e7;fill-opacity:1;fill-rule:evenodd;stroke:#e7e7e7;stroke-width:8.13732338;stroke-linecap:butt;stroke-linejoin:miter;stroke-miterlimit:4;stroke-dasharray:none;stroke-opacity:1"
         d="m 446.395,358.66 -52.793,30.516 v -61.031 z" /></g><g
       id="g124"><path
         inkscape:connector-curvature="0"
         id="path126"
         style="fill:none;stroke:#e7e7e7;stroke-width:30.51496124;stroke-linecap:butt;stroke-linejoin:round;stroke-miterlimit:3.0999999;stroke-dasharray:none;stroke-opacity:1"
         d="M 151.176,292.961 V 475.445 H 908.902" /></g><g
       id="g128"><path
         inkscape:connector-curvature="0"
         id="path130"
         style="fill:#e7e7e7;fill-opacity:1;fill-rule:evenodd;stroke:#e7e7e7;stroke-width:8.13732338;stroke-linecap:butt;stroke-linejoin:miter;stroke-miterlimit:4;stroke-dasharray:none;stroke-opacity:1"
         d="m 944.117,475.445 -52.789,30.516 V 444.93 Z" /></g><g
       id="g132"><path
         inkscape:connector-curvature="0"
         id="path134"
         style="fill:none;stroke:#e7e7e7;stroke-width:30.51496124;stroke-linecap:butt;stroke-linejoin:round;stroke-miterlimit:3.0999999;stroke-dasharray:none;stroke-opacity:1"
         d="M 200.605,235.031 V 169.332 H 411.18" /></g><g
       id="g136"><path
         inkscape:connector-curvature="0"
         id="path138"
         style="fill:#e7e7e7;fill-opacity:1;fill-rule:evenodd;stroke:#e7e7e7;stroke-width:8.13732338;stroke-linecap:butt;stroke-linejoin:miter;stroke-miterlimit:4;stroke-dasharray:none;stroke-opacity:1"
         d="m 446.395,169.332 -52.793,30.516 v -61.032 z" /></g><g
       id="g140"><path
         inkscape:connector-curvature="0"
         id="path142"
         style="fill:none;stroke:#e7e7e7;stroke-width:30.51496124;stroke-linecap:butt;stroke-linejoin:round;stroke-miterlimit:3.0999999;stroke-dasharray:none;stroke-opacity:1"
         d="m 846.824,351.617 h 62.078" /></g><g
       id="g144"><path
         inkscape:connector-curvature="0"
         id="path146"
         style="fill:#e7e7e7;fill-opacity:1;fill-rule:evenodd;stroke:#e7e7e7;stroke-width:8.13732338;stroke-linecap:butt;stroke-linejoin:miter;stroke-miterlimit:4;stroke-dasharray:none;stroke-opacity:1"
         d="m 944.117,351.617 -52.789,30.512 v -61.027 z" /></g><g
       id="g148"><path
         inkscape:connector-curvature="0"
         id="path150"
         style="fill:none;stroke:#e7e7e7;stroke-width:30.51496124;stroke-linecap:butt;stroke-linejoin:round;stroke-miterlimit:3.0999999;stroke-dasharray:none;stroke-opacity:1"
         d="M 160.039,235.031 V 52.547 H 917.77" /></g><g
       id="g152"><path
         inkscape:connector-curvature="0"
         id="path154"
         style="fill:#e7e7e7;fill-opacity:1;fill-rule:evenodd;stroke:#e7e7e7;stroke-width:8.13732338;stroke-linecap:butt;stroke-linejoin:miter;stroke-miterlimit:4;stroke-dasharray:none;stroke-opacity:1"
         d="M 952.98,52.547 900.191,83.063 V 22.031 Z" /></g><g
       id="g156"><path
         inkscape:connector-curvature="0"
         id="path158"
         style="fill:none;stroke:#e7e7e7;stroke-width:30.51496124;stroke-linecap:butt;stroke-linejoin:round;stroke-miterlimit:3.0999999;stroke-dasharray:none;stroke-opacity:1"
         d="m 846.824,176.375 h 62.078" /></g><g
       id="g160"><path
         inkscape:connector-curvature="0"
         id="path162"
         style="fill:#e7e7e7;fill-opacity:1;fill-rule:evenodd;stroke:#e7e7e7;stroke-width:8.13732338;stroke-linecap:butt;stroke-linejoin:miter;stroke-miterlimit:4;stroke-dasharray:none;stroke-opacity:1"
         d="m 944.117,176.375 -52.789,30.516 v -61.028 z" /></g><path
       inkscape:connector-curvature="0"
       id="path164"
       style="fill:#ffc872;fill-opacity:1;fill-rule:evenodd;stroke:none"
       d="m 454.523,526.363 h 392.301 v 39.598 H 454.523 Z" /><text
       id="text168"
       style="font-variant:normal;font-weight:bold;font-size:29.99999809px;font-family:'Sitka Text';-inkscape-font-specification:SitkaText-Bold;writing-mode:lr-tb;fill:#000000;fill-opacity:1;fill-rule:nonzero;stroke:none"
       x="471.74948"
       y="553.18262"><tspan
         id="tspan166"
         sodipodi:role="line"
         y="553.18262"
         x="471.74948 490.73947 503.06946 513.74945 524.18945 539.42944 555.77948 568.10944 582.2995 599.42944 610.13947 626.33948 641.12946 653.45947 671.12946 685.94946 696.62946 712.82947">utils_trajectories</tspan></text>
<path
       inkscape:connector-curvature="0"
       id="path170"
       style="fill:#ffc872;fill-opacity:1;fill-rule:evenodd;stroke:none"
       d="m 454.523,599.605 h 392.301 v 39.594 H 454.523 Z" /><text
       id="text174"
       style="font-variant:normal;font-weight:bold;font-size:29.99999809px;font-family:'Sitka Text';-inkscape-font-specification:SitkaText-Bold;writing-mode:lr-tb;fill:#000000;fill-opacity:1;fill-rule:nonzero;stroke:none"
       x="471.74948"
       y="626.42267"><tspan
         id="tspan172"
         sodipodi:role="line"
         y="626.42267"
         x="471.74948 490.73947 503.06946 513.74945 524.18945 539.42944 555.77948 583.88947 600.08948 612.41949 627.23944 637.91949 652.37946">utils_metrics</tspan></text>
</g></svg>