<?xml version="1.0" encoding="utf-8" standalone="no"?>
<!DOCTYPE svg PUBLIC "-//W3C//DTD SVG 1.1//EN"
  "http://www.w3.org/Graphics/SVG/1.1/DTD/svg11.dtd">
<!-- Created with matplotlib (https://matplotlib.org/) -->
<svg height="360pt" version="1.1" viewBox="0 0 576 360" width="576pt" xmlns="http://www.w3.org/2000/svg" xmlns:xlink="http://www.w3.org/1999/xlink">
 <metadata>
  <rdf:RDF xmlns:cc="http://creativecommons.org/ns#" xmlns:dc="http://purl.org/dc/elements/1.1/" xmlns:rdf="http://www.w3.org/1999/02/22-rdf-syntax-ns#">
   <cc:Work>
    <dc:type rdf:resource="http://purl.org/dc/dcmitype/StillImage"/>
    <dc:date>2022-06-15T14:27:56.199449</dc:date>
    <dc:format>image/svg+xml</dc:format>
    <dc:creator>
     <cc:Agent>
      <dc:title>Matplotlib v3.3.4, https://matplotlib.org/</dc:title>
     </cc:Agent>
    </dc:creator>
   </cc:Work>
  </rdf:RDF>
 </metadata>
 <defs>
  <style type="text/css">*{stroke-linecap:butt;stroke-linejoin:round;}</style>
 </defs>
 <g id="figure_1">
  <g id="patch_1">
   <path d="M 0 360 
L 576 360 
L 576 0 
L 0 0 
z
" style="fill:none;"/>
  </g>
  <g id="axes_1">
   <g id="patch_2">
    <path d="M 72 166.745455 
L 518.4 166.745455 
L 518.4 43.2 
L 72 43.2 
z
" style="fill:none;"/>
   </g>
   <g id="line2d_1">
    <path clip-path="url(#p269d42ec98)" d="M 121.539066 58.936724 
L 121.945291 59.225312 
L 122.351515 57.417031 
L 123.163964 59.023602 
L 123.570188 63.876436 
L 123.976413 71.458094 
L 124.382637 75.288657 
L 124.788862 76.279783 
L 125.195086 73.135492 
L 125.60131 78.960638 
L 126.007535 81.753587 
L 126.413759 88.939793 
L 127.226208 96.575494 
L 128.038657 109.092043 
L 128.851106 118.315767 
L 129.25733 119.825196 
L 129.663554 117.100804 
L 130.069779 117.021007 
L 130.476003 120.628561 
L 130.882228 116.817176 
L 131.288452 114.509567 
L 132.100901 119.198992 
L 132.507125 124.488866 
L 132.91335 125.364707 
L 133.319574 130.564198 
L 133.725799 128.676259 
L 134.538247 119.457671 
L 134.944472 124.912518 
L 135.350696 127.59282 
L 135.756921 128.713904 
L 136.163145 129.331198 
L 136.569369 122.81274 
L 136.975594 123.874439 
L 137.788043 134.581618 
L 139.006716 143.787089 
L 139.41294 142.099721 
L 139.819165 143.941915 
L 140.225389 141.331905 
L 140.631613 140.853683 
L 141.444062 134.582364 
L 141.850287 128.243121 
L 142.256511 137.811378 
L 142.662735 140.025523 
L 143.06896 139.434692 
L 143.475184 137.186068 
L 143.881409 139.388905 
L 144.287633 144.790532 
L 144.693857 142.019927 
L 145.100082 154.19201 
L 145.506306 155.510677 
L 145.912531 152.77375 
L 146.318755 158.223171 
L 146.72498 156.347022 
L 147.131204 161.129752 
L 147.537428 160.548462 
L 147.943653 158.480673 
L 148.756102 145.49173 
L 149.162326 135.642512 
L 149.56855 141.819121 
L 149.974775 142.517127 
L 150.380999 143.877682 
L 150.787224 141.687197 
L 151.193448 133.985713 
L 151.599672 132.408448 
L 152.005897 131.468435 
L 152.412121 137.460821 
L 152.818346 134.561508 
L 153.22457 135.032666 
L 153.630794 135.19362 
L 154.443243 130.020117 
L 155.255692 120.393216 
L 155.661916 119.830289 
L 156.068141 130.16319 
L 156.474365 131.972734 
L 156.88059 139.973615 
L 157.286814 140.324479 
L 157.693038 140.28034 
L 158.099263 139.573737 
L 158.505487 139.563023 
L 158.911712 138.544095 
L 159.317936 138.116865 
L 159.724161 142.295438 
L 160.130385 143.337389 
L 160.536609 148.436229 
L 160.942834 148.431458 
L 161.349058 147.823115 
L 161.755283 140.372324 
L 162.161507 141.292233 
L 162.567731 142.527573 
L 162.973956 144.362008 
L 163.38018 137.758075 
L 163.786405 135.403531 
L 164.192629 132.252357 
L 164.598853 131.758138 
L 165.005078 128.989166 
L 165.817527 118.889633 
L 166.223751 121.200554 
L 167.848649 105.659843 
L 168.254873 107.862109 
L 168.661097 108.754602 
L 169.067322 106.448947 
L 169.473546 104.794834 
L 169.879771 102.117884 
L 170.285995 100.878717 
L 170.692219 102.508148 
L 171.098444 99.742322 
L 171.504668 104.852996 
L 171.910893 101.785247 
L 172.317117 94.431957 
L 172.723342 94.207314 
L 173.129566 89.700039 
L 173.53579 89.407085 
L 173.942015 97.676386 
L 174.348239 97.030979 
L 174.754464 95.567884 
L 175.160688 100.045142 
L 175.566912 92.126306 
L 175.973137 79.656803 
L 176.379361 81.064179 
L 176.785586 77.73924 
L 177.19181 72.586062 
L 177.598034 64.540378 
L 178.004259 67.162712 
L 178.410483 73.590904 
L 178.816708 68.857115 
L 179.222932 69.707735 
L 179.629156 71.589718 
L 180.035381 68.138259 
L 180.441605 61.305809 
L 180.84783 50.660846 
L 181.254054 48.815702 
L 181.660278 53.52881 
L 182.066503 50.689501 
L 182.472727 53.336917 
L 182.878952 57.194639 
L 183.285176 58.894143 
L 183.6914 64.412982 
L 184.097625 64.076624 
L 184.503849 67.882751 
L 184.910074 67.18253 
L 185.316298 72.06098 
L 185.722523 73.590828 
L 186.128747 71.970539 
L 186.534971 69.699496 
L 186.941196 68.884441 
L 187.34742 70.92497 
L 188.159869 76.933519 
L 188.566093 71.226915 
L 188.972318 69.604128 
L 189.378542 62.620005 
L 189.784767 64.103882 
L 190.190991 78.213643 
L 190.597215 75.34 
L 191.00344 78.442639 
L 191.409664 74.229183 
L 192.222113 82.680611 
L 192.628337 81.919422 
L 193.034562 82.879705 
L 193.440786 84.515068 
L 193.847011 81.387317 
L 194.253235 80.457503 
L 194.659459 78.182669 
L 195.065684 74.795002 
L 195.471908 74.420063 
L 195.878133 66.735819 
L 196.284357 65.30559 
L 196.690581 66.342902 
L 197.096806 68.027624 
L 197.50303 68.757624 
L 197.909255 74.67073 
L 198.315479 73.303732 
L 198.721704 77.384642 
L 199.534152 75.510135 
L 199.940377 77.863382 
L 200.346601 76.842746 
L 200.752826 74.832803 
L 201.15905 77.396311 
L 201.565274 77.314183 
L 201.971499 80.271611 
L 202.377723 88.114652 
L 202.783948 86.80419 
L 203.190172 91.467586 
L 203.596396 87.813472 
L 204.002621 91.745579 
L 204.002621 91.745579 
" style="fill:none;stroke:#db403d;stroke-linecap:square;stroke-width:3;"/>
   </g>
   <g id="line2d_2">
    <path clip-path="url(#p269d42ec98)" d="M 92.290909 59.002575 
L 92.697133 58.974 
L 93.103358 59.017006 
L 93.509582 58.921337 
L 93.915807 58.305537 
L 94.322031 58.949603 
L 94.728256 59.356076 
L 95.13448 58.801515 
L 95.540704 59.348758 
L 95.946929 59.376914 
L 96.353153 59.225474 
L 96.759378 58.652004 
L 97.165602 58.796804 
L 97.571826 58.49344 
L 97.978051 58.92458 
L 98.384275 58.746703 
L 98.7905 59.40993 
L 99.196724 59.233691 
L 99.602948 58.442057 
L 100.009173 58.780405 
L 100.415397 59.110849 
L 100.821622 59.539 
L 101.227846 59.571553 
L 101.63407 59.670552 
L 102.040295 59.314066 
L 102.446519 59.047295 
L 102.852744 59.541281 
L 103.258968 58.819852 
L 103.665192 59.351928 
L 104.071417 59.16722 
L 104.477641 59.589836 
L 104.883866 59.550548 
L 105.29009 59.411722 
L 105.696314 58.726687 
L 106.102539 58.938408 
L 106.508763 58.767026 
L 106.914988 58.779667 
L 107.321212 58.537633 
L 107.727437 58.8237 
L 108.133661 58.825853 
L 108.539885 59.158619 
L 108.94611 58.834338 
L 109.352334 58.903508 
L 109.758559 58.940076 
L 110.164783 58.09394 
L 110.571007 58.315081 
L 110.977232 58.055257 
L 111.383456 57.943538 
L 111.789681 58.381844 
L 112.195905 58.600994 
L 112.602129 58.726127 
L 113.008354 58.67821 
L 113.414578 59.058676 
L 113.820803 59.560876 
L 114.227027 60.021449 
L 114.633251 59.630576 
L 115.039476 59.944257 
L 115.4457 59.349326 
L 115.851925 58.384048 
L 116.258149 58.286646 
L 116.664373 58.655817 
L 117.070598 58.844446 
L 117.476822 58.890753 
L 117.883047 59.457059 
L 118.289271 58.899678 
L 118.695495 58.710623 
L 119.10172 58.828042 
L 119.507944 58.766295 
L 119.914169 58.803708 
L 120.320393 58.892278 
L 120.726618 59.242374 
L 121.132842 58.9953 
L 121.539066 58.936724 
" style="fill:none;stroke:#2790db;stroke-linecap:square;stroke-width:3;"/>
   </g>
   <g id="line2d_3">
    <path clip-path="url(#p269d42ec98)" d="M 204.002621 91.745579 
L 204.408845 88.911332 
L 204.81507 89.595523 
L 205.221294 89.483 
L 205.627518 89.24686 
L 206.033743 89.368109 
L 206.439967 88.978836 
L 206.846192 89.945964 
L 207.252416 88.741968 
L 207.65864 88.441636 
L 208.064865 87.791747 
L 208.471089 88.399347 
L 208.877314 88.166556 
L 209.283538 87.78779 
L 209.689762 87.054274 
L 210.095987 87.565076 
L 210.502211 86.81628 
L 211.31466 87.036862 
L 211.720885 86.853996 
L 212.127109 86.800345 
L 212.939558 86.350518 
L 213.345782 86.50278 
L 213.752007 86.300083 
L 214.158231 86.902233 
L 214.564455 87.243293 
L 214.97068 86.988039 
L 215.376904 87.562302 
L 215.783129 87.327214 
L 217.001802 87.280351 
L 217.814251 88.281084 
L 218.220475 88.147349 
L 218.626699 88.87401 
L 219.032924 89.34245 
L 219.439148 89.280205 
L 219.845373 89.76657 
L 220.251597 89.167862 
L 220.657821 89.315819 
L 221.064046 90.07073 
L 221.47027 90.248933 
L 221.876495 89.775361 
L 222.282719 89.622448 
L 222.688943 90.060726 
L 223.095168 89.311382 
L 223.501392 89.742586 
L 223.907617 89.756327 
L 224.313841 89.238992 
L 225.12629 89.519069 
L 225.532514 90.364282 
L 225.938739 90.139828 
L 226.344963 89.503 
L 226.751188 89.207708 
L 227.157412 89.185596 
L 227.563636 89.574443 
L 227.969861 89.118382 
L 228.78231 88.599601 
L 229.594758 88.983396 
L 230.000983 89.186369 
L 230.407207 89.904739 
L 230.813432 89.75082 
L 231.219656 89.28937 
L 231.62588 89.131252 
L 232.032105 89.618488 
L 232.438329 89.67307 
L 232.844554 89.23913 
L 233.250778 89.039581 
L 233.657002 89.316567 
L 234.063227 89.417267 
L 234.875676 88.884369 
L 235.2819 88.933091 
L 236.094349 89.447531 
L 236.500573 89.479925 
L 236.906798 89.092547 
L 237.313022 89.11842 
L 238.125471 88.305362 
L 238.531695 88.575544 
L 238.93792 88.164385 
L 239.344144 87.931007 
L 240.156593 87.167201 
L 240.562817 86.925676 
L 240.969042 87.080181 
L 241.375266 86.78399 
L 241.781491 87.213358 
L 242.187715 87.220012 
L 242.593939 86.947936 
L 243.000164 87.713802 
L 243.406388 87.496353 
L 243.812613 87.536901 
L 244.218837 87.787416 
L 244.625061 87.832516 
L 245.031286 88.210731 
L 245.43751 87.886873 
L 245.843735 88.624201 
L 246.249959 88.034759 
L 247.062408 88.343143 
L 247.468632 88.640229 
L 247.874857 88.716208 
L 248.281081 89.121225 
L 248.687305 89.0676 
L 249.09353 88.815608 
L 249.499754 89.429013 
L 249.905979 89.400306 
L 250.312203 89.124491 
L 250.718428 89.267502 
L 251.124652 88.858715 
L 251.530876 88.922362 
L 251.937101 88.870808 
L 252.343325 88.581363 
L 252.74955 87.939286 
L 253.155774 88.454325 
L 253.561998 88.746094 
L 253.968223 89.7919 
L 254.374447 89.841435 
L 255.59312 89.486716 
L 255.999345 89.533922 
L 256.405569 90.03724 
L 257.624242 89.151636 
L 258.030467 89.51168 
L 258.436691 88.887606 
L 258.842916 89.308267 
L 259.24914 89.230126 
L 260.061589 89.797378 
L 260.467813 89.780594 
L 261.280262 88.845945 
L 261.686486 88.990739 
L 262.092711 89.754003 
L 262.498935 89.558225 
L 262.90516 88.726257 
L 263.311384 88.417293 
L 263.717609 88.382386 
L 264.123833 87.793254 
L 264.936282 87.779118 
L 265.342506 87.475197 
L 265.748731 87.577632 
L 266.154955 88.314545 
L 266.561179 88.454072 
L 266.967404 88.765766 
L 267.779853 88.889658 
L 268.186077 88.49096 
L 269.40475 88.118528 
L 269.810975 88.592393 
L 270.217199 88.671428 
L 270.623423 88.211786 
L 271.029648 89.091968 
L 271.435872 88.504813 
L 271.842097 88.857855 
L 272.248321 88.935957 
L 272.654545 89.350417 
L 273.06077 89.069095 
L 273.466994 89.446427 
L 273.873219 88.965178 
L 274.279443 89.00716 
L 275.091892 88.375561 
L 275.498116 88.887801 
L 275.904341 88.263548 
L 276.310565 88.446314 
L 276.71679 88.41806 
L 277.123014 88.261217 
L 277.529238 87.7653 
L 277.935463 87.673928 
L 278.341687 87.422513 
L 278.747912 87.481514 
L 279.154136 87.732886 
L 279.56036 87.662754 
L 279.966585 87.80305 
L 280.372809 87.690262 
L 280.779034 88.461209 
L 281.591482 87.823655 
L 281.997707 87.625726 
L 282.403931 87.289958 
L 283.622604 88.184219 
L 284.435053 88.560235 
L 284.841278 88.116583 
L 285.247502 88.227589 
L 285.653726 88.765805 
L 286.059951 88.419666 
L 286.466175 89.240245 
L 286.8724 89.159898 
L 287.278624 90.112526 
L 287.684848 90.551463 
L 288.091073 90.527955 
L 288.497297 90.287966 
L 288.903522 91.03025 
L 289.309746 91.010093 
L 289.715971 91.214618 
L 290.122195 91.283094 
L 290.528419 91.61759 
L 290.934644 91.741653 
L 291.340868 91.383467 
L 291.747093 90.759007 
L 292.153317 90.979183 
L 292.559541 90.489092 
L 292.965766 91.166438 
L 293.37199 91.317337 
L 293.778215 90.862215 
L 294.590663 91.786812 
L 294.996888 91.838419 
L 295.403112 91.516873 
L 295.809337 91.010232 
L 296.215561 91.444562 
L 297.02801 91.12124 
L 297.434234 91.172324 
L 298.246683 91.403977 
L 298.652907 90.523821 
L 299.059132 90.75029 
L 299.465356 90.741372 
L 299.871581 90.961276 
L 300.277805 90.827223 
L 301.090254 90.79367 
L 301.496478 91.442864 
L 301.902703 90.735477 
L 302.308927 90.70315 
L 302.715152 89.940081 
L 303.121376 89.991919 
L 303.5276 90.163679 
L 303.933825 90.527685 
L 304.340049 90.006686 
L 304.746274 89.936657 
L 305.558722 90.180036 
L 305.964947 89.783235 
L 306.371171 90.030299 
L 306.777396 90.125479 
L 307.589844 88.577635 
L 307.996069 88.770184 
L 308.808518 90.155625 
L 309.214742 90.165449 
L 310.027191 89.770379 
L 310.433415 90.260158 
L 311.245864 90.182933 
L 312.464537 89.430278 
L 312.870762 89.631851 
L 313.276986 89.338187 
L 314.495659 88.937085 
L 314.901884 89.78082 
L 315.714333 88.798358 
L 316.120557 88.899486 
L 316.933006 89.70699 
L 317.33923 89.591022 
L 317.745455 90.082887 
L 318.151679 89.370859 
L 318.557903 89.531544 
L 319.370352 90.817726 
L 319.776577 91.128768 
L 320.182801 91.271254 
L 320.589025 90.581136 
L 320.99525 90.206451 
L 321.401474 89.450963 
L 321.807699 90.305371 
L 322.213923 90.188036 
L 322.620147 88.998473 
L 323.026372 88.653253 
L 323.432596 88.930938 
L 323.838821 88.137424 
L 324.245045 88.289055 
L 325.057494 89.257768 
L 325.463718 88.949491 
L 325.869943 88.426797 
L 326.276167 88.314665 
L 326.682391 87.754997 
L 327.088616 88.255692 
L 327.49484 87.648418 
L 327.901065 88.355495 
L 328.307289 87.802828 
L 328.713514 87.796953 
L 329.119738 88.60696 
L 329.525962 88.040518 
L 329.932187 87.67879 
L 330.744636 87.325585 
L 331.15086 87.500853 
L 331.557084 87.28456 
L 331.963309 87.810168 
L 332.369533 86.879589 
L 332.775758 86.291085 
L 333.181982 86.963149 
L 333.588206 86.794331 
L 333.994431 85.943376 
L 334.400655 85.635091 
L 335.213104 86.555956 
L 335.619328 86.791864 
L 336.025553 86.735703 
L 336.431777 86.014785 
L 336.838002 85.8046 
L 337.244226 85.833087 
L 337.65045 85.410301 
L 338.462899 85.965995 
L 339.275348 87.073985 
L 340.087797 87.010151 
L 340.494021 87.110245 
L 340.900246 87.345342 
L 341.30647 87.185285 
L 342.118919 88.200955 
L 343.743817 88.185587 
L 344.150041 88.920027 
L 344.556265 89.023361 
L 344.96249 89.64288 
L 345.368714 89.463244 
L 345.774939 90.360364 
L 346.181163 89.846519 
L 346.587387 89.676744 
L 347.399836 90.984128 
L 347.806061 90.745136 
L 348.212285 90.962333 
L 348.618509 91.000999 
L 349.024734 91.74076 
L 349.430958 90.677977 
L 349.837183 90.0232 
L 350.243407 90.095736 
L 350.649631 89.587164 
L 351.055856 89.767818 
L 351.46208 89.368249 
L 351.868305 89.384258 
L 352.680753 89.78339 
L 353.086978 89.287255 
L 353.493202 88.170742 
L 353.899427 89.262766 
L 354.305651 89.528447 
L 355.1181 89.727549 
L 355.524324 90.278786 
L 355.930549 90.2912 
L 356.742998 90.048054 
L 357.149222 90.39873 
L 357.555446 90.922125 
L 358.77412 90.989532 
L 359.180344 91.478199 
L 359.586568 91.733429 
L 360.399017 91.822626 
L 360.805242 92.37434 
L 361.211466 92.713131 
L 361.61769 92.48767 
L 362.023915 92.480927 
L 362.430139 92.251955 
L 362.836364 92.733547 
L 363.242588 92.308189 
L 363.648812 92.171946 
L 364.055037 92.623764 
L 364.461261 91.912583 
L 364.867486 91.594866 
L 365.27371 91.696532 
L 365.679934 91.569929 
L 366.492383 92.347185 
L 366.898608 92.305829 
L 367.304832 92.068248 
L 367.711057 91.672503 
L 368.523505 92.842856 
L 368.92973 92.400728 
L 369.335954 92.713574 
L 370.148403 93.042673 
L 370.554627 93.241457 
L 370.960852 93.815179 
L 371.367076 93.270102 
L 371.773301 93.556776 
L 372.179525 93.328563 
L 372.991974 93.204186 
L 373.398198 93.536953 
L 373.804423 93.643604 
L 374.210647 93.558846 
L 374.616871 93.924782 
L 375.023096 93.692885 
L 375.42932 94.109561 
L 375.835545 94.096457 
L 376.647993 93.548398 
L 377.054218 92.868539 
L 377.460442 92.627064 
L 377.866667 92.892943 
L 378.272891 92.71611 
L 379.08534 92.96731 
L 379.491564 93.52103 
L 379.897789 92.618285 
L 380.304013 93.023224 
L 380.710238 92.788389 
L 381.116462 93.374825 
L 381.522686 93.198927 
L 381.928911 93.681441 
L 382.335135 93.041288 
L 382.74136 92.846203 
L 383.147584 93.089281 
L 383.553808 93.151642 
L 383.960033 92.623145 
L 384.366257 92.976914 
L 384.772482 92.67967 
L 385.178706 93.057476 
L 385.58493 93.280981 
L 385.991155 93.113388 
L 386.397379 93.164801 
L 386.803604 92.776658 
L 387.209828 93.044608 
L 387.616052 92.83548 
L 388.022277 93.196274 
L 388.428501 93.027267 
L 388.834726 93.392433 
L 389.24095 92.76134 
L 389.647174 92.420226 
L 390.053399 92.544278 
L 390.459623 92.503239 
L 390.865848 93.1809 
L 392.084521 92.758315 
L 392.490745 93.13625 
L 392.89697 93.009728 
L 393.303194 93.179377 
L 393.709419 92.663964 
L 394.115643 92.615454 
L 394.521867 92.848046 
L 394.928092 92.948123 
L 395.334316 92.81134 
L 395.740541 93.186133 
L 396.146765 93.200955 
L 396.552989 93.93353 
L 396.959214 93.859741 
L 397.365438 94.110453 
L 397.771663 94.003931 
L 398.177887 93.384677 
L 398.584111 93.601332 
L 398.990336 93.557663 
L 399.39656 93.865021 
L 399.802785 93.922624 
L 400.209009 93.335093 
L 401.021458 93.480805 
L 401.427682 93.346164 
L 401.833907 93.692945 
L 402.646355 93.444294 
L 403.05258 93.804567 
L 403.458804 93.879011 
L 403.865029 93.323283 
L 404.271253 93.114735 
L 404.677477 93.531355 
L 405.083702 92.892202 
L 405.489926 93.022268 
L 406.302375 93.02437 
L 406.7086 93.218678 
L 407.114824 92.779979 
L 407.521048 92.939505 
L 407.927273 92.423654 
L 408.333497 92.591486 
L 408.739722 93.299581 
L 409.145946 93.608808 
L 409.958395 93.857799 
L 410.364619 94.04247 
L 411.177068 94.057758 
L 411.583292 93.757228 
L 412.395741 94.082714 
L 412.801966 94.770367 
L 413.20819 94.978597 
L 413.614414 94.320903 
L 414.020639 94.068839 
L 414.833088 94.439136 
L 415.239312 94.433522 
L 415.645536 93.438334 
L 416.051761 94.433802 
L 416.457985 94.272705 
L 416.86421 93.863949 
L 417.270434 93.962942 
L 418.895332 93.056513 
L 419.301556 92.760655 
L 419.707781 93.081671 
L 420.114005 92.818471 
L 420.520229 93.235332 
L 420.926454 93.109985 
L 421.332678 93.716322 
L 421.738903 93.759809 
L 422.551351 92.992974 
L 422.957576 93.417245 
L 423.3638 93.628385 
L 423.770025 93.063934 
L 424.988698 93.535645 
L 425.394922 93.584083 
L 425.801147 92.968285 
L 426.207371 92.896866 
L 427.01982 93.260715 
L 427.832269 93.377573 
L 428.644717 93.909519 
L 429.050942 93.929195 
L 429.457166 94.579009 
L 429.863391 93.505966 
L 430.269615 93.327064 
L 430.675839 92.755674 
L 431.082064 92.586376 
L 431.488288 92.218794 
L 431.894513 92.232506 
L 432.300737 91.945282 
L 432.706962 91.333271 
L 433.113186 91.101983 
L 433.925635 91.176333 
L 434.331859 91.015016 
L 434.738084 90.271318 
L 435.144308 90.66374 
L 435.550532 90.695128 
L 435.956757 90.578191 
L 436.362981 90.977571 
L 436.769206 90.525145 
L 437.581654 90.540733 
L 437.987879 90.858077 
L 438.800328 91.026634 
L 439.612776 89.838971 
L 440.019001 89.894127 
L 440.425225 90.471688 
L 440.83145 89.257011 
L 441.237674 89.617338 
L 441.643898 89.760479 
L 442.050123 89.543853 
L 442.862572 90.473413 
L 443.268796 90.014568 
L 443.67502 90.332466 
L 444.081245 90.182074 
L 444.487469 90.461602 
L 444.893694 90.050824 
L 445.706143 89.978412 
L 446.112367 89.203995 
L 446.518591 89.128853 
L 446.924816 89.524274 
L 448.549713 89.174291 
L 448.955938 88.418965 
L 449.362162 88.882575 
L 449.768387 88.926189 
L 450.98706 88.064243 
L 451.393284 88.339887 
L 451.799509 87.945814 
L 452.205733 88.272057 
L 453.018182 89.096177 
L 453.424406 88.617723 
L 454.236855 88.844694 
L 454.643079 89.236048 
L 455.049304 89.203789 
L 455.455528 89.017618 
L 456.267977 89.913865 
L 456.674201 89.568421 
L 457.080426 89.73203 
L 458.299099 88.778093 
L 458.705324 88.263822 
L 459.111548 88.187936 
L 459.517772 87.946259 
L 459.923997 88.34319 
L 460.330221 88.305631 
L 460.736446 88.678576 
L 461.14267 88.575983 
L 461.548894 88.683061 
L 461.955119 88.605063 
L 462.361343 87.874121 
L 463.173792 88.520567 
L 463.986241 87.985156 
L 464.392465 88.240446 
L 464.79869 88.909064 
L 465.204914 88.565195 
L 465.611138 89.19105 
L 466.017363 88.755201 
L 466.423587 88.864054 
L 466.829812 88.218577 
L 467.236036 88.151035 
L 468.048485 87.570371 
L 469.673382 88.688951 
L 470.079607 88.360985 
L 470.892056 88.401635 
L 471.29828 87.799855 
L 471.704505 88.000823 
L 472.110729 87.369748 
L 472.516953 87.180934 
L 473.735627 87.466245 
L 474.548075 86.997177 
L 474.9543 86.884884 
L 475.360524 87.082863 
L 475.766749 87.577206 
L 476.172973 87.68051 
L 476.579197 87.979417 
L 477.391646 88.923945 
L 477.797871 88.755994 
L 478.204095 89.193531 
L 478.610319 88.368962 
L 479.422768 87.602172 
L 479.828993 86.616834 
L 480.235217 86.79814 
L 480.641441 87.132621 
L 481.047666 87.310061 
L 481.45389 86.679479 
L 481.860115 86.416726 
L 482.266339 86.484693 
L 482.672563 86.900426 
L 483.078788 86.817229 
L 483.891237 86.063352 
L 484.297461 85.844115 
L 484.703686 86.707599 
L 485.10991 85.994611 
L 485.516134 85.555574 
L 485.922359 84.860513 
L 486.328583 85.015313 
L 486.734808 85.392688 
L 487.141032 85.264091 
L 487.547256 85.480685 
L 487.953481 85.08882 
L 488.359705 85.764784 
L 489.172154 86.137166 
L 489.984603 86.773502 
L 490.390827 86.341715 
L 491.203276 86.647889 
L 491.6095 87.076265 
L 492.015725 86.784716 
L 492.421949 87.285342 
L 493.234398 86.791076 
L 493.640622 86.847584 
L 494.046847 86.753222 
L 494.859296 86.878218 
L 495.26552 87.248467 
L 495.671744 87.074533 
L 496.484193 87.633488 
L 496.890418 87.377488 
L 497.296642 87.65436 
L 497.702867 87.576114 
L 498.109091 87.38353 
L 498.109091 87.38353 
" style="fill:none;stroke:#2790db;stroke-linecap:square;stroke-width:3;"/>
   </g>
   <g id="matplotlib.axis_1">
    <g id="xtick_1">
     <g id="line2d_4">
      <defs>
       <path d="M 0 0 
L 0 3.5 
" id="m7637e6514d" style="stroke:#000000;stroke-width:0.8;"/>
      </defs>
      <g>
       <use style="stroke:#000000;stroke-width:0.8;" x="92.290909" xlink:href="#m7637e6514d" y="166.745455"/>
      </g>
     </g>
     <g id="text_1">
      <!-- 0 -->
      <g transform="translate(89.109659 181.343892)scale(0.1 -0.1)">
       <defs>
        <path d="M 31.78125 66.40625 
Q 24.171875 66.40625 20.328125 58.90625 
Q 16.5 51.421875 16.5 36.375 
Q 16.5 21.390625 20.328125 13.890625 
Q 24.171875 6.390625 31.78125 6.390625 
Q 39.453125 6.390625 43.28125 13.890625 
Q 47.125 21.390625 47.125 36.375 
Q 47.125 51.421875 43.28125 58.90625 
Q 39.453125 66.40625 31.78125 66.40625 
z
M 31.78125 74.21875 
Q 44.046875 74.21875 50.515625 64.515625 
Q 56.984375 54.828125 56.984375 36.375 
Q 56.984375 17.96875 50.515625 8.265625 
Q 44.046875 -1.421875 31.78125 -1.421875 
Q 19.53125 -1.421875 13.0625 8.265625 
Q 6.59375 17.96875 6.59375 36.375 
Q 6.59375 54.828125 13.0625 64.515625 
Q 19.53125 74.21875 31.78125 74.21875 
z
" id="DejaVuSans-48"/>
       </defs>
       <use xlink:href="#DejaVuSans-48"/>
      </g>
     </g>
    </g>
    <g id="xtick_2">
     <g id="line2d_5">
      <g>
       <use style="stroke:#000000;stroke-width:0.8;" x="173.53579" xlink:href="#m7637e6514d" y="166.745455"/>
      </g>
     </g>
     <g id="text_2">
      <!-- 200 -->
      <g transform="translate(163.99204 181.343892)scale(0.1 -0.1)">
       <defs>
        <path d="M 19.1875 8.296875 
L 53.609375 8.296875 
L 53.609375 0 
L 7.328125 0 
L 7.328125 8.296875 
Q 12.9375 14.109375 22.625 23.890625 
Q 32.328125 33.6875 34.8125 36.53125 
Q 39.546875 41.84375 41.421875 45.53125 
Q 43.3125 49.21875 43.3125 52.78125 
Q 43.3125 58.59375 39.234375 62.25 
Q 35.15625 65.921875 28.609375 65.921875 
Q 23.96875 65.921875 18.8125 64.3125 
Q 13.671875 62.703125 7.8125 59.421875 
L 7.8125 69.390625 
Q 13.765625 71.78125 18.9375 73 
Q 24.125 74.21875 28.421875 74.21875 
Q 39.75 74.21875 46.484375 68.546875 
Q 53.21875 62.890625 53.21875 53.421875 
Q 53.21875 48.921875 51.53125 44.890625 
Q 49.859375 40.875 45.40625 35.40625 
Q 44.1875 33.984375 37.640625 27.21875 
Q 31.109375 20.453125 19.1875 8.296875 
z
" id="DejaVuSans-50"/>
       </defs>
       <use xlink:href="#DejaVuSans-50"/>
       <use x="63.623047" xlink:href="#DejaVuSans-48"/>
       <use x="127.246094" xlink:href="#DejaVuSans-48"/>
      </g>
     </g>
    </g>
    <g id="xtick_3">
     <g id="line2d_6">
      <g>
       <use style="stroke:#000000;stroke-width:0.8;" x="254.780672" xlink:href="#m7637e6514d" y="166.745455"/>
      </g>
     </g>
     <g id="text_3">
      <!-- 400 -->
      <g transform="translate(245.236922 181.343892)scale(0.1 -0.1)">
       <defs>
        <path d="M 37.796875 64.3125 
L 12.890625 25.390625 
L 37.796875 25.390625 
z
M 35.203125 72.90625 
L 47.609375 72.90625 
L 47.609375 25.390625 
L 58.015625 25.390625 
L 58.015625 17.1875 
L 47.609375 17.1875 
L 47.609375 0 
L 37.796875 0 
L 37.796875 17.1875 
L 4.890625 17.1875 
L 4.890625 26.703125 
z
" id="DejaVuSans-52"/>
       </defs>
       <use xlink:href="#DejaVuSans-52"/>
       <use x="63.623047" xlink:href="#DejaVuSans-48"/>
       <use x="127.246094" xlink:href="#DejaVuSans-48"/>
      </g>
     </g>
    </g>
    <g id="xtick_4">
     <g id="line2d_7">
      <g>
       <use style="stroke:#000000;stroke-width:0.8;" x="336.025553" xlink:href="#m7637e6514d" y="166.745455"/>
      </g>
     </g>
     <g id="text_4">
      <!-- 600 -->
      <g transform="translate(326.481803 181.343892)scale(0.1 -0.1)">
       <defs>
        <path d="M 33.015625 40.375 
Q 26.375 40.375 22.484375 35.828125 
Q 18.609375 31.296875 18.609375 23.390625 
Q 18.609375 15.53125 22.484375 10.953125 
Q 26.375 6.390625 33.015625 6.390625 
Q 39.65625 6.390625 43.53125 10.953125 
Q 47.40625 15.53125 47.40625 23.390625 
Q 47.40625 31.296875 43.53125 35.828125 
Q 39.65625 40.375 33.015625 40.375 
z
M 52.59375 71.296875 
L 52.59375 62.3125 
Q 48.875 64.0625 45.09375 64.984375 
Q 41.3125 65.921875 37.59375 65.921875 
Q 27.828125 65.921875 22.671875 59.328125 
Q 17.53125 52.734375 16.796875 39.40625 
Q 19.671875 43.65625 24.015625 45.921875 
Q 28.375 48.1875 33.59375 48.1875 
Q 44.578125 48.1875 50.953125 41.515625 
Q 57.328125 34.859375 57.328125 23.390625 
Q 57.328125 12.15625 50.6875 5.359375 
Q 44.046875 -1.421875 33.015625 -1.421875 
Q 20.359375 -1.421875 13.671875 8.265625 
Q 6.984375 17.96875 6.984375 36.375 
Q 6.984375 53.65625 15.1875 63.9375 
Q 23.390625 74.21875 37.203125 74.21875 
Q 40.921875 74.21875 44.703125 73.484375 
Q 48.484375 72.75 52.59375 71.296875 
z
" id="DejaVuSans-54"/>
       </defs>
       <use xlink:href="#DejaVuSans-54"/>
       <use x="63.623047" xlink:href="#DejaVuSans-48"/>
       <use x="127.246094" xlink:href="#DejaVuSans-48"/>
      </g>
     </g>
    </g>
    <g id="xtick_5">
     <g id="line2d_8">
      <g>
       <use style="stroke:#000000;stroke-width:0.8;" x="417.270434" xlink:href="#m7637e6514d" y="166.745455"/>
      </g>
     </g>
     <g id="text_5">
      <!-- 800 -->
      <g transform="translate(407.726684 181.343892)scale(0.1 -0.1)">
       <defs>
        <path d="M 31.78125 34.625 
Q 24.75 34.625 20.71875 30.859375 
Q 16.703125 27.09375 16.703125 20.515625 
Q 16.703125 13.921875 20.71875 10.15625 
Q 24.75 6.390625 31.78125 6.390625 
Q 38.8125 6.390625 42.859375 10.171875 
Q 46.921875 13.96875 46.921875 20.515625 
Q 46.921875 27.09375 42.890625 30.859375 
Q 38.875 34.625 31.78125 34.625 
z
M 21.921875 38.8125 
Q 15.578125 40.375 12.03125 44.71875 
Q 8.5 49.078125 8.5 55.328125 
Q 8.5 64.0625 14.71875 69.140625 
Q 20.953125 74.21875 31.78125 74.21875 
Q 42.671875 74.21875 48.875 69.140625 
Q 55.078125 64.0625 55.078125 55.328125 
Q 55.078125 49.078125 51.53125 44.71875 
Q 48 40.375 41.703125 38.8125 
Q 48.828125 37.15625 52.796875 32.3125 
Q 56.78125 27.484375 56.78125 20.515625 
Q 56.78125 9.90625 50.3125 4.234375 
Q 43.84375 -1.421875 31.78125 -1.421875 
Q 19.734375 -1.421875 13.25 4.234375 
Q 6.78125 9.90625 6.78125 20.515625 
Q 6.78125 27.484375 10.78125 32.3125 
Q 14.796875 37.15625 21.921875 38.8125 
z
M 18.3125 54.390625 
Q 18.3125 48.734375 21.84375 45.5625 
Q 25.390625 42.390625 31.78125 42.390625 
Q 38.140625 42.390625 41.71875 45.5625 
Q 45.3125 48.734375 45.3125 54.390625 
Q 45.3125 60.0625 41.71875 63.234375 
Q 38.140625 66.40625 31.78125 66.40625 
Q 25.390625 66.40625 21.84375 63.234375 
Q 18.3125 60.0625 18.3125 54.390625 
z
" id="DejaVuSans-56"/>
       </defs>
       <use xlink:href="#DejaVuSans-56"/>
       <use x="63.623047" xlink:href="#DejaVuSans-48"/>
       <use x="127.246094" xlink:href="#DejaVuSans-48"/>
      </g>
     </g>
    </g>
    <g id="xtick_6">
     <g id="line2d_9">
      <g>
       <use style="stroke:#000000;stroke-width:0.8;" x="498.515315" xlink:href="#m7637e6514d" y="166.745455"/>
      </g>
     </g>
     <g id="text_6">
      <!-- 1000 -->
      <g transform="translate(485.790315 181.343892)scale(0.1 -0.1)">
       <defs>
        <path d="M 12.40625 8.296875 
L 28.515625 8.296875 
L 28.515625 63.921875 
L 10.984375 60.40625 
L 10.984375 69.390625 
L 28.421875 72.90625 
L 38.28125 72.90625 
L 38.28125 8.296875 
L 54.390625 8.296875 
L 54.390625 0 
L 12.40625 0 
z
" id="DejaVuSans-49"/>
       </defs>
       <use xlink:href="#DejaVuSans-49"/>
       <use x="63.623047" xlink:href="#DejaVuSans-48"/>
       <use x="127.246094" xlink:href="#DejaVuSans-48"/>
       <use x="190.869141" xlink:href="#DejaVuSans-48"/>
      </g>
     </g>
    </g>
   </g>
   <g id="matplotlib.axis_2">
    <g id="ytick_1">
     <g id="line2d_10">
      <defs>
       <path d="M 0 0 
L -3.5 0 
" id="m929e043c42" style="stroke:#000000;stroke-width:0.8;"/>
      </defs>
      <g>
       <use style="stroke:#000000;stroke-width:0.8;" x="72" xlink:href="#m929e043c42" y="165.834962"/>
      </g>
     </g>
     <g id="text_7">
      <!-- 10 -->
      <g transform="translate(52.275 169.634181)scale(0.1 -0.1)">
       <use xlink:href="#DejaVuSans-49"/>
       <use x="63.623047" xlink:href="#DejaVuSans-48"/>
      </g>
     </g>
    </g>
    <g id="ytick_2">
     <g id="line2d_11">
      <g>
       <use style="stroke:#000000;stroke-width:0.8;" x="72" xlink:href="#m929e043c42" y="138.375421"/>
      </g>
     </g>
     <g id="text_8">
      <!-- 20 -->
      <g transform="translate(52.275 142.17464)scale(0.1 -0.1)">
       <use xlink:href="#DejaVuSans-50"/>
       <use x="63.623047" xlink:href="#DejaVuSans-48"/>
      </g>
     </g>
    </g>
    <g id="ytick_3">
     <g id="line2d_12">
      <g>
       <use style="stroke:#000000;stroke-width:0.8;" x="72" xlink:href="#m929e043c42" y="110.91588"/>
      </g>
     </g>
     <g id="text_9">
      <!-- 30 -->
      <g transform="translate(52.275 114.715099)scale(0.1 -0.1)">
       <defs>
        <path d="M 40.578125 39.3125 
Q 47.65625 37.796875 51.625 33 
Q 55.609375 28.21875 55.609375 21.1875 
Q 55.609375 10.40625 48.1875 4.484375 
Q 40.765625 -1.421875 27.09375 -1.421875 
Q 22.515625 -1.421875 17.65625 -0.515625 
Q 12.796875 0.390625 7.625 2.203125 
L 7.625 11.71875 
Q 11.71875 9.328125 16.59375 8.109375 
Q 21.484375 6.890625 26.8125 6.890625 
Q 36.078125 6.890625 40.9375 10.546875 
Q 45.796875 14.203125 45.796875 21.1875 
Q 45.796875 27.640625 41.28125 31.265625 
Q 36.765625 34.90625 28.71875 34.90625 
L 20.21875 34.90625 
L 20.21875 43.015625 
L 29.109375 43.015625 
Q 36.375 43.015625 40.234375 45.921875 
Q 44.09375 48.828125 44.09375 54.296875 
Q 44.09375 59.90625 40.109375 62.90625 
Q 36.140625 65.921875 28.71875 65.921875 
Q 24.65625 65.921875 20.015625 65.03125 
Q 15.375 64.15625 9.8125 62.3125 
L 9.8125 71.09375 
Q 15.4375 72.65625 20.34375 73.4375 
Q 25.25 74.21875 29.59375 74.21875 
Q 40.828125 74.21875 47.359375 69.109375 
Q 53.90625 64.015625 53.90625 55.328125 
Q 53.90625 49.265625 50.4375 45.09375 
Q 46.96875 40.921875 40.578125 39.3125 
z
" id="DejaVuSans-51"/>
       </defs>
       <use xlink:href="#DejaVuSans-51"/>
       <use x="63.623047" xlink:href="#DejaVuSans-48"/>
      </g>
     </g>
    </g>
    <g id="ytick_4">
     <g id="line2d_13">
      <g>
       <use style="stroke:#000000;stroke-width:0.8;" x="72" xlink:href="#m929e043c42" y="83.456339"/>
      </g>
     </g>
     <g id="text_10">
      <!-- 40 -->
      <g transform="translate(52.275 87.255558)scale(0.1 -0.1)">
       <use xlink:href="#DejaVuSans-52"/>
       <use x="63.623047" xlink:href="#DejaVuSans-48"/>
      </g>
     </g>
    </g>
    <g id="ytick_5">
     <g id="line2d_14">
      <g>
       <use style="stroke:#000000;stroke-width:0.8;" x="72" xlink:href="#m929e043c42" y="55.996798"/>
      </g>
     </g>
     <g id="text_11">
      <!-- 50 -->
      <g transform="translate(52.275 59.796017)scale(0.1 -0.1)">
       <defs>
        <path d="M 10.796875 72.90625 
L 49.515625 72.90625 
L 49.515625 64.59375 
L 19.828125 64.59375 
L 19.828125 46.734375 
Q 21.96875 47.46875 24.109375 47.828125 
Q 26.265625 48.1875 28.421875 48.1875 
Q 40.625 48.1875 47.75 41.5 
Q 54.890625 34.8125 54.890625 23.390625 
Q 54.890625 11.625 47.5625 5.09375 
Q 40.234375 -1.421875 26.90625 -1.421875 
Q 22.3125 -1.421875 17.546875 -0.640625 
Q 12.796875 0.140625 7.71875 1.703125 
L 7.71875 11.625 
Q 12.109375 9.234375 16.796875 8.0625 
Q 21.484375 6.890625 26.703125 6.890625 
Q 35.15625 6.890625 40.078125 11.328125 
Q 45.015625 15.765625 45.015625 23.390625 
Q 45.015625 31 40.078125 35.4375 
Q 35.15625 39.890625 26.703125 39.890625 
Q 22.75 39.890625 18.8125 39.015625 
Q 14.890625 38.140625 10.796875 36.28125 
z
" id="DejaVuSans-53"/>
       </defs>
       <use xlink:href="#DejaVuSans-53"/>
       <use x="63.623047" xlink:href="#DejaVuSans-48"/>
      </g>
     </g>
    </g>
   </g>
   <g id="patch_3">
    <path d="M 72 166.745455 
L 72 43.2 
" style="fill:none;stroke:#000000;stroke-linecap:square;stroke-linejoin:miter;stroke-width:0.8;"/>
   </g>
   <g id="patch_4">
    <path d="M 518.4 166.745455 
L 518.4 43.2 
" style="fill:none;stroke:#000000;stroke-linecap:square;stroke-linejoin:miter;stroke-width:0.8;"/>
   </g>
   <g id="patch_5">
    <path d="M 72 166.745455 
L 518.4 166.745455 
" style="fill:none;stroke:#000000;stroke-linecap:square;stroke-linejoin:miter;stroke-width:0.8;"/>
   </g>
   <g id="patch_6">
    <path d="M 72 43.2 
L 518.4 43.2 
" style="fill:none;stroke:#000000;stroke-linecap:square;stroke-linejoin:miter;stroke-width:0.8;"/>
   </g>
  </g>
  <g id="axes_2">
   <g id="patch_7">
    <path d="M 72 315 
L 518.4 315 
L 518.4 191.454545 
L 72 191.454545 
z
" style="fill:none;"/>
   </g>
   <g id="line2d_15">
    <path clip-path="url(#p723bcb3359)" d="M 125.60131 300.565515 
L 126.007535 301.287341 
L 126.413759 298.441051 
L 126.819984 304.848461 
L 127.226208 305.669579 
L 127.632432 304.992298 
L 128.038657 294.474234 
L 128.444881 288.261342 
L 128.851106 290.128352 
L 129.25733 289.768421 
L 129.663554 288.549077 
L 130.476003 278.078885 
L 130.882228 285.242019 
L 131.288452 286.560838 
L 131.694676 282.959374 
L 132.100901 281.197605 
L 132.507125 280.312361 
L 132.91335 278.294677 
L 133.319574 278.1134 
L 133.725799 284.025534 
L 134.132023 282.441798 
L 134.538247 284.046592 
L 134.944472 287.661918 
L 135.350696 289.034421 
L 135.756921 286.183868 
L 136.163145 284.130315 
L 136.569369 280.566215 
L 136.975594 288.490774 
L 137.381818 287.363121 
L 137.788043 291.621238 
L 138.194267 293.751252 
L 138.600491 292.149654 
L 139.006716 292.021996 
L 139.41294 292.802036 
L 139.819165 292.993134 
L 140.225389 296.021132 
L 140.631613 291.166748 
L 141.037838 291.79245 
L 141.444062 283.732305 
L 142.256511 274.585545 
L 142.662735 274.742471 
L 143.06896 274.693828 
L 143.475184 272.075016 
L 143.881409 271.59764 
L 144.287633 265.632759 
L 144.693857 261.486369 
L 145.100082 261.294834 
L 145.506306 259.119887 
L 145.912531 257.78102 
L 147.131204 246.688887 
L 147.537428 247.5658 
L 147.943653 256.461692 
L 148.349877 254.689736 
L 148.756102 252.345867 
L 149.162326 254.683713 
L 149.56855 252.911394 
L 149.974775 255.824883 
L 150.380999 252.424585 
L 150.787224 251.609802 
L 151.193448 253.779437 
L 151.599672 253.764554 
L 152.005897 251.28476 
L 152.412121 255.41286 
L 152.818346 262.963964 
L 153.22457 258.17256 
L 153.630794 255.216062 
L 154.037019 261.536067 
L 154.443243 261.54555 
L 154.849468 262.50722 
L 155.255692 258.408536 
L 155.661916 253.058657 
L 156.474365 248.074282 
L 156.88059 254.276183 
L 157.286814 251.170262 
L 157.693038 249.390093 
L 158.505487 260.245638 
L 158.911712 252.552587 
L 159.724161 244.380596 
L 160.130385 248.093595 
L 160.536609 246.201341 
L 160.942834 248.330849 
L 161.349058 246.313855 
L 161.755283 245.360713 
L 162.161507 245.626267 
L 162.567731 251.477687 
L 162.973956 250.901469 
L 163.38018 248.173721 
L 163.786405 247.163236 
L 164.192629 251.824976 
L 164.598853 240.21877 
L 165.005078 237.243782 
L 165.411302 227.777023 
L 165.817527 223.577331 
L 166.223751 221.984483 
L 166.629975 227.557234 
L 167.0362 231.02717 
L 167.442424 231.884851 
L 167.848649 232.455957 
L 168.254873 229.940081 
L 168.661097 228.357976 
L 169.067322 240.347108 
L 169.473546 241.212626 
L 169.879771 240.29275 
L 170.285995 238.729056 
L 170.692219 242.469828 
L 171.098444 240.732458 
L 171.504668 239.890563 
L 171.910893 240.298448 
L 172.317117 238.475807 
L 172.723342 237.499821 
L 173.129566 239.23478 
L 173.53579 238.930552 
L 173.942015 236.657956 
L 174.754464 233.611947 
L 175.160688 232.671928 
L 175.973137 226.104467 
L 176.379361 231.43061 
L 176.785586 234.331919 
L 177.19181 232.617933 
L 177.598034 232.206333 
L 178.004259 237.821154 
L 178.410483 233.494641 
L 178.816708 238.044249 
L 179.222932 237.597514 
L 180.035381 227.339803 
L 180.84783 237.261977 
L 181.254054 234.355011 
L 181.660278 227.832883 
L 181.660278 227.832883 
" style="fill:none;stroke:#db403d;stroke-linecap:square;stroke-width:3;"/>
   </g>
   <g id="line2d_16">
    <path clip-path="url(#p723bcb3359)" d="M 230.813432 233.957084 
L 231.219656 235.580687 
L 231.62588 232.523503 
L 232.032105 227.733354 
L 232.438329 221.579911 
L 232.844554 218.870849 
L 233.250778 215.583257 
L 233.657002 215.475533 
L 234.063227 214.223155 
L 234.469451 206.985216 
L 234.875676 207.787381 
L 235.2819 212.274924 
L 235.688124 211.693128 
L 236.094349 213.14134 
L 236.500573 216.934902 
L 236.906798 221.536097 
L 237.313022 220.267078 
L 237.719247 220.86022 
L 238.125471 222.357379 
L 238.531695 216.877288 
L 238.93792 221.557908 
L 239.344144 226.899092 
L 239.750369 225.649977 
L 240.156593 224.027816 
L 240.562817 222.65785 
L 240.969042 229.370806 
L 241.375266 230.268335 
L 241.781491 226.954004 
L 242.187715 222.017709 
L 242.593939 229.642093 
L 243.000164 234.183627 
L 243.406388 235.982352 
L 243.812613 236.022759 
L 244.218837 241.942825 
L 244.625061 241.238506 
L 245.031286 244.84485 
L 245.43751 243.508981 
L 245.843735 240.466411 
L 246.249959 237.318083 
L 246.656183 237.414712 
L 247.062408 242.587241 
L 247.468632 240.889439 
L 247.874857 236.182754 
L 248.281081 241.085171 
L 248.687305 235.456342 
L 249.09353 242.309123 
L 249.499754 251.83826 
L 249.905979 255.751035 
L 250.312203 249.036132 
L 250.718428 247.203664 
L 251.124652 242.318471 
L 251.530876 237.391529 
L 251.937101 237.595216 
L 252.343325 238.217985 
L 252.74955 234.985354 
L 253.155774 239.347273 
L 253.561998 236.834773 
L 253.968223 232.993287 
L 254.374447 227.481373 
L 254.780672 218.183565 
L 255.186896 220.940126 
L 255.59312 226.24416 
L 255.999345 224.684407 
L 256.405569 223.81132 
L 256.811794 221.649468 
L 257.218018 219.337313 
" style="fill:none;stroke:#db403d;stroke-linecap:square;stroke-width:3;"/>
   </g>
   <g id="line2d_17">
    <path clip-path="url(#p723bcb3359)" d="M 307.18362 244.069314 
L 307.589844 244.05201 
L 307.996069 247.485116 
L 308.402293 244.446496 
L 308.808518 249.14971 
L 309.214742 253.262277 
L 309.620966 252.690572 
L 310.027191 253.195109 
L 310.433415 255.864844 
L 310.83964 250.213095 
L 311.245864 250.533926 
L 311.652088 250.27328 
L 312.058313 251.060577 
L 312.464537 251.603225 
L 312.870762 257.62675 
L 313.276986 264.326898 
L 313.68321 265.285218 
L 314.089435 266.75256 
L 314.495659 272.982922 
L 314.901884 279.250635 
L 315.308108 272.020246 
L 315.714333 270.282607 
L 316.120557 271.880724 
L 316.526781 272.120927 
L 316.933006 268.622944 
L 317.33923 279.753917 
L 317.745455 279.08605 
L 318.151679 274.321956 
L 318.557903 269.848787 
L 318.964128 272.83998 
L 319.370352 272.445081 
L 319.776577 274.603112 
L 320.182801 271.353772 
L 320.589025 271.691474 
L 320.99525 266.014667 
L 321.401474 269.32671 
L 321.807699 274.420515 
L 322.213923 273.044011 
L 322.620147 269.033916 
L 323.026372 268.246641 
L 323.432596 264.190891 
L 323.838821 264.57432 
L 324.245045 270.714311 
L 324.651269 269.427924 
L 325.057494 273.329369 
L 325.463718 266.500362 
L 325.869943 273.234633 
L 326.276167 269.091763 
L 326.682391 261.560692 
L 327.088616 259.617743 
L 327.49484 261.790481 
L 327.901065 265.41174 
L 328.307289 263.184121 
L 328.713514 266.129951 
L 329.119738 265.078945 
L 329.525962 260.637902 
L 329.932187 264.765249 
L 330.338411 264.362694 
L 330.744636 263.672171 
L 331.15086 263.225552 
L 331.557084 269.460458 
L 331.963309 272.034764 
L 332.369533 275.96803 
L 332.775758 280.356973 
L 333.181982 281.088066 
L 333.588206 277.208807 
L 333.994431 271.986533 
L 334.400655 268.72032 
L 334.80688 269.61086 
L 335.213104 267.876417 
L 335.619328 275.60525 
L 336.025553 269.469001 
L 336.431777 266.698884 
L 336.838002 270.697233 
L 337.244226 266.45766 
L 337.65045 260.936595 
L 338.056675 263.517138 
L 338.462899 258.231744 
L 338.869124 256.207993 
L 339.275348 256.889247 
L 339.681572 254.555697 
L 340.087797 251.939511 
L 340.494021 255.273101 
L 340.900246 254.550862 
L 341.30647 259.595404 
L 341.712695 262.945416 
L 342.118919 265.204761 
L 342.525143 266.048004 
L 342.931368 264.966613 
L 343.337592 269.288309 
L 343.743817 265.284828 
L 344.150041 266.10971 
L 344.556265 268.003638 
L 344.96249 264.479202 
L 345.368714 262.377353 
L 345.774939 265.009908 
L 346.181163 268.600182 
L 346.587387 268.741986 
L 346.993612 270.181826 
L 347.399836 270.73158 
L 347.806061 269.622267 
L 348.212285 264.907399 
L 348.618509 260.875186 
L 349.024734 262.812727 
L 349.430958 260.576593 
L 349.837183 255.924737 
" style="fill:none;stroke:#db403d;stroke-linecap:square;stroke-width:3;"/>
   </g>
   <g id="line2d_18">
    <path clip-path="url(#p723bcb3359)" d="M 349.837183 255.924737 
L 350.243407 256.30355 
L 350.649631 260.238467 
L 351.055856 259.666929 
L 351.46208 264.035384 
L 351.868305 263.647821 
L 352.274529 265.014145 
L 352.680753 262.186653 
L 353.086978 262.560458 
L 353.493202 266.041308 
L 353.899427 266.977559 
L 354.305651 265.044335 
L 354.711876 266.133896 
L 355.1181 270.366951 
L 355.524324 269.091669 
L 355.930549 267.47295 
L 356.336773 266.971765 
L 356.742998 265.508788 
L 357.149222 273.761859 
L 357.555446 273.752067 
L 357.961671 279.555042 
L 358.367895 273.941264 
L 358.77412 276.456327 
" style="fill:none;stroke:#db403d;stroke-linecap:square;stroke-width:3;"/>
   </g>
   <g id="line2d_19">
    <path clip-path="url(#p723bcb3359)" d="M 358.77412 276.456327 
L 359.180344 279.323891 
L 359.586568 276.930242 
L 359.992793 282.053394 
L 360.399017 274.418132 
L 360.805242 275.582234 
L 361.211466 282.850121 
L 361.61769 281.209828 
L 362.430139 267.68092 
L 362.836364 266.481681 
L 363.242588 264.59292 
L 363.648812 269.713897 
L 364.055037 271.246095 
L 364.461261 277.678043 
L 364.867486 280.19899 
L 365.27371 286.286185 
L 365.679934 287.491523 
L 366.086159 289.927122 
L 366.492383 287.677131 
L 366.898608 290.331769 
L 367.304832 287.526772 
L 367.711057 291.212953 
L 368.117281 289.233786 
L 368.523505 289.871681 
L 368.92973 289.73054 
L 369.335954 283.883361 
L 369.742179 286.72913 
L 370.148403 291.240813 
L 370.960852 287.66851 
L 371.367076 283.783847 
L 371.773301 285.766036 
L 372.179525 289.912567 
L 372.991974 284.254053 
L 373.398198 288.016827 
L 373.804423 285.823271 
L 374.210647 289.790067 
L 374.616871 292.473764 
L 375.023096 290.848497 
L 375.42932 290.151023 
L 375.835545 287.569806 
L 376.241769 284.222711 
L 376.647993 286.7396 
L 377.054218 286.194966 
L 377.460442 283.915933 
L 377.866667 283.798355 
L 378.679115 270.711978 
L 379.08534 269.957903 
L 379.491564 272.059232 
L 379.897789 271.573743 
L 380.304013 274.195619 
L 380.710238 282.654515 
L 381.116462 288.541052 
L 381.522686 286.053451 
L 381.928911 286.422018 
L 382.335135 282.114076 
L 382.74136 285.677254 
L 383.147584 286.436869 
L 383.553808 294.127732 
L 383.960033 290.924821 
L 384.366257 290.807595 
L 384.772482 286.825882 
L 385.178706 288.172455 
L 385.58493 280.319277 
L 385.991155 277.037366 
L 386.397379 283.484836 
L 386.803604 285.39465 
L 387.209828 283.930535 
L 387.616052 280.604723 
L 388.428501 267.046328 
L 388.834726 270.253078 
L 389.24095 267.616156 
L 389.647174 269.497933 
L 390.053399 273.700099 
L 390.459623 267.425132 
L 390.865848 273.62029 
L 391.272072 274.015927 
L 391.678296 273.587645 
L 392.084521 274.80644 
L 392.490745 279.388272 
L 392.89697 280.536056 
L 393.303194 276.86353 
L 393.709419 279.770564 
L 394.115643 283.652419 
L 394.928092 287.202746 
L 395.334316 293.174661 
L 395.740541 292.536405 
L 396.146765 285.214718 
L 396.552989 287.054268 
L 396.959214 295.511334 
L 397.365438 296.879436 
L 397.771663 296.388666 
L 398.177887 296.188324 
L 398.584111 293.528813 
L 399.39656 297.333533 
L 399.802785 299.958019 
L 400.209009 300.086529 
L 400.615233 300.45859 
L 401.021458 299.514474 
L 401.427682 294.099008 
L 401.833907 293.131845 
L 402.240131 290.737199 
L 402.646355 292.967668 
L 403.05258 289.457106 
L 403.865029 286.702958 
L 404.271253 287.301402 
L 404.677477 296.299623 
L 405.083702 290.81614 
L 405.489926 288.260845 
L 405.896151 292.513576 
L 406.7086 271.635368 
L 407.114824 278.77389 
L 407.521048 272.724777 
L 407.927273 274.588239 
L 408.333497 277.128617 
L 408.739722 270.339539 
L 409.145946 267.524712 
L 409.55217 269.502467 
L 409.958395 270.046019 
L 410.364619 266.866386 
L 410.770844 267.823475 
L 411.177068 268.117157 
L 411.583292 268.103924 
L 411.989517 268.799243 
L 412.395741 275.802952 
L 412.801966 279.237825 
L 413.20819 276.781076 
L 414.020639 281.765244 
L 414.426863 277.948319 
L 414.833088 277.558117 
L 415.239312 269.978211 
L 415.645536 271.623255 
L 416.051761 265.890824 
L 416.457985 270.341864 
L 416.86421 269.897977 
L 417.270434 263.269488 
L 417.676658 269.43413 
L 418.082883 261.716457 
L 418.489107 261.807036 
L 418.895332 260.947317 
L 419.301556 264.667881 
L 419.707781 266.277107 
L 420.114005 263.448131 
L 420.520229 263.95908 
L 420.926454 268.567203 
L 421.332678 265.525414 
L 421.738903 265.799758 
L 422.145127 269.713073 
L 422.551351 265.596897 
L 422.957576 263.353148 
L 423.3638 252.234391 
L 423.770025 255.617323 
L 424.176249 255.062104 
L 424.582473 247.781131 
L 424.988698 250.397318 
L 425.394922 249.694691 
L 425.801147 252.584131 
L 426.207371 254.649594 
L 426.613595 252.030355 
L 427.01982 253.393384 
L 427.426044 252.644447 
L 427.832269 248.521731 
L 428.238493 253.286399 
L 428.644717 252.942713 
L 429.050942 243.2595 
L 429.050942 243.2595 
" style="fill:none;stroke:#db403d;stroke-linecap:square;stroke-width:3;"/>
   </g>
   <g id="line2d_20">
    <path clip-path="url(#p723bcb3359)" d="M 92.290909 265.302743 
L 92.697133 267.566861 
L 93.103358 273.60401 
L 93.509582 273.495862 
L 93.915807 271.688049 
L 94.322031 270.995881 
L 94.728256 268.029641 
L 95.13448 268.799758 
L 95.540704 269.471094 
L 95.946929 273.189785 
L 96.353153 277.399993 
L 96.759378 282.136719 
L 97.165602 286.985587 
L 97.571826 287.075696 
L 97.978051 281.606958 
L 98.384275 280.247571 
L 98.7905 280.270984 
L 99.196724 278.162738 
L 99.602948 281.100514 
L 100.009173 280.835314 
L 100.415397 278.897444 
L 100.821622 280.138762 
L 101.227846 279.545695 
L 101.63407 283.114861 
L 102.040295 281.050939 
L 102.446519 281.53295 
L 102.852744 282.997318 
L 103.258968 279.075981 
L 103.665192 280.004227 
L 104.071417 281.203228 
L 104.477641 280.47904 
L 104.883866 277.554258 
L 105.29009 277.782154 
L 105.696314 274.355066 
L 106.102539 276.679665 
L 106.508763 280.175006 
L 106.914988 276.858966 
L 107.321212 273.007823 
L 107.727437 277.378815 
L 108.133661 283.799682 
L 108.539885 283.050093 
L 108.94611 282.162145 
L 109.352334 285.932266 
L 109.758559 285.656004 
L 110.164783 282.199996 
L 110.571007 279.342457 
L 110.977232 278.126002 
L 111.383456 280.85589 
L 111.789681 282.127671 
L 112.195905 284.502791 
L 112.602129 283.80921 
L 113.008354 282.437368 
L 113.414578 285.687317 
L 113.820803 288.994984 
L 114.227027 288.591972 
L 114.633251 285.674788 
L 115.039476 290.488219 
L 115.4457 289.972314 
L 115.851925 291.331648 
L 116.258149 290.007221 
L 116.664373 288.609863 
L 117.070598 290.007374 
L 117.476822 292.037252 
L 117.883047 292.765332 
L 118.289271 293.31758 
L 118.695495 290.688109 
L 119.10172 296.212775 
L 119.507944 297.440074 
L 119.914169 300.197389 
L 120.320393 300.401072 
L 120.726618 305.116751 
L 121.132842 304.849954 
L 121.539066 305.745834 
L 121.945291 305.569634 
L 122.351515 303.120368 
L 122.75774 305.218013 
L 123.163964 300.017535 
L 123.570188 309.384298 
L 123.976413 304.101755 
L 124.382637 303.238722 
L 124.788862 299.351897 
L 125.195086 297.510288 
L 125.60131 300.565515 
" style="fill:none;stroke:#2790db;stroke-linecap:square;stroke-width:3;"/>
   </g>
   <g id="line2d_21">
    <path clip-path="url(#p723bcb3359)" d="M 181.660278 227.832883 
L 182.066503 231.122591 
L 182.472727 229.849053 
L 182.878952 231.278274 
L 183.285176 232.27054 
L 183.6914 231.628074 
L 184.097625 236.33283 
L 184.503849 235.804276 
L 184.910074 237.306108 
L 185.316298 236.826282 
L 185.722523 233.979784 
L 186.128747 236.739664 
L 186.534971 238.846751 
L 186.941196 239.653445 
L 187.34742 235.895792 
L 187.753645 234.085702 
L 188.159869 237.292633 
L 188.566093 237.664067 
L 188.972318 237.305059 
L 189.378542 234.670076 
L 189.784767 237.925868 
L 190.190991 239.703004 
L 190.597215 241.875552 
L 191.00344 237.544379 
L 191.409664 240.381708 
L 191.815889 240.045405 
L 192.222113 236.995831 
L 192.628337 237.3184 
L 193.034562 233.636432 
L 193.440786 233.491755 
L 193.847011 237.67087 
L 194.253235 236.827615 
L 194.659459 238.039371 
L 195.065684 237.832603 
L 195.471908 236.273438 
L 195.878133 236.024459 
L 196.284357 231.863777 
L 196.690581 229.541069 
L 197.096806 228.45952 
L 197.50303 226.783303 
L 197.909255 225.854074 
L 198.315479 223.552823 
L 198.721704 222.267296 
L 199.127928 221.588069 
L 199.534152 223.144284 
L 199.940377 222.74324 
L 200.346601 227.596288 
L 200.752826 229.376644 
L 201.15905 229.725211 
L 201.565274 227.263645 
L 201.971499 224.439789 
L 202.377723 221.907741 
L 202.783948 221.566735 
L 203.190172 217.026848 
L 203.596396 220.089075 
L 204.002621 218.595103 
L 204.408845 217.903109 
L 204.81507 219.191538 
L 205.221294 220.286495 
L 205.627518 216.146044 
L 206.033743 215.102384 
L 206.439967 220.311273 
L 206.846192 219.479232 
L 207.252416 219.696825 
L 207.65864 217.872507 
L 208.064865 218.458633 
L 208.471089 220.340306 
L 208.877314 222.16493 
L 209.283538 219.920582 
L 209.689762 219.910511 
L 210.095987 220.568317 
L 210.502211 229.026088 
L 210.908436 228.190615 
L 211.31466 223.801743 
L 211.720885 222.268116 
L 212.127109 225.507347 
L 212.533333 229.509512 
L 212.939558 223.975916 
L 213.345782 229.642746 
L 213.752007 230.545321 
L 214.158231 233.386815 
L 214.564455 239.127084 
L 214.97068 239.074446 
L 215.376904 238.850148 
L 215.783129 242.291209 
L 216.189353 244.951908 
L 216.595577 244.703047 
L 217.001802 243.073934 
L 217.408026 244.969063 
L 217.814251 244.084938 
L 218.220475 241.78077 
L 218.626699 241.633108 
L 219.032924 243.677753 
L 219.439148 234.577269 
L 219.845373 237.198536 
L 220.251597 238.141023 
L 220.657821 238.117242 
L 221.064046 238.597021 
L 221.47027 237.196146 
L 221.876495 241.028414 
L 222.282719 242.396534 
L 222.688943 238.037264 
L 223.095168 237.244388 
L 223.501392 233.73215 
L 223.907617 230.77648 
L 224.313841 229.576138 
L 224.720066 228.923081 
L 225.12629 229.075979 
L 225.532514 228.693303 
L 225.938739 229.558144 
L 226.344963 233.437126 
L 226.751188 234.279296 
L 227.157412 235.116009 
L 227.563636 235.528369 
L 227.969861 235.661978 
L 228.376085 234.287442 
L 228.78231 232.633644 
L 229.188534 231.351543 
L 229.594758 234.888377 
L 230.000983 234.762515 
L 230.407207 235.355178 
L 230.813432 233.957084 
" style="fill:none;stroke:#2790db;stroke-linecap:square;stroke-width:3;"/>
   </g>
   <g id="line2d_22">
    <path clip-path="url(#p723bcb3359)" d="M 257.218018 219.337313 
L 257.624242 226.542727 
L 258.030467 227.713733 
L 258.436691 225.184063 
L 258.842916 227.334251 
L 259.24914 227.803714 
L 259.655364 229.298986 
L 260.061589 227.776691 
L 260.467813 228.277384 
L 260.874038 230.262623 
L 261.280262 233.746749 
L 261.686486 233.489108 
L 262.092711 236.302244 
L 262.498935 235.061173 
L 262.90516 237.98842 
L 263.311384 236.345492 
L 263.717609 233.631539 
L 264.123833 230.428939 
L 264.530057 231.322849 
L 264.936282 236.661532 
L 265.342506 234.917595 
L 265.748731 235.772275 
L 266.154955 232.603412 
L 266.561179 234.531073 
L 266.967404 231.411145 
L 267.373628 232.138326 
L 267.779853 232.959536 
L 268.186077 228.774774 
L 268.592301 226.825822 
L 268.998526 224.992194 
L 269.40475 224.543154 
L 269.810975 222.512151 
L 270.217199 221.194634 
L 270.623423 221.431509 
L 271.029648 224.647853 
L 271.435872 226.661953 
L 271.842097 225.446851 
L 272.248321 226.74882 
L 272.654545 224.396369 
L 273.06077 223.321039 
L 273.466994 217.770246 
L 273.873219 220.608329 
L 274.279443 221.554126 
L 274.685667 219.30791 
L 275.091892 220.110565 
L 275.498116 224.306641 
L 275.904341 220.20053 
L 276.310565 219.317597 
L 276.71679 220.231334 
L 277.123014 214.541723 
L 277.529238 216.989816 
L 277.935463 220.774896 
L 278.341687 220.170446 
L 278.747912 217.283952 
L 279.154136 212.934884 
L 279.56036 216.0347 
L 279.966585 213.387309 
L 280.372809 214.023874 
L 280.779034 214.789917 
L 281.185258 217.962114 
L 281.591482 215.291269 
L 281.997707 220.567298 
L 282.403931 222.505199 
L 282.810156 225.380309 
L 283.21638 219.503979 
L 283.622604 219.434005 
L 284.028829 223.184708 
L 284.435053 221.57833 
L 284.841278 219.213141 
L 285.247502 221.15771 
L 285.653726 220.682775 
L 286.059951 218.742522 
L 286.466175 218.174501 
L 286.8724 216.374088 
L 287.278624 217.229812 
L 287.684848 214.607774 
L 288.091073 213.425147 
L 288.497297 215.546624 
L 288.903522 209.699688 
L 289.309746 210.086621 
L 289.715971 209.935935 
L 290.122195 209.628729 
L 290.528419 208.559119 
L 290.934644 210.193492 
L 291.340868 213.889746 
L 291.747093 212.162849 
L 292.153317 215.305171 
L 292.559541 218.579164 
L 292.965766 214.9935 
L 293.37199 214.352409 
L 293.778215 215.155728 
L 294.184439 219.710414 
L 294.590663 217.197717 
L 294.996888 216.122925 
L 295.403112 218.84325 
L 295.809337 220.588482 
L 296.215561 219.608021 
L 296.621785 221.921761 
L 297.02801 222.963056 
L 297.434234 220.145396 
L 297.840459 220.559837 
L 298.246683 222.767654 
L 298.652907 221.520731 
L 299.059132 228.899867 
L 299.465356 231.814953 
L 299.871581 234.420112 
L 300.277805 234.499778 
L 300.684029 231.425982 
L 301.090254 237.971068 
L 301.496478 239.465606 
L 301.902703 240.338141 
L 302.308927 240.270148 
L 302.715152 241.931574 
L 303.121376 242.397528 
L 303.5276 242.813132 
L 303.933825 240.49928 
L 304.340049 240.277606 
L 304.746274 244.291743 
L 305.152498 248.587439 
L 305.558722 249.158592 
L 305.964947 246.310381 
L 306.371171 248.8039 
L 306.777396 244.258565 
L 307.18362 244.069314 
" style="fill:none;stroke:#2790db;stroke-linecap:square;stroke-width:3;"/>
   </g>
   <g id="line2d_23">
    <path clip-path="url(#p723bcb3359)" d="M 429.050942 243.2595 
L 429.457166 245.987607 
L 429.863391 245.711678 
L 430.269615 248.323612 
L 430.675839 247.840455 
L 431.488288 244.64559 
L 431.894513 244.667798 
L 432.300737 242.215327 
L 432.706962 238.281334 
L 433.113186 232.287914 
L 433.51941 231.219934 
L 433.925635 229.097315 
L 434.331859 230.038938 
L 434.738084 232.508527 
L 435.144308 231.314127 
L 435.550532 227.667848 
L 435.956757 225.562538 
L 436.362981 224.401654 
L 436.769206 222.680024 
L 437.17543 219.700808 
L 437.581654 215.823286 
L 437.987879 217.094288 
L 438.394103 214.3896 
L 438.800328 212.653988 
L 439.206552 217.806107 
L 439.612776 219.320864 
L 440.019001 222.370576 
L 440.425225 216.380545 
L 440.83145 221.81572 
L 441.237674 218.824609 
L 441.643898 217.869018 
L 442.050123 218.139714 
L 442.456347 216.528379 
L 442.862572 213.084425 
L 443.268796 212.704131 
L 443.67502 213.232739 
L 444.081245 214.062572 
L 444.487469 216.017225 
L 444.893694 217.164082 
L 445.299918 215.937303 
L 445.706143 219.200446 
L 446.112367 220.563253 
L 446.518591 220.219294 
L 446.924816 219.164363 
L 447.33104 216.268629 
L 447.737265 214.478806 
L 448.143489 214.557152 
L 448.549713 215.38115 
L 449.362162 211.88133 
L 449.768387 213.189919 
L 450.174611 212.587408 
L 450.580835 214.789846 
L 450.98706 221.758287 
L 451.393284 220.739487 
L 451.799509 221.73188 
L 452.611957 227.181851 
L 453.018182 225.945826 
L 453.424406 225.820969 
L 453.830631 222.410253 
L 454.236855 225.415302 
L 454.643079 225.297265 
L 455.049304 226.048134 
L 455.455528 224.416974 
L 455.861753 224.936298 
L 456.267977 223.590934 
L 456.674201 228.042651 
L 457.080426 230.526934 
L 457.48665 232.262481 
L 458.705324 232.826537 
L 459.111548 232.14896 
L 459.517772 234.603211 
L 459.923997 233.190416 
L 460.330221 233.276356 
L 460.736446 226.275207 
L 461.14267 221.892004 
L 461.548894 221.342767 
L 461.955119 224.063102 
L 462.767568 238.013056 
L 463.173792 235.073218 
L 463.580016 237.416735 
L 464.392465 236.236233 
L 464.79869 236.328853 
L 465.204914 235.873075 
L 465.611138 234.363699 
L 466.017363 234.950234 
L 466.423587 243.101466 
L 467.236036 230.381896 
L 467.64226 232.876309 
L 468.048485 232.695837 
L 468.454709 229.599199 
L 469.267158 232.82649 
L 469.673382 235.289388 
L 470.485831 231.40277 
L 470.892056 230.907744 
L 471.29828 233.628097 
L 471.704505 234.256503 
L 472.516953 231.462384 
L 472.923178 232.337571 
L 473.329402 232.134058 
L 473.735627 230.273243 
L 474.141851 227.66025 
L 474.548075 229.72301 
L 474.9543 227.842817 
L 475.766749 221.157131 
L 476.172973 221.939627 
L 476.579197 220.326136 
L 476.985422 219.734989 
L 477.391646 216.58789 
L 477.797871 214.538876 
L 478.204095 209.409406 
L 478.610319 212.172954 
L 479.016544 216.031725 
L 479.422768 217.617731 
L 479.828993 215.419424 
L 480.235217 214.220447 
L 480.641441 215.058312 
L 481.047666 221.815447 
L 481.45389 223.468206 
L 481.860115 219.18243 
L 482.266339 216.446276 
L 482.672563 215.869248 
L 483.078788 213.163287 
L 483.485012 213.528562 
L 483.891237 214.155245 
L 484.297461 207.559262 
L 484.703686 205.619328 
L 485.10991 205.734277 
L 485.516134 202.902217 
L 485.922359 205.852622 
L 486.328583 204.347934 
L 486.734808 208.09549 
L 487.141032 203.366119 
L 487.547256 201.0643 
L 488.359705 202.830725 
L 488.76593 205.675277 
L 489.172154 204.458257 
L 489.578378 206.890902 
L 489.984603 204.888907 
L 490.390827 208.372635 
L 490.797052 206.712512 
L 491.203276 211.581305 
L 492.421949 201.151361 
L 492.828174 200.544588 
L 493.234398 200.374112 
L 493.640622 197.070248 
L 494.046847 204.682456 
L 494.453071 207.572253 
L 494.859296 208.717747 
L 495.26552 203.999369 
L 495.671744 211.397082 
L 496.077969 209.916371 
L 496.484193 213.749881 
L 496.890418 219.545835 
L 497.702867 212.261666 
L 497.702867 212.261666 
" style="fill:none;stroke:#2790db;stroke-linecap:square;stroke-width:3;"/>
   </g>
   <g id="line2d_24">
    <path clip-path="url(#p723bcb3359)" d="M 497.702867 212.261666 
L 498.109091 207.735813 
" style="fill:none;stroke:#2790db;stroke-linecap:square;stroke-width:3;"/>
   </g>
   <g id="matplotlib.axis_3">
    <g id="xtick_7">
     <g id="line2d_25">
      <g>
       <use style="stroke:#000000;stroke-width:0.8;" x="92.290909" xlink:href="#m7637e6514d" y="315"/>
      </g>
     </g>
     <g id="text_12">
      <!-- 0 -->
      <g transform="translate(89.109659 329.598437)scale(0.1 -0.1)">
       <use xlink:href="#DejaVuSans-48"/>
      </g>
     </g>
    </g>
    <g id="xtick_8">
     <g id="line2d_26">
      <g>
       <use style="stroke:#000000;stroke-width:0.8;" x="173.53579" xlink:href="#m7637e6514d" y="315"/>
      </g>
     </g>
     <g id="text_13">
      <!-- 200 -->
      <g transform="translate(163.99204 329.598437)scale(0.1 -0.1)">
       <use xlink:href="#DejaVuSans-50"/>
       <use x="63.623047" xlink:href="#DejaVuSans-48"/>
       <use x="127.246094" xlink:href="#DejaVuSans-48"/>
      </g>
     </g>
    </g>
    <g id="xtick_9">
     <g id="line2d_27">
      <g>
       <use style="stroke:#000000;stroke-width:0.8;" x="254.780672" xlink:href="#m7637e6514d" y="315"/>
      </g>
     </g>
     <g id="text_14">
      <!-- 400 -->
      <g transform="translate(245.236922 329.598437)scale(0.1 -0.1)">
       <use xlink:href="#DejaVuSans-52"/>
       <use x="63.623047" xlink:href="#DejaVuSans-48"/>
       <use x="127.246094" xlink:href="#DejaVuSans-48"/>
      </g>
     </g>
    </g>
    <g id="xtick_10">
     <g id="line2d_28">
      <g>
       <use style="stroke:#000000;stroke-width:0.8;" x="336.025553" xlink:href="#m7637e6514d" y="315"/>
      </g>
     </g>
     <g id="text_15">
      <!-- 600 -->
      <g transform="translate(326.481803 329.598437)scale(0.1 -0.1)">
       <use xlink:href="#DejaVuSans-54"/>
       <use x="63.623047" xlink:href="#DejaVuSans-48"/>
       <use x="127.246094" xlink:href="#DejaVuSans-48"/>
      </g>
     </g>
    </g>
    <g id="xtick_11">
     <g id="line2d_29">
      <g>
       <use style="stroke:#000000;stroke-width:0.8;" x="417.270434" xlink:href="#m7637e6514d" y="315"/>
      </g>
     </g>
     <g id="text_16">
      <!-- 800 -->
      <g transform="translate(407.726684 329.598437)scale(0.1 -0.1)">
       <use xlink:href="#DejaVuSans-56"/>
       <use x="63.623047" xlink:href="#DejaVuSans-48"/>
       <use x="127.246094" xlink:href="#DejaVuSans-48"/>
      </g>
     </g>
    </g>
    <g id="xtick_12">
     <g id="line2d_30">
      <g>
       <use style="stroke:#000000;stroke-width:0.8;" x="498.515315" xlink:href="#m7637e6514d" y="315"/>
      </g>
     </g>
     <g id="text_17">
      <!-- 1000 -->
      <g transform="translate(485.790315 329.598437)scale(0.1 -0.1)">
       <use xlink:href="#DejaVuSans-49"/>
       <use x="63.623047" xlink:href="#DejaVuSans-48"/>
       <use x="127.246094" xlink:href="#DejaVuSans-48"/>
       <use x="190.869141" xlink:href="#DejaVuSans-48"/>
      </g>
     </g>
    </g>
   </g>
   <g id="matplotlib.axis_4">
    <g id="ytick_6">
     <g id="line2d_31">
      <g>
       <use style="stroke:#000000;stroke-width:0.8;" x="72" xlink:href="#m929e043c42" y="296.745535"/>
      </g>
     </g>
     <g id="text_18">
      <!-- 100 -->
      <g transform="translate(45.9125 300.544753)scale(0.1 -0.1)">
       <use xlink:href="#DejaVuSans-49"/>
       <use x="63.623047" xlink:href="#DejaVuSans-48"/>
       <use x="127.246094" xlink:href="#DejaVuSans-48"/>
      </g>
     </g>
    </g>
    <g id="ytick_7">
     <g id="line2d_32">
      <g>
       <use style="stroke:#000000;stroke-width:0.8;" x="72" xlink:href="#m929e043c42" y="267.508382"/>
      </g>
     </g>
     <g id="text_19">
      <!-- 110 -->
      <g transform="translate(45.9125 271.307601)scale(0.1 -0.1)">
       <use xlink:href="#DejaVuSans-49"/>
       <use x="63.623047" xlink:href="#DejaVuSans-49"/>
       <use x="127.246094" xlink:href="#DejaVuSans-48"/>
      </g>
     </g>
    </g>
    <g id="ytick_8">
     <g id="line2d_33">
      <g>
       <use style="stroke:#000000;stroke-width:0.8;" x="72" xlink:href="#m929e043c42" y="238.27123"/>
      </g>
     </g>
     <g id="text_20">
      <!-- 120 -->
      <g transform="translate(45.9125 242.070448)scale(0.1 -0.1)">
       <use xlink:href="#DejaVuSans-49"/>
       <use x="63.623047" xlink:href="#DejaVuSans-50"/>
       <use x="127.246094" xlink:href="#DejaVuSans-48"/>
      </g>
     </g>
    </g>
    <g id="ytick_9">
     <g id="line2d_34">
      <g>
       <use style="stroke:#000000;stroke-width:0.8;" x="72" xlink:href="#m929e043c42" y="209.034077"/>
      </g>
     </g>
     <g id="text_21">
      <!-- 130 -->
      <g transform="translate(45.9125 212.833296)scale(0.1 -0.1)">
       <use xlink:href="#DejaVuSans-49"/>
       <use x="63.623047" xlink:href="#DejaVuSans-51"/>
       <use x="127.246094" xlink:href="#DejaVuSans-48"/>
      </g>
     </g>
    </g>
   </g>
   <g id="patch_8">
    <path d="M 72 315 
L 72 191.454545 
" style="fill:none;stroke:#000000;stroke-linecap:square;stroke-linejoin:miter;stroke-width:0.8;"/>
   </g>
   <g id="patch_9">
    <path d="M 518.4 315 
L 518.4 191.454545 
" style="fill:none;stroke:#000000;stroke-linecap:square;stroke-linejoin:miter;stroke-width:0.8;"/>
   </g>
   <g id="patch_10">
    <path d="M 72 315 
L 518.4 315 
" style="fill:none;stroke:#000000;stroke-linecap:square;stroke-linejoin:miter;stroke-width:0.8;"/>
   </g>
   <g id="patch_11">
    <path d="M 72 191.454545 
L 518.4 191.454545 
" style="fill:none;stroke:#000000;stroke-linecap:square;stroke-linejoin:miter;stroke-width:0.8;"/>
   </g>
  </g>
 </g>
 <defs>
  <clipPath id="p269d42ec98">
   <rect height="123.545455" width="446.4" x="72" y="43.2"/>
  </clipPath>
  <clipPath id="p723bcb3359">
   <rect height="123.545455" width="446.4" x="72" y="191.454545"/>
  </clipPath>
 </defs>
</svg>
